<svg xmlns="http://www.w3.org/2000/svg" viewBox="-5 -10 110 135">
  <g fill="#64a342">
    <path d="m23.148 28.613h4.1523v10.148h13.242v-10.148h4.1523c1.5664 0 2.3516-1.9219 1.2539-3.0156l-10.773-10.773c-0.70312-0.70312-1.8398-0.70312-2.5078 0l-10.773 10.773c-1.1367 1.0977-0.35156 3.0156 1.2539 3.0156z"></path>
    <path d="m47.598 19.711h4.1523v19.051h8.9336c1.2148-1.7227 2.7031-3.2539 4.3477-4.5469v-14.508h4.1523c1.5664 0 2.3516-1.9219 1.2539-3.0547l-10.812-10.773c-0.66406-0.66797-1.8008-0.66797-2.4688 0l-10.812 10.773c-1.0977 1.1367-0.3125 3.0547 1.2539 3.0547z"></path>
    <path d="m56.293 52.199c0-3.0938 0.62891-6.0312 1.7266-8.7383h-38.516l-1.8398-7.6016c-0.3125-1.1758-1.3711-1.9961-2.5859-1.9961h-9.9141c-1.4883 0-2.6641 1.1758-2.6641 2.6641 0 1.4492 1.1758 2.625 2.6641 2.625h7.8359l10.488 42.703c0.3125 1.1758 1.3711 2.0352 2.5859 2.0352h34.363c1.4492 0 2.625-1.2148 2.625-2.6641 0-1.4492-1.1758-2.6641-2.625-2.6641l-32.289 0.003906-1.1992-4.8984h36.945c1.2148 0 2.2734-0.82422 2.5469-1.9961l0.078125-0.35156c-6.1914-4.1523-10.227-11.168-10.227-19.121z"></path>
    <path d="m31.082 86.129c-2.3438 0-4.2461 1.9023-4.2461 4.2461s1.9023 4.25 4.2461 4.25 4.2461-1.9023 4.2461-4.25-1.9023-4.2461-4.2461-4.2461z"></path>
    <path d="m56.703 86.129c-2.3438 0-4.2461 1.9023-4.2461 4.2461s1.9023 4.25 4.2461 4.25 4.2461-1.9023 4.2461-4.25-1.9023-4.2461-4.2461-4.2461z"></path>
    <path d="m79.25 33.949c-10.078 0-18.246 8.1719-18.246 18.246 0 9.4102 7.1289 17.137 16.277 18.121 10.957 1.1406 20.219-7.3945 20.219-18.121 0-10.078-8.1719-18.246-18.25-18.246z"></path>
  </g>
</svg>
