<?xml version="1.0" encoding="utf-8"?>
<svg xmlns="http://www.w3.org/2000/svg" fill="none" height="80" width="130">
  <g stroke="#000" stroke-width="5">
    <g stroke-linecap="round" stroke-linejoin="round">
      <path d="M43 66h45M10.5 55.5V63a3 3 0 0 0 3 3h7m99-37H104a3 3 0 0 0-3 3v10a3 3 0 0 0 3 3h23M10 40.5V6a3 3 0 0 1 3-3h71a3 3 0 0 1 3 3v46a3 3 0 0 1-3 3H48.5"/>
      <path d="M3 47.5h16.5M3 54.5h7.5m77-36h25.057a3 3 0 0 1 2.738 1.773l11.943 26.642a3 3 0 0 1 .262 1.227V63.5a3 3 0 0 1-3 3h-13"/>
    </g>
    <circle cx="32" cy="66" r="11.5" stroke-linejoin="round"/>
    <circle cx="100" cy="66" r="11.5" stroke-linejoin="round"/>
  </g>
  <path d="M63.4 31.263v12.895c0 1.017-.806 1.842-1.8 1.842H36.4c-.994 0-1.8-.825-1.8-1.842V31.263h28.8zM53.5 11c3.479 0 6.3 2.887 6.3 6.447 0 .99-.218 1.927-.607 2.765l6.007-.002c.994 0 1.8.825 1.8 1.842v5.526c0 1.017-.806 1.842-1.8 1.842H32.8c-.994 0-1.8-.825-1.8-1.842v-5.526c0-1.017.806-1.842 1.8-1.842l6.007.002c-.389-.838-.607-1.775-.607-2.765 0-3.561 2.821-6.447 6.3-6.447 1.764 0 3.359.742 4.502 1.938C50.141 11.742 51.736 11 53.5 11zm-9 3.684c-1.491 0-2.7 1.237-2.7 2.763 0 1.436 1.071 2.617 2.44 2.751l.26.013h2.7v-2.763c0-1.436-1.071-2.617-2.44-2.75l-.26-.013zm9 0l-.26.013c-1.284.126-2.305 1.171-2.428 2.484l-.012.266v2.763h2.7l.26-.013c1.369-.134 2.44-1.314 2.44-2.751s-1.071-2.617-2.44-2.75l-.26-.013z" fill="#000"/>
</svg>