<?xml version="1.0" encoding="utf-8"?>
<svg xmlns="http://www.w3.org/2000/svg" viewBox="0 0 32 32">
  <path d="M28 7h-2V6c0-2.757-2.243-5-5-5a4.95 4.95 0 0 0-2 .424A4.95 4.95 0 0 0 17 1c-2.757 0-5 2.243-5 5v1h-2c-1.654 0-3 1.346-3 3v3H2a1 1 0 0 0-1 1v12a1 1 0 0 0 1 1h5v1c0 1.654 1.346 3 3 3h14 4c1.654 0 3-1.346 3-3V10c0-1.654-1.346-3-3-3zm-4-1v1h-2V6c0-1.129-.39-2.16-1.024-2.998.008 0 .016-.002.024-.002 1.654 0 3 1.346 3 3zm-5-2.22c.609.55 1 1.337 1 2.22v1h-2V6c0-.883.391-1.67 1-2.22zM14 6c0-1.654 1.346-3 3-3 .008 0 .016.002.024.002C16.39 3.84 16 4.871 16 6v1h-2V6zM3 15h10.382l2.5 5-2.5 5H3V15zm14.895 4.553L15.618 15h1.764l2.5 5-2.5 5h-1.764l2.276-4.553a1 1 0 0 0 .001-.894zM9 28v-1h5 4a1 1 0 0 0 .895-.553l3-6a1 1 0 0 0 0-.895l-3-6A1 1 0 0 0 18 13h-4-5v-3a1 1 0 0 1 1-1h2v1a1 1 0 1 0 2 0V9h6v1a1 1 0 1 0 2 0V9h2a1 1 0 0 1 1 1v18a1 1 0 0 1-1 1H10a1 1 0 0 1-1-1zm20 0a1 1 0 0 1-1 1h-1.184c.112-.314.184-.648.184-1V10c0-.352-.072-.686-.184-1H28a1 1 0 0 1 1 1v18z"/>
  <circle cx="6.5" cy="17.5" r="1.5"/>
  <circle cx="10.5" cy="22.5" r="1.5"/>
  <path d="M11.641 16.232a1 1 0 0 0-1.409.128l-5 6a1 1 0 0 0 .128 1.408c.187.156.413.232.639.232.287 0 .571-.123.77-.36l5-6a1 1 0 0 0-.128-1.408z"/>
</svg>