<svg xmlns="http://www.w3.org/2000/svg" xmlns:xlink="http://www.w3.org/1999/xlink" width="140" zoomAndPan="magnify" viewBox="0 0 104.88 104.999996" height="140" preserveAspectRatio="xMidYMid meet" version="1.0"><defs><filter x="0%" y="0%" width="100%" height="100%" id="fb0220b989"><feColorMatrix values="0 0 0 0 1 0 0 0 0 1 0 0 0 0 1 0 0 0 1 0" color-interpolation-filters="sRGB"/></filter><clipPath id="5d8f1390d1"><path d="M 2.070312 18 L 99 18 L 99 88 L 2.070312 88 Z M 2.070312 18 " clip-rule="nonzero"/></clipPath><clipPath id="af8273895b"><path d="M 101 45 L 102.457031 45 L 102.457031 47 L 101 47 Z M 101 45 " clip-rule="nonzero"/></clipPath><clipPath id="1aefe1806f"><path d="M 28 15.164062 L 34 15.164062 L 34 28 L 28 28 Z M 28 15.164062 " clip-rule="nonzero"/></clipPath><clipPath id="8a7f71f249"><path d="M 27 15.164062 L 34 15.164062 L 34 28 L 27 28 Z M 27 15.164062 " clip-rule="nonzero"/></clipPath><clipPath id="d058f4f8a5"><path d="M 2.070312 25 L 51 25 L 51 88 L 2.070312 88 Z M 2.070312 25 " clip-rule="nonzero"/></clipPath><mask id="32d668d893"><g filter="url(#fb0220b989)"><rect x="-10.488" width="125.856" fill="#000000" y="-10.5" height="125.999995" fill-opacity="0.1"/></g></mask><clipPath id="3663176e69"><path d="M 0.15625 0.230469 L 48.101562 0.230469 L 48.101562 62.558594 L 0.15625 62.558594 Z M 0.15625 0.230469 " clip-rule="nonzero"/></clipPath><clipPath id="1b99eaf5ae"><rect x="0" width="49" y="0" height="63"/></clipPath><clipPath id="d6f6daaa99"><path d="M 66.941406 60.972656 L 75.933594 60.972656 L 75.933594 72 L 66.941406 72 Z M 66.941406 60.972656 " clip-rule="nonzero"/></clipPath><clipPath id="06321f7788"><path d="M 14.75 46.246094 L 81.425781 46.246094 L 81.425781 61.976562 L 14.75 61.976562 Z M 14.75 46.246094 " clip-rule="nonzero"/></clipPath><clipPath id="28123f4110"><path d="M 16 47 L 80 47 L 80 61.976562 L 16 61.976562 Z M 16 47 " clip-rule="nonzero"/></clipPath></defs><path fill="#000000" d="M 101.40625 46.648438 C 98.957031 48.535156 93.925781 53.171875 92.175781 60.964844 C 90.277344 69.394531 93.449219 76.042969 94.375 77.832031 C 90.578125 72.941406 83.980469 71.546875 79.089844 74.242188 C 75.121094 76.429688 72.796875 81.019531 73.222656 85.863281 C 71.34375 80.0625 65.382812 76.722656 59.832031 78.027344 C 57.050781 78.679688 54.679688 80.421875 53.125 82.777344 C 51.832031 84.746094 51.183594 86.90625 51.183594 89.257812 C 50.984375 88.574219 48.5625 80.84375 40.957031 78.414062 C 34.535156 76.363281 27.144531 78.964844 22.894531 84.972656 C 26.113281 79.722656 24.285156 73.789062 20.734375 72.082031 C 18.320312 70.925781 15.042969 71.671875 12.457031 73.730469 C 16.25 69.898438 17.214844 64.222656 14.941406 59.769531 C 12.152344 54.304688 5.949219 53.550781 5.484375 53.5 C 6.074219 53.328125 14.613281 50.640625 17.140625 41.898438 C 19.371094 34.179688 15.101562 27.996094 14.554688 27.234375 C 17.101562 30.4375 20.410156 32.738281 24.003906 34.003906 C 28.007812 35.414062 32.363281 35.539062 36.402344 34.179688 C 45.730469 31.042969 48.585938 21.605469 48.828125 20.75 C 49.695312 22.867188 52.367188 28.597656 58.632812 31.980469 C 66.074219 35.996094 75.601562 35.089844 83.257812 29.78125 C 79.671875 34.453125 78.75 40.34375 81.058594 44.292969 C 84.203125 49.675781 93.597656 51.90625 101.40625 46.648438 Z M 101.40625 46.648438 " fill-opacity="1" fill-rule="nonzero"/><path fill="#000000" d="M 51.183594 89.585938 C 51.019531 89.585938 50.914062 89.507812 50.867188 89.351562 C 50.753906 88.964844 50.113281 86.929688 48.574219 84.671875 C 46.5625 81.71875 43.96875 79.71875 40.855469 78.722656 C 34.546875 76.710938 27.269531 79.355469 23.160156 85.164062 C 23.109375 85.234375 23.039062 85.277344 22.953125 85.292969 C 22.867188 85.308594 22.785156 85.292969 22.710938 85.246094 C 22.640625 85.195312 22.59375 85.128906 22.574219 85.042969 C 22.554688 84.957031 22.566406 84.875 22.613281 84.800781 C 24.1875 82.234375 24.640625 79.242188 23.859375 76.59375 C 23.285156 74.636719 22.089844 73.097656 20.589844 72.378906 C 18.351562 71.304688 15.238281 71.933594 12.660156 73.988281 C 12.589844 74.042969 12.515625 74.0625 12.429688 74.054688 C 12.34375 74.046875 12.269531 74.011719 12.214844 73.949219 C 12.15625 73.882812 12.128906 73.808594 12.128906 73.722656 C 12.132812 73.636719 12.164062 73.5625 12.222656 73.5 C 15.917969 69.769531 16.894531 64.3125 14.648438 59.917969 C 13.519531 57.703125 11.6875 56.019531 9.207031 54.90625 C 7.277344 54.039062 5.632812 53.847656 5.453125 53.828125 C 5.273438 53.808594 5.175781 53.710938 5.15625 53.53125 C 5.140625 53.351562 5.222656 53.238281 5.394531 53.1875 C 5.640625 53.113281 7.890625 52.417969 10.398438 50.644531 C 13.628906 48.359375 15.792969 45.386719 16.828125 41.808594 C 18.953125 34.453125 15.085938 28.535156 14.289062 27.425781 C 14.238281 27.351562 14.21875 27.269531 14.230469 27.183594 C 14.246094 27.09375 14.289062 27.023438 14.359375 26.972656 C 14.429688 26.917969 14.507812 26.894531 14.597656 26.90625 C 14.6875 26.917969 14.757812 26.957031 14.8125 27.027344 C 17.261719 30.105469 20.476562 32.410156 24.113281 33.695312 C 28.113281 35.105469 32.4375 35.164062 36.296875 33.867188 C 40.132812 32.578125 43.3125 30.074219 45.75 26.425781 C 47.613281 23.640625 48.378906 21.132812 48.515625 20.660156 C 48.554688 20.507812 48.65625 20.429688 48.8125 20.421875 C 48.96875 20.414062 49.074219 20.480469 49.132812 20.625 C 50.273438 23.429688 53.050781 28.59375 58.789062 31.691406 C 66.121094 35.648438 75.425781 34.8125 83.070312 29.507812 C 83.226562 29.402344 83.367188 29.414062 83.496094 29.550781 C 83.625 29.6875 83.632812 29.832031 83.519531 29.980469 C 79.972656 34.601562 79.097656 40.285156 81.339844 44.125 C 82.699219 46.453125 85.3125 48.207031 88.503906 48.9375 C 92.730469 49.90625 97.367188 48.972656 101.226562 46.375 C 101.296875 46.328125 101.378906 46.308594 101.464844 46.324219 C 101.554688 46.339844 101.621094 46.386719 101.675781 46.457031 C 101.726562 46.527344 101.746094 46.609375 101.730469 46.695312 C 101.71875 46.785156 101.679688 46.855469 101.609375 46.910156 C 98.925781 48.972656 94.175781 53.550781 92.492188 61.035156 C 90.730469 68.871094 93.425781 75.285156 94.664062 77.679688 C 94.703125 77.753906 94.710938 77.835938 94.691406 77.917969 C 94.667969 78 94.621094 78.0625 94.550781 78.109375 C 94.476562 78.152344 94.402344 78.167969 94.316406 78.15625 C 94.234375 78.140625 94.164062 78.097656 94.113281 78.03125 C 90.492188 73.359375 84.097656 71.855469 79.246094 74.527344 C 75.371094 76.664062 73.132812 81.101562 73.550781 85.832031 C 73.5625 86.023438 73.476562 86.136719 73.289062 86.175781 C 73.097656 86.214844 72.972656 86.144531 72.910156 85.960938 C 71.109375 80.402344 65.394531 77.054688 59.90625 78.34375 C 57.261719 78.964844 54.949219 80.605469 53.398438 82.957031 C 52.140625 84.867188 51.511719 86.96875 51.511719 89.257812 C 51.511719 89.445312 51.417969 89.554688 51.230469 89.582031 C 51.214844 89.582031 51.199219 89.585938 51.183594 89.585938 Z M 36.476562 77.390625 C 38.039062 77.390625 39.566406 77.625 41.054688 78.097656 C 42.859375 78.675781 44.488281 79.570312 45.941406 80.78125 C 47.125 81.761719 48.191406 82.945312 49.117188 84.304688 C 49.84375 85.371094 50.457031 86.5 50.957031 87.6875 C 51.195312 85.84375 51.828125 84.148438 52.851562 82.597656 C 54.496094 80.101562 56.949219 78.367188 59.753906 77.707031 C 62.539062 77.050781 65.492188 77.507812 68.066406 78.996094 C 70.179688 80.214844 71.777344 81.914062 72.859375 84.097656 C 72.941406 82.273438 73.390625 80.542969 74.214844 78.910156 C 75.292969 76.773438 76.925781 75.0625 78.933594 73.953125 C 83.46875 71.453125 89.269531 72.398438 93.191406 76.050781 C 92.648438 74.722656 92.214844 73.359375 91.898438 71.960938 C 91.050781 68.253906 91.035156 64.53125 91.855469 60.890625 C 93.152344 55.117188 96.230469 51.027344 98.84375 48.453125 C 97.5625 49.027344 96.230469 49.441406 94.851562 49.695312 C 92.671875 50.089844 90.425781 50.050781 88.355469 49.578125 C 84.988281 48.804688 82.222656 46.941406 80.773438 44.457031 C 79.605469 42.457031 79.207031 39.964844 79.621094 37.257812 C 79.953125 35.09375 80.777344 32.945312 82.027344 30.96875 C 78.570312 33.066406 74.753906 34.351562 70.890625 34.703125 C 66.464844 35.105469 62.171875 34.261719 58.476562 32.265625 C 53.074219 29.351562 50.222656 24.667969 48.871094 21.679688 C 47.941406 24.3125 44.660156 31.746094 36.503906 34.488281 C 34.453125 35.175781 32.347656 35.5 30.183594 35.457031 C 28.023438 35.414062 25.925781 35.03125 23.890625 34.3125 C 21.039062 33.300781 18.519531 31.75 16.328125 29.660156 C 17.613281 32.382812 18.941406 36.851562 17.457031 41.992188 C 16.867188 44.039062 15.914062 45.902344 14.59375 47.578125 C 13.539062 48.921875 12.253906 50.136719 10.777344 51.179688 C 9.515625 52.070312 8.175781 52.808594 6.75 53.394531 C 7.6875 53.609375 8.597656 53.914062 9.476562 54.304688 C 10.628906 54.824219 11.667969 55.472656 12.566406 56.242188 C 13.679688 57.191406 14.566406 58.316406 15.234375 59.621094 C 15.816406 60.765625 16.195312 61.972656 16.371094 63.246094 C 16.546875 64.515625 16.519531 65.78125 16.296875 67.042969 C 15.960938 68.949219 15.234375 70.691406 14.113281 72.269531 C 14.898438 71.859375 15.726562 71.5625 16.59375 71.378906 C 18.160156 71.054688 19.640625 71.195312 20.871094 71.785156 C 22.542969 72.589844 23.859375 74.273438 24.488281 76.410156 C 25.085938 78.4375 25.007812 80.652344 24.296875 82.75 C 24.949219 82.0625 25.652344 81.4375 26.40625 80.863281 C 27.808594 79.792969 29.339844 78.960938 30.996094 78.363281 C 32.617188 77.773438 34.289062 77.453125 36.011719 77.398438 C 36.167969 77.394531 36.320312 77.390625 36.476562 77.390625 Z M 36.476562 77.390625 " fill-opacity="1" fill-rule="nonzero"/><g clip-path="url(#5d8f1390d1)"><path fill="#00bf63" d="M 98.320312 44.71875 C 95.867188 46.605469 90.835938 51.242188 89.085938 59.035156 C 87.191406 67.464844 90.359375 74.113281 91.285156 75.902344 C 87.492188 71.011719 80.894531 69.617188 76 72.3125 C 72.03125 74.5 69.710938 79.089844 70.136719 83.929688 C 68.253906 78.132812 62.296875 74.792969 56.742188 76.097656 C 53.964844 76.75 51.589844 78.492188 50.039062 80.847656 C 48.746094 82.8125 48.097656 84.972656 48.097656 87.328125 C 47.894531 86.644531 45.476562 78.914062 37.867188 76.484375 C 31.445312 74.433594 24.058594 77.035156 19.804688 83.042969 C 23.027344 77.792969 21.199219 71.859375 17.644531 70.152344 C 15.234375 68.996094 11.957031 69.742188 9.367188 71.804688 C 13.164062 67.972656 14.128906 62.292969 11.851562 57.839844 C 9.066406 52.375 2.863281 51.621094 2.398438 51.570312 C 2.984375 51.398438 11.527344 48.710938 14.054688 39.96875 C 16.285156 32.25 12.015625 26.066406 11.46875 25.304688 C 14.015625 28.503906 17.324219 30.804688 20.914062 32.074219 C 24.921875 33.484375 29.277344 33.609375 33.3125 32.25 C 42.644531 29.113281 45.5 19.675781 45.742188 18.820312 C 46.605469 20.9375 49.28125 26.667969 55.546875 30.050781 C 62.988281 34.066406 72.515625 33.160156 80.171875 27.851562 C 76.582031 32.523438 75.664062 38.410156 77.972656 42.363281 C 81.113281 47.746094 90.507812 49.976562 98.320312 44.71875 Z M 98.320312 44.71875 " fill-opacity="1" fill-rule="nonzero"/><path fill="#000000" d="M 48.097656 87.65625 C 47.933594 87.65625 47.828125 87.574219 47.78125 87.417969 C 47.667969 87.035156 47.023438 85 45.488281 82.742188 C 43.476562 79.789062 40.878906 77.789062 37.769531 76.792969 C 31.457031 74.777344 24.179688 77.425781 20.074219 83.230469 C 20.019531 83.304688 19.953125 83.351562 19.863281 83.367188 C 19.777344 83.382812 19.695312 83.367188 19.621094 83.320312 C 19.546875 83.269531 19.5 83.203125 19.480469 83.113281 C 19.464844 83.027344 19.476562 82.945312 19.523438 82.871094 C 21.097656 80.304688 21.554688 77.3125 20.773438 74.664062 C 20.195312 72.707031 19.003906 71.167969 17.5 70.445312 C 15.261719 69.371094 12.148438 70.003906 9.570312 72.058594 C 9.503906 72.113281 9.425781 72.132812 9.339844 72.125 C 9.253906 72.117188 9.183594 72.082031 9.125 72.019531 C 9.070312 71.953125 9.042969 71.878906 9.042969 71.792969 C 9.042969 71.707031 9.074219 71.632812 9.136719 71.570312 C 12.832031 67.839844 13.804688 62.382812 11.5625 57.988281 C 10.429688 55.773438 8.601562 54.085938 6.121094 52.976562 C 4.1875 52.109375 2.546875 51.917969 2.363281 51.898438 C 2.183594 51.878906 2.085938 51.78125 2.070312 51.601562 C 2.054688 51.421875 2.132812 51.308594 2.304688 51.257812 C 2.554688 51.183594 4.804688 50.488281 7.308594 48.714844 C 10.539062 46.429688 12.703125 43.457031 13.738281 39.878906 C 15.863281 32.523438 11.996094 26.605469 11.199219 25.492188 C 11.144531 25.421875 11.125 25.339844 11.136719 25.25 C 11.148438 25.160156 11.191406 25.085938 11.265625 25.03125 C 11.335938 24.976562 11.417969 24.957031 11.507812 24.96875 C 11.597656 24.980469 11.671875 25.023438 11.726562 25.097656 C 14.171875 28.175781 17.390625 30.480469 21.023438 31.761719 C 25.023438 33.171875 29.351562 33.234375 33.210938 31.9375 C 37.042969 30.648438 40.222656 28.144531 42.664062 24.496094 C 44.523438 21.710938 45.292969 19.203125 45.425781 18.726562 C 45.46875 18.578125 45.566406 18.5 45.722656 18.492188 C 45.878906 18.480469 45.988281 18.550781 46.046875 18.695312 C 47.1875 21.5 49.960938 26.664062 55.699219 29.761719 C 63.03125 33.71875 72.335938 32.882812 79.984375 27.578125 C 80.136719 27.472656 80.277344 27.484375 80.410156 27.621094 C 80.539062 27.757812 80.546875 27.902344 80.429688 28.050781 C 76.882812 32.671875 76.007812 38.355469 78.253906 42.195312 C 79.613281 44.523438 82.222656 46.277344 85.414062 47.007812 C 89.640625 47.976562 94.28125 47.042969 98.136719 44.449219 C 98.210938 44.398438 98.289062 44.382812 98.378906 44.398438 C 98.464844 44.414062 98.535156 44.457031 98.585938 44.527344 C 98.636719 44.601562 98.65625 44.679688 98.644531 44.765625 C 98.632812 44.855469 98.589844 44.925781 98.519531 44.980469 C 95.839844 47.042969 91.089844 51.621094 89.40625 59.109375 C 87.644531 66.941406 90.335938 73.355469 91.578125 75.75 C 91.617188 75.828125 91.625 75.90625 91.601562 75.988281 C 91.578125 76.070312 91.53125 76.132812 91.460938 76.179688 C 91.390625 76.222656 91.3125 76.238281 91.230469 76.226562 C 91.144531 76.210938 91.078125 76.171875 91.027344 76.105469 C 87.402344 71.433594 81.011719 69.925781 76.160156 72.601562 C 72.28125 74.738281 70.046875 79.171875 70.460938 83.902344 C 70.476562 84.09375 70.390625 84.210938 70.199219 84.25 C 70.011719 84.285156 69.886719 84.214844 69.824219 84.03125 C 68.019531 78.472656 62.308594 75.125 56.816406 76.414062 C 54.175781 77.035156 51.863281 78.671875 50.3125 81.027344 C 49.054688 82.9375 48.421875 85.039062 48.425781 87.328125 C 48.425781 87.515625 48.332031 87.625 48.144531 87.652344 C 48.128906 87.652344 48.113281 87.65625 48.097656 87.65625 Z M 33.386719 75.460938 C 34.953125 75.460938 36.476562 75.695312 37.96875 76.171875 C 39.773438 76.746094 41.402344 77.640625 42.855469 78.855469 C 44.039062 79.832031 45.105469 81.019531 46.03125 82.375 C 46.753906 83.441406 47.367188 84.570312 47.871094 85.757812 C 48.109375 83.914062 48.742188 82.21875 49.765625 80.667969 C 51.410156 78.171875 53.863281 76.4375 56.667969 75.777344 C 59.453125 75.121094 62.40625 75.578125 64.980469 77.066406 C 67.09375 78.285156 68.6875 79.984375 69.773438 82.167969 C 69.855469 80.34375 70.304688 78.613281 71.128906 76.980469 C 72.207031 74.84375 73.835938 73.132812 75.84375 72.027344 C 80.378906 69.527344 86.179688 70.472656 90.105469 74.125 C 89.5625 72.796875 89.128906 71.429688 88.808594 70.03125 C 87.960938 66.328125 87.949219 62.601562 88.765625 58.964844 C 90.066406 53.183594 93.140625 49.09375 95.757812 46.519531 C 94.476562 47.097656 93.144531 47.511719 91.761719 47.765625 C 89.585938 48.164062 87.339844 48.125 85.269531 47.648438 C 81.902344 46.878906 79.136719 45.011719 77.6875 42.527344 C 76.515625 40.527344 76.121094 38.039062 76.535156 35.328125 C 76.863281 33.164062 77.6875 31.019531 78.9375 29.039062 C 75.484375 31.140625 71.667969 32.421875 67.804688 32.773438 C 63.378906 33.175781 59.085938 32.335938 55.390625 30.339844 C 49.988281 27.425781 47.136719 22.742188 45.785156 19.75 C 44.855469 22.386719 41.570312 29.820312 33.417969 32.5625 C 31.367188 33.25 29.261719 33.570312 27.097656 33.527344 C 24.9375 33.488281 22.839844 33.105469 20.808594 32.382812 C 17.953125 31.375 15.429688 29.820312 13.242188 27.730469 C 14.523438 30.453125 15.855469 34.917969 14.371094 40.0625 C 13.78125 42.109375 12.824219 43.972656 11.507812 45.648438 C 10.453125 46.992188 9.167969 48.203125 7.6875 49.25 C 6.429688 50.140625 5.089844 50.878906 3.664062 51.464844 C 4.601562 51.679688 5.507812 51.984375 6.386719 52.375 C 7.542969 52.894531 8.582031 53.542969 9.476562 54.3125 C 10.589844 55.261719 11.480469 56.386719 12.144531 57.691406 C 12.726562 58.835938 13.109375 60.042969 13.28125 61.316406 C 13.457031 62.585938 13.433594 63.851562 13.210938 65.113281 C 12.875 67.019531 12.144531 68.761719 11.023438 70.339844 C 11.8125 69.929688 12.636719 69.632812 13.503906 69.449219 C 15.074219 69.125 16.554688 69.265625 17.785156 69.855469 C 19.453125 70.660156 20.773438 72.34375 21.402344 74.480469 C 22 76.507812 21.921875 78.722656 21.210938 80.820312 C 21.863281 80.132812 22.566406 79.503906 23.316406 78.933594 C 24.722656 77.863281 26.25 77.03125 27.910156 76.429688 C 29.53125 75.84375 31.199219 75.523438 32.921875 75.46875 C 33.078125 75.464844 33.234375 75.460938 33.390625 75.460938 Z M 33.386719 75.460938 " fill-opacity="1" fill-rule="nonzero"/></g><g clip-path="url(#af8273895b)"><path fill="#000000" d="M 102.476562 45.875 C 102.125 46.148438 101.769531 46.40625 101.40625 46.648438 C 101.867188 46.296875 102.238281 46.039062 102.476562 45.875 Z M 102.476562 45.875 " fill-opacity="1" fill-rule="nonzero"/><path fill="#000000" d="M 101.40625 46.976562 C 101.25 46.976562 101.148438 46.90625 101.097656 46.757812 C 101.046875 46.609375 101.082031 46.484375 101.207031 46.390625 C 101.566406 46.113281 101.921875 45.855469 102.292969 45.601562 C 102.367188 45.554688 102.445312 45.535156 102.535156 45.550781 C 102.621094 45.566406 102.691406 45.609375 102.742188 45.679688 C 102.796875 45.753906 102.816406 45.832031 102.804688 45.921875 C 102.789062 46.007812 102.75 46.078125 102.679688 46.132812 C 102.324219 46.410156 101.957031 46.675781 101.589844 46.921875 C 101.535156 46.960938 101.472656 46.976562 101.40625 46.976562 Z M 101.40625 46.976562 " fill-opacity="1" fill-rule="nonzero"/></g><path fill="#00bf63" d="M 99.390625 43.945312 C 99.039062 44.21875 98.679688 44.476562 98.320312 44.71875 C 98.78125 44.367188 99.152344 44.109375 99.390625 43.945312 Z M 99.390625 43.945312 " fill-opacity="1" fill-rule="nonzero"/><path fill="#000000" d="M 98.320312 45.046875 C 98.164062 45.046875 98.058594 44.976562 98.007812 44.828125 C 97.957031 44.679688 97.996094 44.554688 98.117188 44.460938 C 98.480469 44.183594 98.835938 43.925781 99.203125 43.671875 C 99.277344 43.625 99.359375 43.605469 99.445312 43.621094 C 99.535156 43.636719 99.605469 43.679688 99.65625 43.75 C 99.710938 43.824219 99.730469 43.902344 99.714844 43.992188 C 99.703125 44.078125 99.660156 44.148438 99.589844 44.203125 C 99.238281 44.480469 98.871094 44.746094 98.503906 44.992188 C 98.449219 45.027344 98.386719 45.046875 98.320312 45.046875 Z M 98.320312 45.046875 " fill-opacity="1" fill-rule="nonzero"/><path fill="#ffffff" d="M 15.636719 77.25 L 9.464844 87.566406 L 6.871094 85.476562 Z M 15.636719 77.25 " fill-opacity="1" fill-rule="nonzero"/><path fill="#000000" d="M 9.464844 87.835938 C 9.402344 87.835938 9.347656 87.816406 9.296875 87.777344 L 6.703125 85.6875 C 6.636719 85.636719 6.605469 85.570312 6.601562 85.484375 C 6.597656 85.402344 6.628906 85.335938 6.6875 85.277344 L 15.453125 77.050781 C 15.566406 76.945312 15.683594 76.941406 15.804688 77.039062 C 15.929688 77.136719 15.949219 77.253906 15.867188 77.386719 L 9.699219 87.703125 C 9.65625 87.773438 9.59375 87.816406 9.515625 87.832031 C 9.496094 87.835938 9.480469 87.835938 9.464844 87.835938 Z M 7.285156 85.460938 L 9.394531 87.160156 L 14.414062 78.769531 Z M 7.285156 85.460938 " fill-opacity="1" fill-rule="nonzero"/><path fill="#ffffff" d="M 96.066406 29.949219 L 87.738281 38.617188 L 98.125 32.566406 Z M 96.066406 29.949219 " fill-opacity="1" fill-rule="nonzero"/><path fill="#000000" d="M 87.738281 38.886719 C 87.617188 38.886719 87.535156 38.832031 87.484375 38.722656 C 87.4375 38.613281 87.457031 38.515625 87.542969 38.429688 L 95.871094 29.761719 C 95.925781 29.703125 95.996094 29.675781 96.078125 29.679688 C 96.160156 29.683594 96.226562 29.71875 96.277344 29.78125 L 98.335938 32.402344 C 98.386719 32.464844 98.40625 32.539062 98.390625 32.617188 C 98.375 32.699219 98.332031 32.761719 98.261719 32.800781 L 87.871094 38.847656 C 87.832031 38.875 87.785156 38.886719 87.738281 38.886719 Z M 96.046875 30.359375 L 89.269531 37.410156 L 97.71875 32.492188 Z M 96.046875 30.359375 " fill-opacity="1" fill-rule="nonzero"/><path fill="#ffffff" d="M 87.867188 89.527344 L 81.558594 79.296875 L 90.433594 87.402344 Z M 87.867188 89.527344 " fill-opacity="1" fill-rule="nonzero"/><path fill="#000000" d="M 87.867188 89.796875 C 87.851562 89.796875 87.835938 89.796875 87.820312 89.792969 C 87.742188 89.78125 87.679688 89.738281 87.636719 89.667969 L 81.328125 79.4375 C 81.234375 79.300781 81.25 79.183594 81.378906 79.078125 C 81.503906 78.972656 81.625 78.980469 81.738281 79.09375 L 90.613281 87.203125 C 90.675781 87.257812 90.703125 87.328125 90.703125 87.410156 C 90.699219 87.492188 90.667969 87.558594 90.605469 87.609375 L 88.039062 89.738281 C 87.988281 89.777344 87.929688 89.796875 87.867188 89.796875 Z M 82.800781 80.796875 L 87.933594 89.121094 L 90.019531 87.394531 Z M 82.800781 80.796875 " fill-opacity="1" fill-rule="nonzero"/><g clip-path="url(#1aefe1806f)"><path fill="#ffffff" d="M 31.359375 15.46875 L 33.425781 27.308594 L 28.1875 16.492188 Z M 31.359375 15.46875 " fill-opacity="1" fill-rule="nonzero"/></g><g clip-path="url(#8a7f71f249)"><path fill="#000000" d="M 33.421875 27.578125 C 33.3125 27.578125 33.230469 27.527344 33.179688 27.425781 L 27.941406 16.609375 C 27.90625 16.535156 27.902344 16.457031 27.9375 16.382812 C 27.96875 16.308594 28.023438 16.257812 28.105469 16.234375 L 31.273438 15.210938 C 31.351562 15.183594 31.425781 15.195312 31.496094 15.234375 C 31.566406 15.277344 31.609375 15.339844 31.625 15.421875 L 33.691406 27.261719 C 33.703125 27.347656 33.683594 27.417969 33.628906 27.484375 C 33.578125 27.546875 33.507812 27.578125 33.421875 27.578125 Z M 28.5625 16.652344 L 32.824219 25.453125 L 31.148438 15.820312 Z M 28.5625 16.652344 " fill-opacity="1" fill-rule="nonzero"/></g><g clip-path="url(#d058f4f8a5)"><g mask="url(#32d668d893)"><g transform="matrix(1, 0, 0, 1, 2, 25)"><g clip-path="url(#1b99eaf5ae)"><g clip-path="url(#3663176e69)"><path fill="#000000" d="M 48.039062 55.847656 C 46.742188 57.8125 46.097656 59.972656 46.097656 62.328125 C 45.894531 61.644531 43.472656 53.910156 35.867188 51.480469 C 29.445312 49.429688 22.058594 52.035156 17.804688 58.042969 C 21.023438 52.792969 19.199219 46.859375 15.644531 45.152344 C 13.234375 43.996094 9.953125 44.742188 7.367188 46.800781 C 11.164062 42.972656 12.128906 37.292969 9.851562 32.839844 C 7.066406 27.375 0.863281 26.621094 0.398438 26.570312 C 0.984375 26.398438 9.527344 23.710938 12.054688 14.96875 C 14.285156 7.25 10.015625 1.066406 9.46875 0.304688 C 12.015625 3.503906 15.324219 5.804688 18.914062 7.074219 C 19.984375 11.042969 21.289062 14.9375 22.824219 18.75 C 29.410156 35.128906 39.1875 47.296875 48.039062 55.847656 Z M 48.039062 55.847656 " fill-opacity="1" fill-rule="nonzero"/></g></g></g></g></g><g clip-path="url(#d6f6daaa99)"><path fill="#fdfbfc" d="M 75.855469 61.652344 C 75.8125 61.355469 75.5625 61.09375 75.238281 61.003906 C 75.011719 60.945312 74.742188 60.96875 74.445312 61.070312 C 73.980469 61.238281 73.550781 61.578125 73.132812 62.117188 C 73.046875 62.21875 72.980469 62.335938 72.917969 62.449219 C 72.859375 62.550781 72.796875 62.660156 72.722656 62.753906 C 72.558594 62.8125 72.382812 62.855469 72.214844 62.898438 C 72.039062 62.945312 71.855469 62.992188 71.675781 63.054688 C 71.515625 63.109375 71.347656 63.148438 71.179688 63.1875 C 70.835938 63.269531 70.480469 63.351562 70.1875 63.566406 C 69.859375 63.945312 69.601562 64.386719 69.351562 64.816406 C 69.253906 64.976562 69.15625 65.148438 69.054688 65.308594 C 68.8125 65.738281 68.550781 66.167969 68.296875 66.582031 C 67.933594 67.175781 67.558594 67.785156 67.230469 68.414062 C 67.207031 68.464844 67.175781 68.523438 67.144531 68.574219 C 67.023438 68.792969 66.898438 69.019531 66.960938 69.273438 C 67.03125 69.605469 67.335938 69.796875 67.605469 69.964844 C 67.625 69.976562 67.644531 69.988281 67.664062 70.003906 C 68.109375 70.265625 68.554688 70.542969 68.988281 70.808594 C 69.496094 71.125 70.019531 71.449219 70.546875 71.753906 C 70.722656 71.851562 70.90625 71.941406 71.097656 71.941406 C 71.148438 71.941406 71.199219 71.933594 71.253906 71.917969 C 71.460938 71.871094 71.59375 71.679688 71.699219 71.527344 C 72.203125 70.792969 72.65625 70.003906 73.089844 69.242188 C 73.199219 69.054688 73.308594 68.863281 73.417969 68.671875 C 73.753906 68.136719 74.09375 67.558594 74.484375 66.859375 C 74.5 66.828125 74.519531 66.796875 74.535156 66.769531 C 74.648438 66.566406 74.765625 66.355469 74.730469 66.117188 C 74.714844 65.996094 74.707031 65.871094 74.699219 65.75 C 74.6875 65.554688 74.675781 65.355469 74.628906 65.164062 C 74.601562 65.039062 74.566406 64.914062 74.535156 64.792969 C 74.480469 64.582031 74.421875 64.363281 74.386719 64.144531 C 74.894531 63.820312 75.304688 63.390625 75.574219 62.90625 C 75.816406 62.449219 75.910156 62.027344 75.855469 61.652344 Z M 73.160156 64.367188 C 73.027344 64.308594 72.921875 64.199219 72.851562 64.046875 C 72.980469 64.085938 73.136719 64.175781 73.160156 64.367188 Z M 72.433594 64.761719 C 72.265625 64.585938 72.347656 64.328125 72.425781 64.144531 C 72.449219 64.183594 72.472656 64.21875 72.496094 64.257812 C 72.550781 64.34375 72.609375 64.4375 72.679688 64.515625 C 72.765625 64.597656 72.875 64.652344 72.980469 64.703125 C 73.015625 64.722656 73.054688 64.742188 73.089844 64.761719 C 72.925781 64.84375 72.625 64.953125 72.433594 64.761719 Z M 72.515625 63.355469 C 72.5 63.488281 72.480469 63.628906 72.414062 63.746094 C 72.382812 63.777344 72.351562 63.808594 72.320312 63.839844 C 72.15625 63.996094 71.984375 64.160156 71.988281 64.40625 C 71.953125 64.625 72.035156 64.847656 72.214844 65.019531 C 72.40625 65.199219 72.667969 65.277344 72.898438 65.230469 C 73.113281 65.171875 73.304688 65.015625 73.414062 64.804688 C 73.515625 64.609375 73.535156 64.394531 73.464844 64.203125 C 73.390625 63.929688 73.125 63.796875 72.894531 63.679688 C 72.902344 63.636719 72.910156 63.59375 72.917969 63.550781 C 72.949219 63.382812 72.980469 63.207031 73.089844 63.070312 C 73.257812 62.992188 73.480469 62.984375 73.671875 63.058594 C 73.777344 63.207031 73.816406 63.386719 73.855469 63.5625 C 73.871094 63.644531 73.890625 63.726562 73.914062 63.804688 C 73.96875 64.050781 74.035156 64.300781 74.09375 64.539062 C 74.226562 65.050781 74.363281 65.578125 74.425781 66.109375 C 74.460938 66.324219 74.335938 66.5 74.214844 66.664062 C 74.167969 66.734375 74.117188 66.804688 74.078125 66.875 C 73.667969 67.566406 73.234375 68.261719 72.8125 68.933594 C 72.320312 69.71875 71.8125 70.53125 71.339844 71.34375 C 71.328125 71.355469 71.320312 71.371094 71.3125 71.382812 C 71.246094 71.480469 71.164062 71.605469 71.035156 71.558594 C 70.863281 71.507812 70.714844 71.402344 70.574219 71.296875 C 70.5 71.242188 70.421875 71.183594 70.339844 71.132812 C 69.949219 70.894531 69.546875 70.660156 69.160156 70.429688 C 68.785156 70.210938 68.398438 69.984375 68.023438 69.753906 C 67.953125 69.707031 67.875 69.664062 67.800781 69.621094 C 67.601562 69.507812 67.398438 69.390625 67.257812 69.207031 C 67.257812 69.015625 67.367188 68.855469 67.46875 68.699219 C 67.492188 68.667969 67.515625 68.632812 67.539062 68.597656 C 67.925781 68.011719 68.28125 67.394531 68.628906 66.796875 C 68.851562 66.410156 69.082031 66.011719 69.320312 65.625 C 69.570312 65.222656 69.804688 64.800781 70.027344 64.394531 C 70.109375 64.246094 70.191406 64.09375 70.277344 63.945312 C 70.367188 63.753906 70.582031 63.699219 70.769531 63.652344 L 70.792969 63.648438 C 71.265625 63.535156 71.742188 63.40625 72.203125 63.28125 C 72.316406 63.25 72.429688 63.21875 72.542969 63.191406 C 72.53125 63.242188 72.523438 63.300781 72.515625 63.355469 Z M 74.210938 63.5 C 74.164062 63.292969 74.121094 63.082031 73.992188 62.910156 C 73.839844 62.722656 73.589844 62.699219 73.371094 62.679688 C 73.332031 62.675781 73.296875 62.671875 73.261719 62.667969 C 73.585938 62.175781 73.902344 61.835938 74.265625 61.605469 C 74.496094 61.457031 74.773438 61.304688 75.074219 61.34375 C 75.296875 61.371094 75.480469 61.554688 75.492188 61.765625 C 75.511719 62.078125 75.410156 62.414062 75.191406 62.769531 C 74.972656 63.101562 74.671875 63.421875 74.269531 63.75 C 74.246094 63.667969 74.226562 63.582031 74.210938 63.5 Z M 74.210938 63.5 " fill-opacity="1" fill-rule="nonzero"/></g><path fill="#fdfbfc" d="M 70.410156 67.242188 C 70.4375 67.242188 70.46875 67.242188 70.496094 67.238281 C 70.707031 67.207031 70.902344 67.066406 71.011719 66.863281 C 71.117188 66.667969 71.128906 66.449219 71.039062 66.269531 C 70.984375 66.117188 70.863281 65.996094 70.703125 65.933594 C 70.53125 65.867188 70.332031 65.871094 70.171875 65.953125 C 69.898438 66.085938 69.730469 66.429688 69.785156 66.75 C 69.839844 67.027344 70.117188 67.242188 70.410156 67.242188 Z M 70.160156 66.570312 C 70.183594 66.433594 70.289062 66.304688 70.414062 66.265625 C 70.4375 66.257812 70.460938 66.253906 70.484375 66.253906 C 70.53125 66.253906 70.578125 66.265625 70.617188 66.289062 C 70.648438 66.308594 70.6875 66.34375 70.695312 66.40625 C 70.730469 66.53125 70.671875 66.691406 70.558594 66.785156 C 70.464844 66.859375 70.355469 66.875 70.257812 66.824219 C 70.179688 66.765625 70.144531 66.675781 70.160156 66.570312 Z M 70.160156 66.570312 " fill-opacity="1" fill-rule="nonzero"/><path fill="#fdfbfc" d="M 70.164062 67.746094 L 70.03125 67.8125 C 69.953125 67.855469 69.867188 67.902344 69.785156 67.945312 C 69.566406 68.058594 69.339844 68.175781 69.144531 68.332031 C 69.070312 68.390625 69.101562 68.480469 69.132812 68.554688 C 69.140625 68.582031 69.152344 68.609375 69.15625 68.632812 L 69.15625 68.636719 L 69.160156 68.636719 C 69.53125 68.570312 69.867188 68.390625 70.191406 68.21875 C 70.371094 68.121094 70.558594 68.019531 70.75 67.941406 C 70.925781 67.847656 71.109375 67.761719 71.285156 67.679688 C 71.667969 67.496094 72.0625 67.308594 72.410156 67.054688 L 72.414062 67.054688 C 72.40625 67.027344 72.398438 66.992188 72.390625 66.957031 C 72.382812 66.921875 72.375 66.886719 72.371094 66.859375 L 72.367188 66.859375 C 72.152344 66.871094 71.949219 66.917969 71.757812 67 C 71.21875 67.226562 70.683594 67.492188 70.164062 67.746094 Z M 70.164062 67.746094 " fill-opacity="1" fill-rule="nonzero"/><path fill="#fdfbfc" d="M 71.378906 68.230469 C 71.238281 68.15625 71.078125 68.144531 70.933594 68.1875 C 70.59375 68.296875 70.355469 68.644531 70.394531 68.972656 C 70.40625 69.152344 70.511719 69.328125 70.671875 69.441406 C 70.785156 69.523438 70.914062 69.5625 71.039062 69.5625 C 71.085938 69.5625 71.132812 69.558594 71.179688 69.546875 C 71.375 69.484375 71.542969 69.335938 71.640625 69.136719 C 71.734375 68.949219 71.746094 68.742188 71.679688 68.566406 C 71.628906 68.425781 71.519531 68.304688 71.378906 68.230469 Z M 71.289062 69.007812 C 71.222656 69.128906 71.113281 69.199219 70.996094 69.199219 C 70.988281 69.199219 70.980469 69.199219 70.976562 69.199219 C 70.972656 69.199219 70.96875 69.199219 70.964844 69.199219 C 70.839844 69.199219 70.773438 69.0625 70.757812 68.96875 C 70.726562 68.796875 70.859375 68.652344 70.996094 68.597656 C 71.089844 68.554688 71.199219 68.558594 71.285156 68.605469 C 71.363281 68.714844 71.363281 68.875 71.289062 69.007812 Z M 71.289062 69.007812 " fill-opacity="1" fill-rule="nonzero"/><path fill="#000000" d="M 19.296875 49.226562 L 22.308594 49.226562 C 24.429688 49.226562 25.582031 50.640625 25.582031 52.511719 C 25.582031 55.433594 23.984375 57.371094 21.160156 57.371094 L 17.710938 57.371094 Z M 21.191406 55.851562 C 22.832031 55.851562 23.71875 54.582031 23.71875 52.601562 C 23.71875 51.484375 23.214844 50.738281 22.023438 50.738281 L 20.839844 50.738281 L 19.832031 55.851562 Z M 21.191406 55.851562 " fill-opacity="1" fill-rule="nonzero"/><path fill="#000000" d="M 27.3125 49.226562 L 29.148438 49.226562 L 27.5625 57.371094 L 25.722656 57.371094 Z M 27.3125 49.226562 " fill-opacity="1" fill-rule="nonzero"/><path fill="#000000" d="M 28.910156 54.800781 L 30.769531 54.800781 C 30.890625 55.652344 31.390625 56.113281 32.476562 56.113281 C 33.285156 56.113281 33.867188 55.742188 33.867188 55.109375 C 33.878906 54.527344 33.277344 54.308594 32.226562 53.945312 C 30.867188 53.488281 29.785156 53.003906 29.785156 51.601562 C 29.785156 50.113281 30.910156 49.085938 32.949219 49.085938 C 34.820312 49.085938 35.925781 49.984375 36.054688 51.515625 L 34.261719 51.515625 C 34.183594 50.894531 33.691406 50.464844 32.882812 50.464844 C 32.074219 50.464844 31.625 50.828125 31.625 51.339844 C 31.613281 51.875 32.203125 52.105469 33.386719 52.5 C 34.644531 52.917969 35.761719 53.476562 35.761719 54.898438 C 35.761719 56.453125 34.503906 57.570312 32.464844 57.570312 C 30.210938 57.570312 28.953125 56.519531 28.910156 54.800781 Z M 28.910156 54.800781 " fill-opacity="1" fill-rule="nonzero"/><path fill="#000000" d="M 36.570312 53.945312 C 36.570312 51.230469 38.367188 49.085938 40.949219 49.085938 C 41.964844 49.085938 42.734375 49.371094 43.269531 49.839844 C 43.90625 50.386719 44.167969 51.164062 44.1875 51.972656 L 42.371094 51.972656 C 42.292969 51.21875 41.855469 50.59375 40.839844 50.59375 C 39.285156 50.59375 38.453125 52.292969 38.453125 53.898438 C 38.453125 55.226562 39 56.058594 40.183594 56.058594 C 41.089844 56.058594 41.804688 55.457031 41.988281 54.523438 L 43.847656 54.523438 C 43.621094 55.554688 43.203125 56.253906 42.554688 56.78125 C 41.941406 57.285156 41.15625 57.558594 40.125 57.558594 C 37.980469 57.558594 36.566406 56.1875 36.566406 53.945312 Z M 36.570312 53.945312 " fill-opacity="1" fill-rule="nonzero"/><path fill="#000000" d="M 44.59375 53.921875 C 44.59375 51.25 46.402344 49.085938 49.019531 49.085938 C 51.230469 49.085938 52.621094 50.5625 52.621094 52.707031 C 52.621094 55.433594 50.867188 57.570312 48.230469 57.570312 C 46.007812 57.570312 44.59375 56.082031 44.59375 53.925781 Z M 50.75 52.71875 C 50.75 51.417969 50.113281 50.542969 48.921875 50.542969 C 47.355469 50.542969 46.46875 52.226562 46.46875 53.902344 C 46.46875 55.183594 47.082031 56.082031 48.273438 56.082031 C 49.882812 56.082031 50.75 54.449219 50.75 52.71875 Z M 50.75 52.71875 " fill-opacity="1" fill-rule="nonzero"/><path fill="#000000" d="M 53.3125 54.308594 L 54.308594 49.226562 L 56.125 49.226562 L 55.109375 54.472656 C 54.933594 55.4375 55.269531 56.046875 56.398438 56.046875 C 57.296875 56.046875 57.84375 55.542969 58.019531 54.625 L 59.070312 49.226562 L 60.902344 49.226562 L 59.828125 54.757812 C 59.46875 56.640625 58.339844 57.527344 56.335938 57.527344 C 54.179688 57.527344 52.898438 56.398438 53.3125 54.308594 Z M 53.3125 54.308594 " fill-opacity="1" fill-rule="nonzero"/><path fill="#000000" d="M 62.144531 49.226562 L 64.015625 49.226562 L 65.40625 52.882812 C 65.714844 53.726562 66.09375 55.117188 66.09375 55.117188 L 66.117188 55.117188 C 66.117188 55.117188 66.28125 53.574219 66.464844 52.628906 L 67.132812 49.226562 L 68.875 49.226562 L 67.285156 57.371094 L 65.414062 57.371094 L 64.035156 53.757812 C 63.707031 52.894531 63.324219 51.492188 63.324219 51.492188 L 63.300781 51.492188 C 63.300781 51.492188 63.148438 53.046875 62.964844 53.988281 L 62.304688 57.371094 L 60.554688 57.371094 L 62.140625 49.226562 Z M 62.144531 49.226562 " fill-opacity="1" fill-rule="nonzero"/><path fill="#000000" d="M 69.839844 49.226562 L 76.441406 49.226562 L 76.136719 50.78125 L 73.738281 50.78125 L 72.46875 57.371094 L 70.640625 57.371094 L 71.910156 50.78125 L 69.535156 50.78125 Z M 69.839844 49.226562 " fill-opacity="1" fill-rule="nonzero"/><g clip-path="url(#06321f7788)"><path fill="#fdfbfc" d="M 80.410156 49.199219 C 80.304688 49.066406 80.183594 48.949219 80.054688 48.84375 C 79.945312 48.710938 79.824219 48.59375 79.699219 48.488281 C 79.589844 48.355469 79.472656 48.242188 79.34375 48.132812 C 79.238281 48 79.117188 47.886719 78.988281 47.777344 C 78.882812 47.644531 78.761719 47.53125 78.632812 47.421875 C 78.09375 46.765625 77.289062 46.386719 76.441406 46.386719 L 69.839844 46.386719 C 69.671875 46.386719 69.507812 46.402344 69.347656 46.429688 C 69.191406 46.402344 69.035156 46.386719 68.878906 46.386719 L 67.136719 46.386719 C 66.566406 46.386719 66.027344 46.558594 65.578125 46.855469 C 65.125 46.554688 64.585938 46.386719 64.015625 46.386719 L 62.144531 46.386719 C 61.933594 46.386719 61.726562 46.414062 61.527344 46.457031 C 61.320312 46.410156 61.109375 46.386719 60.898438 46.386719 L 59.066406 46.386719 C 58.535156 46.386719 58.027344 46.535156 57.597656 46.796875 C 57.15625 46.53125 56.648438 46.386719 56.125 46.386719 L 54.308594 46.386719 C 53.582031 46.386719 52.910156 46.664062 52.402344 47.121094 C 51.4375 46.5625 50.289062 46.246094 49.019531 46.246094 C 47.496094 46.246094 46.09375 46.71875 44.9375 47.535156 C 44.152344 46.910156 42.863281 46.246094 40.949219 46.246094 C 39.433594 46.246094 38.054688 46.695312 36.914062 47.484375 C 35.894531 46.691406 34.539062 46.246094 32.949219 46.246094 C 32.019531 46.246094 31.164062 46.398438 30.40625 46.679688 C 30.019531 46.492188 29.59375 46.386719 29.148438 46.386719 L 27.3125 46.386719 C 26.574219 46.386719 25.894531 46.671875 25.382812 47.144531 C 24.496094 46.660156 23.453125 46.386719 22.308594 46.386719 L 19.296875 46.386719 C 17.9375 46.386719 16.769531 47.347656 16.507812 48.683594 L 14.921875 56.828125 C 14.761719 57.664062 14.980469 58.523438 15.519531 59.179688 C 15.625 59.308594 15.746094 59.425781 15.875 59.53125 C 15.980469 59.660156 16.101562 59.777344 16.230469 59.886719 C 16.335938 60.015625 16.457031 60.132812 16.585938 60.238281 C 16.691406 60.367188 16.8125 60.484375 16.9375 60.589844 C 17.046875 60.722656 17.167969 60.839844 17.292969 60.945312 C 17.832031 61.601562 18.636719 61.980469 19.488281 61.980469 L 22.933594 61.980469 C 23.996094 61.980469 24.976562 61.792969 25.847656 61.445312 C 26.324219 61.789062 26.902344 61.980469 27.5 61.980469 L 29.339844 61.980469 C 29.925781 61.980469 30.476562 61.796875 30.9375 61.488281 C 31.878906 61.945312 32.988281 62.175781 34.242188 62.175781 C 35.746094 62.175781 37.074219 61.761719 38.105469 61.042969 C 39.140625 61.757812 40.4375 62.167969 41.90625 62.167969 C 43.492188 62.167969 44.859375 61.730469 45.972656 60.875 C 47.054688 61.703125 48.441406 62.179688 50.007812 62.179688 C 51.574219 62.179688 52.957031 61.714844 54.105469 60.898438 C 55.144531 61.699219 56.523438 62.132812 58.109375 62.132812 C 59.160156 62.132812 60.109375 61.953125 60.933594 61.605469 C 61.355469 61.847656 61.835938 61.980469 62.332031 61.980469 L 64.085938 61.980469 C 64.65625 61.980469 65.191406 61.8125 65.640625 61.515625 C 66.09375 61.8125 66.628906 61.980469 67.195312 61.980469 L 69.066406 61.980469 C 69.6875 61.980469 70.269531 61.777344 70.742188 61.429688 C 71.222656 61.78125 71.808594 61.980469 72.417969 61.980469 L 74.246094 61.980469 C 75.609375 61.980469 76.777344 61.015625 77.035156 59.675781 L 77.859375 55.390625 L 77.910156 55.390625 C 79.269531 55.390625 80.4375 54.429688 80.699219 53.097656 L 81.007812 51.542969 C 81.171875 50.710938 80.953125 49.847656 80.414062 49.191406 Z M 80.410156 49.199219 " fill-opacity="1" fill-rule="nonzero"/></g><g clip-path="url(#28123f4110)"><path fill="#1c2842" d="M 79.667969 50.457031 C 79.585938 50.355469 79.488281 50.269531 79.382812 50.191406 C 79.359375 50.160156 79.335938 50.128906 79.316406 50.101562 C 79.230469 50 79.132812 49.914062 79.027344 49.839844 C 79.003906 49.804688 78.984375 49.773438 78.960938 49.746094 C 78.875 49.644531 78.777344 49.558594 78.671875 49.484375 C 78.652344 49.453125 78.628906 49.417969 78.605469 49.390625 C 78.519531 49.289062 78.421875 49.203125 78.316406 49.128906 C 78.296875 49.097656 78.273438 49.0625 78.25 49.035156 C 78.164062 48.933594 78.066406 48.847656 77.960938 48.773438 C 77.941406 48.742188 77.917969 48.710938 77.894531 48.679688 C 77.8125 48.578125 77.714844 48.492188 77.605469 48.417969 C 77.585938 48.386719 77.5625 48.355469 77.539062 48.324219 C 77.269531 47.996094 76.867188 47.808594 76.441406 47.808594 L 69.839844 47.808594 C 69.671875 47.808594 69.507812 47.835938 69.359375 47.890625 C 69.207031 47.835938 69.042969 47.808594 68.878906 47.808594 L 67.136719 47.808594 C 66.460938 47.808594 65.875 48.285156 65.742188 48.949219 C 65.679688 48.882812 65.605469 48.820312 65.527344 48.765625 C 65.429688 48.628906 65.3125 48.503906 65.171875 48.410156 C 64.910156 48.039062 64.484375 47.808594 64.015625 47.808594 L 62.144531 47.808594 C 61.921875 47.808594 61.710938 47.859375 61.519531 47.953125 C 61.328125 47.859375 61.117188 47.808594 60.898438 47.808594 L 59.070312 47.808594 C 58.4375 47.808594 57.886719 48.222656 57.707031 48.820312 C 57.6875 48.804688 57.664062 48.789062 57.644531 48.773438 C 57.621094 48.742188 57.601562 48.710938 57.574219 48.679688 C 57.492188 48.578125 57.394531 48.492188 57.289062 48.417969 C 57.265625 48.386719 57.246094 48.355469 57.21875 48.324219 C 56.949219 47.996094 56.550781 47.808594 56.125 47.808594 L 54.308594 47.808594 C 53.628906 47.808594 53.042969 48.289062 52.914062 48.953125 L 52.847656 49.289062 C 52.832031 49.277344 52.820312 49.261719 52.808594 49.25 C 51.914062 48.253906 50.59375 47.664062 49.019531 47.664062 C 47.367188 47.664062 45.917969 48.328125 44.875 49.429688 C 44.785156 49.332031 44.691406 49.238281 44.585938 49.152344 C 44.46875 49.019531 44.34375 48.890625 44.207031 48.773438 C 43.382812 48.050781 42.253906 47.667969 40.949219 47.667969 C 39.324219 47.667969 37.894531 48.320312 36.863281 49.414062 C 36.757812 49.296875 36.652344 49.1875 36.535156 49.085938 C 35.742188 48.179688 34.503906 47.664062 32.949219 47.664062 C 31.898438 47.664062 30.976562 47.898438 30.242188 48.320312 C 29.972656 47.996094 29.574219 47.808594 29.152344 47.808594 L 27.3125 47.808594 C 26.632812 47.808594 26.046875 48.289062 25.917969 48.957031 L 25.851562 49.292969 C 25.019531 48.359375 23.78125 47.808594 22.308594 47.808594 L 19.296875 47.808594 C 18.617188 47.808594 18.035156 48.289062 17.90625 48.957031 L 16.316406 57.101562 C 16.234375 57.519531 16.347656 57.949219 16.617188 58.277344 C 16.699219 58.378906 16.796875 58.464844 16.902344 58.539062 C 16.925781 58.570312 16.945312 58.601562 16.972656 58.632812 C 17.054688 58.734375 17.152344 58.820312 17.257812 58.890625 C 17.28125 58.925781 17.300781 58.957031 17.328125 58.988281 C 17.410156 59.085938 17.507812 59.175781 17.613281 59.246094 C 17.636719 59.28125 17.65625 59.3125 17.679688 59.339844 C 17.765625 59.441406 17.863281 59.53125 17.96875 59.601562 C 17.988281 59.632812 18.011719 59.667969 18.035156 59.695312 C 18.121094 59.796875 18.21875 59.886719 18.320312 59.957031 C 18.34375 59.988281 18.367188 60.023438 18.390625 60.050781 C 18.476562 60.152344 18.574219 60.238281 18.675781 60.3125 C 18.699219 60.34375 18.722656 60.375 18.746094 60.40625 C 19.015625 60.734375 19.417969 60.921875 19.84375 60.921875 L 23.289062 60.921875 C 24.503906 60.921875 25.570312 60.632812 26.449219 60.101562 C 26.523438 60.179688 26.601562 60.25 26.6875 60.3125 C 26.710938 60.34375 26.734375 60.375 26.757812 60.40625 C 27.027344 60.730469 27.429688 60.921875 27.855469 60.921875 L 29.691406 60.921875 C 30.289062 60.921875 30.8125 60.550781 31.019531 60.011719 C 31.8125 60.679688 32.972656 61.117188 34.597656 61.117188 C 36.226562 61.117188 37.625 60.511719 38.449219 59.511719 C 38.464844 59.523438 38.480469 59.535156 38.496094 59.550781 C 39.371094 60.535156 40.679688 61.109375 42.261719 61.109375 C 43.582031 61.109375 44.703125 60.738281 45.589844 60.011719 C 45.855469 59.792969 46.09375 59.550781 46.304688 59.285156 C 46.382812 59.367188 46.464844 59.449219 46.546875 59.523438 C 47.445312 60.527344 48.777344 61.117188 50.363281 61.117188 C 52.039062 61.117188 53.484375 60.464844 54.515625 59.359375 C 54.605469 59.457031 54.707031 59.558594 54.820312 59.660156 C 55.398438 60.324219 56.484375 61.078125 58.464844 61.078125 C 59.671875 61.078125 60.679688 60.804688 61.46875 60.273438 C 61.484375 60.285156 61.503906 60.296875 61.523438 60.3125 C 61.546875 60.34375 61.566406 60.375 61.59375 60.40625 C 61.863281 60.730469 62.265625 60.921875 62.6875 60.921875 L 64.441406 60.921875 C 65.113281 60.921875 65.695312 60.449219 65.832031 59.789062 C 65.894531 59.851562 65.960938 59.910156 66.035156 59.964844 C 66.132812 60.101562 66.253906 60.222656 66.390625 60.316406 C 66.65625 60.6875 67.082031 60.921875 67.550781 60.921875 L 69.421875 60.921875 C 70.101562 60.921875 70.683594 60.441406 70.8125 59.773438 L 70.851562 59.570312 C 70.867188 59.582031 70.878906 59.589844 70.894531 59.597656 C 70.917969 59.632812 70.9375 59.664062 70.964844 59.695312 C 71.046875 59.796875 71.144531 59.882812 71.25 59.953125 C 71.273438 59.984375 71.292969 60.019531 71.320312 60.050781 C 71.402344 60.152344 71.5 60.238281 71.605469 60.308594 C 71.628906 60.339844 71.648438 60.375 71.675781 60.40625 C 71.945312 60.730469 72.347656 60.921875 72.769531 60.921875 L 74.597656 60.921875 C 75.277344 60.921875 75.863281 60.4375 75.996094 59.769531 L 77.042969 54.332031 L 78.265625 54.332031 C 78.945312 54.332031 79.53125 53.851562 79.660156 53.1875 L 79.96875 51.632812 C 80.050781 51.214844 79.941406 50.78125 79.671875 50.453125 Z M 79.667969 50.457031 " fill-opacity="1" fill-rule="nonzero"/></g><path fill="#fdfbfc" d="M 19.296875 49.226562 L 22.308594 49.226562 C 24.429688 49.226562 25.582031 50.640625 25.582031 52.511719 C 25.582031 55.433594 23.984375 57.371094 21.160156 57.371094 L 17.710938 57.371094 Z M 21.191406 55.851562 C 22.832031 55.851562 23.71875 54.582031 23.71875 52.601562 C 23.71875 51.484375 23.214844 50.738281 22.023438 50.738281 L 20.839844 50.738281 L 19.832031 55.851562 Z M 21.191406 55.851562 " fill-opacity="1" fill-rule="nonzero"/><path fill="#fdfbfc" d="M 27.3125 49.226562 L 29.148438 49.226562 L 27.5625 57.371094 L 25.722656 57.371094 Z M 27.3125 49.226562 " fill-opacity="1" fill-rule="nonzero"/><path fill="#fdfbfc" d="M 28.910156 54.800781 L 30.769531 54.800781 C 30.890625 55.652344 31.390625 56.113281 32.476562 56.113281 C 33.285156 56.113281 33.867188 55.742188 33.867188 55.109375 C 33.878906 54.527344 33.277344 54.308594 32.226562 53.945312 C 30.867188 53.488281 29.785156 53.003906 29.785156 51.601562 C 29.785156 50.113281 30.910156 49.085938 32.949219 49.085938 C 34.820312 49.085938 35.925781 49.984375 36.054688 51.515625 L 34.261719 51.515625 C 34.183594 50.894531 33.691406 50.464844 32.882812 50.464844 C 32.074219 50.464844 31.625 50.828125 31.625 51.339844 C 31.613281 51.875 32.203125 52.105469 33.386719 52.5 C 34.644531 52.917969 35.761719 53.476562 35.761719 54.898438 C 35.761719 56.453125 34.503906 57.570312 32.464844 57.570312 C 30.210938 57.570312 28.953125 56.519531 28.910156 54.800781 Z M 28.910156 54.800781 " fill-opacity="1" fill-rule="nonzero"/><path fill="#fdfbfc" d="M 36.570312 53.945312 C 36.570312 51.230469 38.367188 49.085938 40.949219 49.085938 C 41.964844 49.085938 42.734375 49.371094 43.269531 49.839844 C 43.90625 50.386719 44.167969 51.164062 44.1875 51.972656 L 42.371094 51.972656 C 42.292969 51.21875 41.855469 50.59375 40.839844 50.59375 C 39.285156 50.59375 38.453125 52.292969 38.453125 53.898438 C 38.453125 55.226562 39 56.058594 40.183594 56.058594 C 41.089844 56.058594 41.804688 55.457031 41.988281 54.523438 L 43.847656 54.523438 C 43.621094 55.554688 43.203125 56.253906 42.554688 56.78125 C 41.941406 57.285156 41.15625 57.558594 40.125 57.558594 C 37.980469 57.558594 36.566406 56.1875 36.566406 53.945312 Z M 36.570312 53.945312 " fill-opacity="1" fill-rule="nonzero"/><path fill="#fdfbfc" d="M 44.59375 53.921875 C 44.59375 51.25 46.402344 49.085938 49.019531 49.085938 C 51.230469 49.085938 52.621094 50.5625 52.621094 52.707031 C 52.621094 55.433594 50.867188 57.570312 48.230469 57.570312 C 46.007812 57.570312 44.59375 56.082031 44.59375 53.925781 Z M 50.75 52.71875 C 50.75 51.417969 50.113281 50.542969 48.921875 50.542969 C 47.355469 50.542969 46.46875 52.226562 46.46875 53.902344 C 46.46875 55.183594 47.082031 56.082031 48.273438 56.082031 C 49.882812 56.082031 50.75 54.449219 50.75 52.71875 Z M 50.75 52.71875 " fill-opacity="1" fill-rule="nonzero"/><path fill="#fdfbfc" d="M 53.3125 54.308594 L 54.308594 49.226562 L 56.125 49.226562 L 55.109375 54.472656 C 54.933594 55.4375 55.269531 56.046875 56.398438 56.046875 C 57.296875 56.046875 57.84375 55.542969 58.019531 54.625 L 59.070312 49.226562 L 60.902344 49.226562 L 59.828125 54.757812 C 59.46875 56.640625 58.339844 57.527344 56.335938 57.527344 C 54.179688 57.527344 52.898438 56.398438 53.3125 54.308594 Z M 53.3125 54.308594 " fill-opacity="1" fill-rule="nonzero"/><path fill="#fdfbfc" d="M 62.144531 49.226562 L 64.015625 49.226562 L 65.40625 52.882812 C 65.714844 53.726562 66.09375 55.117188 66.09375 55.117188 L 66.117188 55.117188 C 66.117188 55.117188 66.28125 53.574219 66.464844 52.628906 L 67.132812 49.226562 L 68.875 49.226562 L 67.285156 57.371094 L 65.414062 57.371094 L 64.035156 53.757812 C 63.707031 52.894531 63.324219 51.492188 63.324219 51.492188 L 63.300781 51.492188 C 63.300781 51.492188 63.148438 53.046875 62.964844 53.988281 L 62.304688 57.371094 L 60.554688 57.371094 L 62.140625 49.226562 Z M 62.144531 49.226562 " fill-opacity="1" fill-rule="nonzero"/><path fill="#fdfbfc" d="M 69.839844 49.226562 L 76.441406 49.226562 L 76.136719 50.78125 L 73.738281 50.78125 L 72.46875 57.371094 L 70.640625 57.371094 L 71.910156 50.78125 L 69.535156 50.78125 Z M 69.839844 49.226562 " fill-opacity="1" fill-rule="nonzero"/></svg>