<svg viewBox="0 0 250 250" fill="none" xmlns="http://www.w3.org/2000/svg">
  <path d="M78.81 138.7a12.33 12.33 0 0 1 1.12-14.62l36.03-41.7a12.69 12.69 0 0 1 20.3 1.6l38.78 62.15c4.5 7.2.6 16.63-7.7 18.61l-53.97 12.94a12.7 12.7 0 0 1-13.73-5.6L78.8 138.7z" fill="#fff"></path>
  <path clip-rule="evenodd" d="M167.34 164.74a12.38 12.38 0 0 0 7.7-18.6l-38.77-62.17a12.69 12.69 0 0 0-20.31-1.6l-36.03 41.71a12.33 12.33 0 0 0-1.12 14.62l20.82 33.38a12.7 12.7 0 0 0 13.73 5.6l53.98-12.94zm-76.36-32.48 34.38-39.8 37.1 59.45-51.51 12.35-19.97-32zm-.55.64zm19.68 31.56zm53.98-12.94zm-73.54-19.95z" fill-rule="evenodd" fill="#0F0F0F"></path>
  <path clip-rule="evenodd" d="M46.42 145.56a27.16 27.16 0 0 0-8.99 37.4 27.28 27.28 0 0 0 37.5 8.83 2.93 2.93 0 0 1 3.05-.01l22.49 13.59a9.52 9.52 0 0 0 13.03-3.2 9.41 9.41 0 0 0-3.16-12.97L96 180.53a11.78 11.78 0 0 1-3.94-3.9l-20.23-32.81a11.86 11.86 0 0 0-16.3-3.84l-9.1 5.58z" fill-rule="evenodd" fill="#fff"></path>
  <path clip-rule="evenodd" d="m55.52 139.98-9.1 5.58a27.16 27.16 0 0 0-8.99 37.4 27.28 27.28 0 0 0 37.5 8.83 2.93 2.93 0 0 1 3.05-.01l22.49 13.59a9.52 9.52 0 0 0 13.04-3.2 9.41 9.41 0 0 0-3.17-12.97L96 180.53a11.78 11.78 0 0 1-3.94-3.9l-20.23-32.81a11.86 11.86 0 0 0-16.3-3.84zm21.11 37.71-15.49-25.12-7.54 4.63a13.5 13.5 0 0 0-4.5 18.6 13.57 13.57 0 0 0 18.65 4.36m8.88-2.47c-3.08-.03-6.16.8-8.87 2.47l8.87-2.47z" fill-rule="evenodd" fill="#0F0F0F"></path>
  <path d="M66.75 132.22a12.42 12.42 0 0 1 1.11-14.62l35.7-41.71a12.5 12.5 0 0 1 20.12 1.6l38.41 62.16a12.4 12.4 0 0 1-7.62 18.61l-53.48 12.94a12.54 12.54 0 0 1-13.6-5.6l-20.64-33.38z" fill="#fff"></path>
  <path clip-rule="evenodd" d="M154.47 158.26a12.4 12.4 0 0 0 7.63-18.6l-38.42-62.17a12.5 12.5 0 0 0-20.12-1.6l-35.7 41.71c-3.5 4.1-3.95 10-1.1 14.62l20.63 33.38a12.54 12.54 0 0 0 13.6 5.6l53.48-12.94zm-75.65-32.48 34.06-39.8 36.75 59.45-51.04 12.35-19.77-32zm-.56.64zm19.5 31.56zm53.48-12.94zM78.4 125.1z" fill-rule="evenodd" fill="#0F0F0F"></path>
  <path clip-rule="evenodd" d="M39.02 141.86a27.16 27.16 0 0 0-9 37.4 27.28 27.28 0 0 0 37.5 8.83 2.93 2.93 0 0 1 3.05-.01l22.5 13.58a9.52 9.52 0 0 0 13.03-3.19 9.41 9.41 0 0 0-3.16-12.98l-14.36-8.67a11.79 11.79 0 0 1-3.93-3.9l-20.23-32.8a11.86 11.86 0 0 0-16.3-3.85l-9.1 5.59z" fill-rule="evenodd" fill="#fff"></path>
  <path clip-rule="evenodd" d="m48.11 136.27-9.1 5.59a27.16 27.16 0 0 0-8.98 37.4 27.28 27.28 0 0 0 37.5 8.83 2.93 2.93 0 0 1 3.04-.01l22.5 13.58a9.52 9.52 0 0 0 13.03-3.19 9.41 9.41 0 0 0-3.17-12.98l-14.35-8.67a11.79 11.79 0 0 1-3.93-3.9l-20.23-32.8a11.86 11.86 0 0 0-16.3-3.85zM69.22 174l-15.49-25.12-7.54 4.63a13.5 13.5 0 0 0-4.5 18.59 13.57 13.57 0 0 0 18.65 4.36m8.88-2.46c-3.07-.03-6.16.8-8.87 2.46l8.87-2.46z" fill-rule="evenodd" fill="#0F0F0F"></path>
  <path d="m203.99 74.64-37.67 19a7.03 7.03 0 0 0 6.33 12.55l37.67-19a7.03 7.03 0 1 0-6.33-12.55z" fill="#FFC32A"></path>
  <path clip-rule="evenodd" d="M167.55 96.08a4.3 4.3 0 0 0 3.87 7.67l37.67-19a4.3 4.3 0 1 0-3.87-7.67l-37.67 19zm-6.79 8.23a9.77 9.77 0 0 1 4.33-13.12l37.67-18.99a9.77 9.77 0 1 1 8.79 17.44l-37.67 19a9.77 9.77 0 0 1-13.12-4.33z" fill-rule="evenodd" fill="#FFC32A"></path>
  <path d="m169.68 34.85-20.77 36.72a7.03 7.03 0 0 0 12.24 6.92l20.77-36.72a7.03 7.03 0 0 0-12.24-6.92z" fill="#FFC32A"></path>
  <path clip-rule="evenodd" d="M151.29 72.91a4.3 4.3 0 1 0 7.48 4.24l20.77-36.73a4.3 4.3 0 1 0-7.48-4.23L151.3 72.91zm-1.07 10.62a9.77 9.77 0 0 1-3.7-13.31L167.3 33.5a9.77 9.77 0 0 1 17 9.62l-20.77 36.72a9.77 9.77 0 0 1-13.31 3.69z" fill-rule="evenodd" fill="#FFC32A"></path>
  <path d="M223.58 135.44H181.2a7 7 0 0 1-7.06-6.95 7 7 0 0 1 7.06-6.94h42.37a7 7 0 0 1 7.06 6.94 7 7 0 0 1-7.06 6.95z" fill="#FFC32A"></path>
  <path clip-rule="evenodd" d="M181.2 132.77a4.3 4.3 0 0 1-4.33-4.28 4.3 4.3 0 0 1 4.32-4.28h42.4a4.3 4.3 0 0 1 4.33 4.28 4.3 4.3 0 0 1-4.32 4.28h-42.4zm-9.82-4.28c0 5.37 4.4 9.72 9.81 9.72h42.4a9.77 9.77 0 0 0 9.82-9.72c0-5.37-4.39-9.72-9.81-9.72h-42.4a9.77 9.77 0 0 0-9.82 9.72z" fill-rule="evenodd" fill="#FFC32A"></path>
</svg>
