<svg viewBox="0 0 250 250" fill="none" xmlns="http://www.w3.org/2000/svg">
  <g clip-path="url(#a)">
    <path d="M80.1 84.84a15 15 0 0 1 11.07 4.55l75.81 78.13a15 15 0 0 1-.6 21.49l-46.79 43a15 15 0 0 1-20.93-.62l-77.18-79.73a15 15 0 0 1-4.14-8.87l-4.21-40.37a15 15 0 0 1 14.62-16.55l52.36-1.03z" fill="#0F0F0F"></path>
    <path d="M161.47 148.73 91.76 76.89a21 21 0 0 0-14.44-6.37l-40.4-1.2A21 21 0 0 0 15.34 91.7l2.48 37.2a21 21 0 0 0 5.89 13.23l70.11 72.25a21 21 0 0 0 29.7.44l37.5-36.4a21 21 0 0 0 .45-29.7z" stroke-width="12" stroke="#0F0F0F" fill="#fff"></path>
    <rect transform="rotate(-132 114.66 194.53)" rx="7.52" fill="#0F0F0F" y="194.53" x="114.66" height="15.04" width="88.46"></rect>
    <rect transform="rotate(-132 131.77 176.07)" rx="7.52" fill="#0F0F0F" y="176.07" x="131.77" height="15.04" width="39.74"></rect>
    <circle transform="rotate(13 40.14 95.15)" fill="#0F0F0F" r="9.73" cy="95.15" cx="40.14"></circle>
    <path d="M116.14 7.94a9 9 0 0 1 13.07-5.2l12.93 7.4a9 9 0 0 0 9.37-.28L164 1.74a9 9 0 0 1 13.35 4.43l5.16 13.96a9 9 0 0 0 7.36 5.82l14.78 1.8a9 9 0 0 1 7.38 11.97l-5.03 14.02a9 9 0 0 0 1.9 9.18l10.16 10.88a9 9 0 0 1-2.04 13.92l-12.86 7.5a9 9 0 0 0-4.45 8.26l.8 14.87a9 9 0 0 1-10.51 9.35l-14.68-2.52a9 9 0 0 0-8.71 3.46l-8.95 11.9a9 9 0 0 1-14.06.4l-9.63-11.35a9 9 0 0 0-8.9-2.95l-14.5 3.36a9 9 0 0 1-11.04-8.73l-.07-14.89a9 9 0 0 0-4.92-7.98l-13.27-6.74a9 9 0 0 1-2.84-13.78l9.51-11.45a9 9 0 0 0 1.36-9.28l-5.83-13.7a9 9 0 0 1 6.68-12.38l14.65-2.65a9 9 0 0 0 7-6.24l4.35-14.24z" fill="#FF7936"></path>
    <path d="M116.41 72.23c-1.54-3.87-1.6-7.25-.21-10.15 1.38-2.94 3.85-5.12 7.41-6.54 3.52-1.4 6.77-1.48 9.74-.27 3 1.15 5.28 3.66 6.81 7.53 1.54 3.87 1.61 7.25.22 10.15-1.36 2.88-3.79 5.02-7.31 6.42-3.56 1.41-6.85 1.54-9.85.4-3-1.16-5.27-3.67-6.81-7.54zm44.41-30.7-5.98 56.7-13.98 5.55 5.98-56.7 13.98-5.55zM126.86 64.1c-1.5.6-1.8 2.03-.88 4.32.89 2.25 2.08 3.07 3.58 2.48.79-.32 1.27-.84 1.44-1.57.21-.75.1-1.67-.34-2.77-.45-1.14-1.01-1.91-1.68-2.3-.62-.42-1.33-.48-2.12-.16zm34.66 18.4c-1.54-3.87-1.61-7.26-.22-10.15 1.38-2.95 3.83-5.11 7.35-6.51 3.56-1.42 6.83-1.52 9.8-.3 2.97 1.16 5.22 3.68 6.75 7.55 1.54 3.87 1.64 7.27.3 10.2-1.34 2.87-3.8 5.02-7.36 6.44-3.52 1.4-6.78 1.52-9.79.37-3.02-1.2-5.3-3.73-6.83-7.6zm10.44-8.12c-1.54.6-1.85 2.06-.94 4.34.9 2.3 2.13 3.13 3.67 2.52a2.1 2.1 0 0 0 1.37-1.54c.22-.75.1-1.7-.36-2.84a4.37 4.37 0 0 0-1.65-2.24 2.07 2.07 0 0 0-2.09-.24z" fill="#0F0F0F"></path>
  </g>
  <defs>
    <clipPath id="a">
      <path d="M0 0h250v250H0z" fill="#fff"></path>
    </clipPath>
  </defs>
</svg>
