<svg viewBox="0 0 350 126" fill="none" xmlns="http://www.w3.org/2000/svg">
  <g clip-path="url(#a)">
    <mask style="mask-type:alpha" maskUnits="userSpaceOnUse" y="0" x="-3" height="124" width="387" id="b">
      <path d="M-2.3.5 12.5 57l58 67 236-22.5V70L383 11-2.3.5z" fill="#C882FF"></path>
    </mask>
    <g mask="url(#b)">
      <path d="M297.5 10.5 16.5 24 4 39.5 28.4 119l258.6 5.6 63-63.1-52.5-51z" fill="#FFC32A"></path>
      <path d="m28 82.5 258.8 42.1 14.8-25.8-31-28.2L297.6 10 170 16 59.5 21.5 15 24l13 58.5z" fill="#F8A60F"></path>
    </g>
    <path d="M68.4 45.7c-.6 1-.5 1.7 3.8 4.3 1 .7 4.6 2.9 5 2.2.3-.4-1.6-2-3.6-3.7-1.9-1.7-4.5-3.8-5.2-2.8zm7.2-17.9c-1.3 1-1.3 1.9 3.6 8.3 1.2 1.6 5.4 7 6.3 6.3.4-.4-1.6-4-3.7-7.4-2-3.6-4.8-8.2-6.2-7.2zm24.5-1.7c-1.8-.1-2.4.3-2.7 6 0 1.3-.3 6 .9 6.1.6 0 1.3-2.8 2-5.5.7-2.8 1.5-6.5-.2-6.6z" fill="#0F0F0F"></path>
    <path d="m105.2 72-.2.8-.8.3a95.5 95.5 0 0 0-11.5 6v.2l1 9.8v.1l.7.4a97 97 0 0 0 11.7 3.7l.8.2.4.7 2 3.7.5.8-.3.9a90.6 90.6 0 0 0-3.7 11.4 4.6 4.6 0 0 0-.1.7l8 6.4c.2 0 .4 0 1-.3a39.9 39.9 0 0 0 2.4-1l8.3-4.4.8-.4.8.2 4.1 1.3.9.3.4.8a91.4 91.4 0 0 0 6 11.1h.1l10.2-1 .4-.6c.8-1.6 1.9-4.8 3.9-11.5l.2-.8.8-.4 3.8-2 .8-.5.8.3a146.6 146.6 0 0 0 12.3 3.8l.2-.1 6.4-7.8v-.1a5 5 0 0 0-.1-.8c-.6-1.6-2.2-4.5-5.6-10.7l-.4-.7.2-.9 1.4-4 .2-.8.8-.4a92.6 92.6 0 0 0 11.4-6l-1-10a5 5 0 0 0-.6-.4c-1.6-.7-4.8-1.8-11.7-3.7l-.8-.2-.4-.7-2-3.8-.5-.8.3-.8a88 88 0 0 0 3.7-11.4 4.8 4.8 0 0 0 0-.7l-7.9-6.4h-.1l-1 .3-2.3 1-8.4 4.5-.7.4-.8-.3-4.2-1.3-.8-.3-.4-.7c-3-6.3-4.6-9.2-5.6-10.6a4.8 4.8 0 0 0-.5-.6l-10.2 1a5 5 0 0 0-.5.7c-.7 1.5-1.8 4.7-3.9 11.4l-.2.8-.7.3-3.9 2.1-.7.4-.9-.2a149 149 0 0 0-12-3.7 1.6 1.6 0 0 0-.2 0h-.2v.1l-6.4 7.6v.1l.1.8c.6 1.6 2.2 4.6 5.6 10.7l.4.7-.2.9-1.4 4zm36 26.5a18.8 18.8 0 0 1-20.6-16.7 18.6 18.6 0 0 1 9.7-18.2 18.6 18.6 0 1 1 11 34.9z" stroke-width="4" stroke="#000" fill="#000"></path>
    <path d="m98 64.8-.4.9-.7.3a95.5 95.5 0 0 0-11.5 6v.2l1 9.8v.1l.6.4a97 97 0 0 0 11.7 3.7l.8.2.4.7 2 3.7.5.8-.3.9a90.5 90.5 0 0 0-3.7 11.4 4.8 4.8 0 0 0 0 .7l7.9 6.4h.1c.1 0 .4 0 1-.3a40.7 40.7 0 0 0 2.3-1l8.4-4.4.7-.4.8.3 4.2 1.3.8.2.4.8a91.2 91.2 0 0 0 6 11.1h.2l10.1-1h.1l.4-.6c.8-1.6 1.8-4.8 3.9-11.5l.2-.8.7-.4 3.9-2 .8-.5.8.3a146.6 146.6 0 0 0 12.3 3.8l.1-.1L171 98a4.2 4.2 0 0 0 0-.1 4.8 4.8 0 0 0-.2-.8c-.6-1.5-2-4.5-5.5-10.7l-.5-.7.3-.9 1.3-4 .3-.8.8-.4a92.6 92.6 0 0 0 11.4-6l-1-10a5 5 0 0 0-.7-.4c-1.5-.7-4.8-1.8-11.6-3.7l-.8-.2-.4-.7-2.1-3.8-.4-.7.3-.9a88.2 88.2 0 0 0 3.7-12V41l-8-6.3c-.1 0-.4 0-1 .3a38.8 38.8 0 0 0-2.4 1.1c-2 1-4.8 2.4-8.3 4.4l-.8.4-.8-.3-4.1-1.3-.9-.3-.3-.7c-3-6.3-4.7-9.2-5.6-10.6a4.9 4.9 0 0 0-.5-.6 6.9 6.9 0 0 0-.1 0l-10.1 1a8.2 8.2 0 0 0-.1 0l-.4.7c-.8 1.5-1.9 4.7-3.9 11.4l-.2.8-.8.4-3.8 2-.8.4-.8-.2a148.8 148.8 0 0 0-12.1-3.7 1.6 1.6 0 0 0-.2 0h-.1v.1l-6.4 7.6a8.8 8.8 0 0 0-.1.1l.2.8c.6 1.6 2.1 4.6 5.6 10.7l.4.8-.3.8-1.3 4zm36 26.6a18.8 18.8 0 0 1-20.7-16.7A18.6 18.6 0 1 1 143.8 87a18.6 18.6 0 0 1-9.9 4.3z" stroke-width="4" stroke="#000" fill="#fff"></path>
    <path d="m194.2 43.8-.3.8-.8.4a68.4 68.4 0 0 0-7.9 4l.7 6.7h.2c1 .6 3.3 1.3 8.3 2.7l.8.2.4.7L197 62l.4.8-.3.9c-1.7 4.7-2.4 7-2.6 8a4 4 0 0 0 0 .2l5.2 4.3a7.1 7.1 0 0 0 .4-.2l1.7-.7 6-3.1.7-.4.8.2 3 1 .8.2.4.8a65.4 65.4 0 0 0 4.1 7.7l6.9-.7a6.7 6.7 0 0 0 0-.2 70 70 0 0 0 2.8-8.1l.2-.8.8-.4L231 70l.8-.4.8.3a103.9 103.9 0 0 0 8.5 2.6l4.4-5.3a7.9 7.9 0 0 0-.1-.2c-.4-1-1.5-3.2-4-7.6l-.4-.8.3-.8 1-3 .2-.7.8-.4c4.6-2.1 6.7-3.2 7.7-3.9h.1l-.6-6.8a4.8 4.8 0 0 0-.2 0c-1-.6-3.4-1.3-8.3-2.7l-.8-.2-.4-.7-1.5-2.7-.4-.8.3-.8c1.7-4.8 2.4-7 2.6-8.1v-.2l-5.2-4.2a7.4 7.4 0 0 0-.4.1l-1.7.8a143 143 0 0 0-6 3l-.8.5-.8-.3-3-.9-.8-.3-.4-.7a64 64 0 0 0-4-7.5 3.5 3.5 0 0 0 0-.2l-6.9.7a4.6 4.6 0 0 0-.1.2c-.5 1-1.3 3.2-2.7 8l-.3.8-.7.4-2.8 1.5-.7.4-.9-.3a106.8 106.8 0 0 0-8.5-2.5l-4.3 5.2.1.2c.4 1 1.5 3.2 4 7.6l.4.7-.3.9-1 2.9zm25.4 19.4A14 14 0 0 1 204 50.7a14 14 0 0 1 7.3-13.6 14 14 0 0 1 19.9 8.1A14 14 0 0 1 227 60a14 14 0 0 1-7.4 3.2z" stroke-width="4" stroke="#000" fill="#000"></path>
    <path d="m189 38.7-.4.8-.7.4a68.5 68.5 0 0 0-8 4l.7 6.7h.2c1 .6 3.4 1.3 8.3 2.7l.8.2.4.7 1.5 2.7.4.8-.3.9a65 65 0 0 0-2.6 8 4 4 0 0 0 0 .2l5.2 4.3.4-.2 1.7-.7 6-3.1.7-.4.8.2 3 1 .9.2.4.8a65.5 65.5 0 0 0 4 7.7l6.9-.7.1-.2c.5-1 1.3-3.3 2.7-8.1l.3-.8.7-.4 2.8-1.5.7-.4.9.3a104 104 0 0 0 8.4 2.6l4.4-5.3a4 4 0 0 0 0-.2l-4-7.6-.5-.8.3-.8 1-2.9.2-.8.8-.4c4.6-2.1 6.8-3.2 7.7-3.9h.2l-.7-6.8a5.5 5.5 0 0 0-.2 0c-1-.6-3.3-1.3-8.3-2.7l-.8-.2-.4-.7-1.5-2.7-.4-.8.3-.8c1.7-4.8 2.4-7 2.6-8.1v-.2l-5.2-4.2a7 7 0 0 0-.4.1l-1.7.8a143 143 0 0 0-6 3l-.7.5-.8-.3-3-.9-.9-.3-.3-.7a64.2 64.2 0 0 0-4-7.5 6.2 6.2 0 0 0-.1-.2l-6.9.7a6 6 0 0 0 0 .2c-.6 1-1.3 3.2-2.8 8l-.2.8-.8.4-2.7 1.5-.8.4-.8-.2c-4.1-1.4-6.4-2.1-7.6-2.4a11.3 11.3 0 0 0-1-.2l-4.2 5.2v.2c.4 1 1.5 3.2 4 7.6l.4.7-.2.9-1 2.9zM214.2 58A14 14 0 0 1 199 45.7 14 14 0 0 1 206 32a14 14 0 0 1 15.6 23 14 14 0 0 1-7.4 3.1z" stroke-width="4" stroke="#000" fill="#fff"></path>
    <path d="M232.5 87.5c11.8-2.3 34.3-13.3 29.5-38.5M74.2 77.9c1 11.7 8.4 37 30.2 45.3M66.1 75.5c-.2 7.5 7 33.3 17.4 40.5" stroke-width="2" stroke-linecap="round" stroke="#000"></path>
  </g>
  <defs>
    <clipPath id="a">
      <path d="M0 0h350v126H0z" fill="#fff"></path>
    </clipPath>
  </defs>
</svg>
