<svg viewBox="0 0 250 250" fill="none" xmlns="http://www.w3.org/2000/svg">
  <path clip-rule="evenodd" d="M169.19 61.92c.56-3.85-.19-8.28-3.48-10.45l-8.64-5.7a7.26 7.26 0 0 0-3.46-1.18l-37.02-2.71a6.96 6.96 0 0 0-7.5 6.4l-1.05 14.16a7.22 7.22 0 0 0 6.8 7.69l10.58.6c5.5.3 8.68 6.44 5.69 10.98l-20 30.33a7.1 7.1 0 0 0 2.1 9.8l48.19 31.77a7.1 7.1 0 0 0 9.84-1.93l15.17-23.01 4.62-7.01c3-4.55 9.9-4.04 12.35.9l4.37 8.84a7.22 7.22 0 0 0 9.69 3.27l12.82-6.49a6.96 6.96 0 0 0 3.02-9.43l-16.8-32.7a7.25 7.25 0 0 0-2.46-2.73l-8.62-5.69c-3.3-2.17-7.67-1.11-10.99.92a16.64 16.64 0 0 1-17.84-.37 16.64 16.64 0 0 1-7.38-16.26z" fill-rule="evenodd" fill="#4BF1FB"></path>
  <path clip-rule="evenodd" d="M79.4 116.78c-2.59-3.16-6.56-5.72-10.58-4.7l-10.54 2.68a7.63 7.63 0 0 0-3.36 1.85L26.6 143.43a7.31 7.31 0 0 0-.33 10.36l10.24 10.84a7.59 7.59 0 0 0 10.8.15l7.94-7.79c4.14-4.05 11.15-2.17 12.56 3.37l9.38 37a7.45 7.45 0 0 0 9.1 5.3l58.78-14.91a7.45 7.45 0 0 0 5.47-9.01l-7.13-28.07-2.17-8.55c-1.4-5.55 3.87-10.55 9.45-8.95l9.95 2.87a7.59 7.59 0 0 0 9.4-5.2l4.04-14.56a7.31 7.31 0 0 0-5.19-9.02l-37.27-10.1a7.62 7.62 0 0 0-3.86-.04l-10.52 2.67c-4.03 1.03-6.3 5.16-7.07 9.18a17.49 17.49 0 0 1-12.92 13.6 17.48 17.48 0 0 1-17.85-5.79z" fill-rule="evenodd" fill="#0F0F0F"></path>
  <path clip-rule="evenodd" d="M70.54 108.2c-2.47-3.01-6.24-5.44-10.07-4.47l-10.03 2.54a7.25 7.25 0 0 0-3.2 1.77l-26.95 25.52a6.96 6.96 0 0 0-.32 9.86l9.75 10.31a7.22 7.22 0 0 0 10.27.15l7.56-7.4c3.94-3.87 10.61-2.08 11.95 3.2l8.94 35.2a7.1 7.1 0 0 0 8.66 5.06l55.94-14.2a7.09 7.09 0 0 0 5.2-8.57l-6.78-26.72-2.06-8.13c-1.34-5.29 3.68-10.04 8.99-8.52l9.47 2.73a7.22 7.22 0 0 0 8.95-4.96l3.84-13.85a6.96 6.96 0 0 0-4.94-8.58l-35.47-9.62a7.25 7.25 0 0 0-3.68-.03l-10.01 2.54c-3.83.98-6 4.92-6.72 8.74a16.64 16.64 0 0 1-12.3 12.93 16.64 16.64 0 0 1-16.99-5.5z" stroke-width="13" stroke="#0F0F0F" fill-rule="evenodd" fill="#fff"></path>
</svg>
