<svg viewBox="0 0 250 250" fill="none" xmlns="http://www.w3.org/2000/svg">
  <path d="M221 113a55 55 0 1 1-110 0 55 55 0 0 1 110 0z" fill="#0F0F0F"></path>
  <path d="M214 110c0 30.38-24.85 55-55.5 55S103 140.38 103 110s24.85-55 55.5-55S214 79.62 214 110z" fill="#9F53FF"></path>
  <path clip-rule="evenodd" d="M158.5 152.58c23.73 0 42.97-19.07 42.97-42.58 0-23.52-19.24-42.58-42.97-42.58S115.53 86.48 115.53 110s19.24 42.58 42.97 42.58zm0 12.42c30.65 0 55.5-24.62 55.5-55s-24.85-55-55.5-55S103 79.62 103 110s24.85 55 55.5 55z" fill-rule="evenodd" fill="#0F0F0F"></path>
  <path d="m149.03 111.32.11-28.04c.01-2.59 2.44-4.67 5.41-4.66 2.98.02 5.39 2.12 5.38 4.7l-.12 28.05c0 2.58-2.43 4.66-5.41 4.65-2.98-.02-5.38-2.12-5.37-4.7z" fill="#0F0F0F"></path>
  <path d="m156.77 106.95 21.33 9.94c1.96.92 2.4 4.1 1 7.13s-4.14 4.73-6.1 3.81l-21.33-9.94c-1.96-.9-2.41-4.1-1-7.12s4.14-4.73 6.1-3.82zM151 41h12v17h-12V41z" fill="#0F0F0F"></path>
  <path d="M136 43.5c0-3.59 2.7-6.5 6.02-6.5h30.96c3.33 0 6.02 2.91 6.02 6.5s-2.7 6.5-6.02 6.5h-30.96c-3.33 0-6.02-2.91-6.02-6.5z" fill="#0F0F0F"></path>
  <path d="m132.69 170.29 14.21-37.6a7.5 7.5 0 0 0-6.8-10.16l-95.36-2.8-2.53-13.23a7.56 7.56 0 0 0-7.21-6.13l-14.58-.43a4.77 4.77 0 0 0-.28 9.53l12.69.37a.7.7 0 0 1 .66.56L45 165.84a20 20 0 0 0 19 15.92l49.37 1.45a20 20 0 0 0 19.3-12.92z" fill="#fff"></path>
  <path clip-rule="evenodd" d="m34.52 115.37 10.5 50.47a20 20 0 0 0 19 15.92l49.36 1.45a20 20 0 0 0 19.3-12.92l14.22-37.6a7.5 7.5 0 0 0-6.8-10.16l-95.36-2.8-2.53-13.23a7.56 7.56 0 0 0-7.21-6.13l-14.58-.43a4.77 4.77 0 0 0-.28 9.53l12.69.37a.7.7 0 0 1 .66.56l1.03 4.97zM53.93 135l5.78 27.77a5 5 0 0 0 4.75 3.98l49.36 1.45a5 5 0 0 0 4.83-3.23l10.5-27.76-75.22-2.2z" fill-rule="evenodd" fill="#0F0F0F"></path>
  <path d="M79.43 201.29a10.6 10.6 0 1 1-21.17-.62 10.6 10.6 0 0 1 21.17.62zm38.12 1.12a10.6 10.6 0 1 1-21.18-.62 10.6 10.6 0 0 1 21.18.62z" fill="#0F0F0F"></path>
</svg>
