<svg xmlns="http://www.w3.org/2000/svg" fill="none" viewBox="0 0 250 250" height="250" width="250">
<g clip-path="url(#clip0_908_5254)">
<circle fill="#5E8CFF" transform="rotate(-40.6984 165.108 79.1083)" r="61.0597" cy="79.1083" cx="165.108"></circle>
<path fill="#0F0F0F" d="M105.095 137.057C103.417 132.803 100.066 128.725 95.4339 128.436L83.3064 127.68C81.8522 127.589 80.3996 127.872 79.0918 128.499L39.7841 147.359C35.6654 149.335 33.9289 154.196 35.8834 158.278L43.0811 173.312C45.1049 177.538 50.2854 179.285 54.5132 177.167L65.632 171.596C71.425 168.693 78.2463 173.091 77.8483 179.473L75.1921 222.06C74.9083 226.609 78.4331 230.532 83.0643 230.82L150.721 235.04C155.352 235.329 159.337 231.875 159.621 227.326L161.636 195.009L162.25 185.169C162.649 178.781 169.977 175.265 175.364 178.879L184.977 185.328C188.88 187.947 194.205 186.897 196.765 183.005L206.041 168.898C208.54 165.097 207.451 160.022 203.601 157.523L167.387 134.022C166.161 133.226 164.745 132.76 163.281 132.668L151.172 131.913C146.541 131.624 142.708 135.254 140.515 139.266C137.023 145.655 129.967 149.803 122.109 149.312C114.252 148.822 107.765 143.83 105.095 137.057Z" clip-rule="evenodd" fill-rule="evenodd"></path>
<path stroke-width="13" stroke="#0F0F0F" fill="white" d="M96.8018 123.153C95.205 119.104 92.0154 115.223 87.6073 114.948L76.0651 114.228C74.6811 114.142 73.2987 114.411 72.0539 115.008L34.6434 132.958C30.7235 134.838 29.0708 139.465 30.931 143.349L37.7813 157.658C39.7074 161.68 44.6378 163.343 48.6616 161.327L59.2438 156.024C64.7572 153.262 71.2493 157.448 70.8704 163.522L68.3424 204.053C68.0723 208.383 71.4271 212.116 75.8347 212.391L140.226 216.407C144.634 216.682 148.426 213.395 148.696 209.065L150.614 178.308L151.199 168.943C151.578 162.862 158.553 159.517 163.679 162.956L172.829 169.094C176.543 171.586 181.611 170.588 184.047 166.883L192.876 153.457C195.254 149.84 194.218 145.009 190.554 142.631L156.087 120.264C154.921 119.507 153.573 119.063 152.18 118.976L140.655 118.257C136.248 117.982 132.6 121.436 130.513 125.255C127.19 131.336 120.474 135.283 112.995 134.817C105.517 134.35 99.3434 129.599 96.8018 123.153Z" clip-rule="evenodd" fill-rule="evenodd"></path>
<path fill="#0F0F0F" d="M167.994 61.2416L179.744 86.6569L188.821 82.4605L194.696 95.1682L164.742 109.016L158.867 96.3087L167.944 92.1123L162.069 79.4046L155.715 82.3421L149.84 69.6345L167.994 61.2416ZM151.466 45.7471C155.727 43.7771 160.778 45.6344 162.748 49.8955C164.718 54.1566 162.861 59.2078 158.6 61.1778C154.339 63.1478 149.288 61.2905 147.318 57.0294C145.348 52.7683 147.205 47.7171 151.466 45.7471Z"></path>
</g>
<defs>
<clipPath id="clip0_908_5254">
<rect fill="white" height="250" width="250"></rect>
</clipPath>
</defs>
</svg>
