<svg viewBox="0 0 350 126" fill="none" xmlns="http://www.w3.org/2000/svg">
  <g clip-path="url(#a)">
    <path d="m0 29 7.5 44 55 53.1 236-24.1L317.8 0 0 29Z" fill="#FF4D4D"></path>
    <path d="m183.8 1.7 134-1.6-74.7 25.3L303 84 54 118 26 91l37.7-46.1L4 53 0 29 183.8 1.7Z" fill="#ED3737"></path>
    <path d="M28.4 33.4c.8-5.5 5.2-15.6 17.2-12M28 23.2c.3-2.1 3.4-8 8-6.6M345.7 80.8c-.4 3.5-3.2 9.7-10.7 7.4M346 87.2c-.2 1.3-2.1 5-5 4.1" stroke-width="2" stroke-linecap="round" stroke="#0F0F0F"></path>
    <rect transform="matrix(1 -.07 .07 1 45 34.4)" rx="8" fill="#0F0F0F" height="66.8" width="289.2"></rect>
    <rect transform="matrix(1 -.07 .07 1 45 34.4)" rx="8" stroke="#0F0F0F" height="66.8" width="289.2"></rect>
    <rect transform="matrix(1 -.07 .07 1 43 28.7)" rx="7" stroke-width="2" stroke="#0F0F0F" fill="#fff" y=".9" x="1.1" height="64.8" width="285.2"></rect>
    <rect transform="rotate(-4 56.6 65.3)" rx="2.5" fill="#E6E6EB" y="65.3" x="56.6" height="5" width="261.2"></rect>
    <rect transform="rotate(-4 56.6 65.3)" rx="2.5" fill="#ED3737" y="65.3" x="56.6" height="5" width="58.6"></rect>
    <circle transform="rotate(-4 140 61.8)" fill="#E6E6EB" r="7" cy="61.8" cx="140"></circle>
    <circle transform="rotate(-4 226.2 56.1)" fill="#E6E6EB" r="7" cy="56.1" cx="226.2"></circle>
    <circle transform="rotate(-4 312.4 50.4)" fill="#E6E6EB" r="7" cy="50.4" cx="312.4"></circle>
    <path d="m137.9 60 4-.3v1l-4 .3zM138 62l4-.3.1 2-4 .3z" fill="#0F0F0F"></path>
    <circle transform="rotate(-4 139.8 59.8)" fill="#0F0F0F" r="1" cy="59.8" cx="139.8"></circle>
    <path d="m224.1 54.3 4-.3v1l-4 .3zM224.2 56.3l4-.3.1 2-4 .3z" fill="#0F0F0F"></path>
    <circle transform="rotate(-4 226 54.1)" fill="#0F0F0F" r="1" cy="54.1" cx="226"></circle>
    <path d="m310.3 48.5 4-.3v1l-4 .3zM310.4 50.5l4-.3.1 2-4 .3z" fill="#0F0F0F"></path>
    <circle transform="rotate(-4 312.3 48.4)" fill="#0F0F0F" r="1" cy="48.4" cx="312.3"></circle>
    <path d="M17.6 81a17 17 0 0 0 1.5 17c6 8.5 15.5 7 20 .5 1.6-2.3-1-4-3-1.5s-8.5 8-1.5 17c5.6 7.2 14.3 4.7 18 2.5" stroke-width="2" stroke-linecap="round" stroke="#0F0F0F"></path>
  </g>
  <defs>
    <clipPath id="a">
      <path d="M0 0h350v126H0z" fill="#fff"></path>
    </clipPath>
  </defs>
</svg>
