<svg viewBox="0 0 250 250" fill="none" xmlns="http://www.w3.org/2000/svg">
  <g clip-path="url(#a)">
    <path d="M50.11 117.56a39.72 39.72 0 0 1 33.05-45.41l66.12-10.43a39.72 39.72 0 0 1 45.42 33.05l10.43 66.12a39.71 39.71 0 0 1-33.05 45.42l-66.12 10.42a39.71 39.71 0 0 1-45.42-33.04l-10.43-66.13z" fill="#fff"></path>
    <path clip-rule="evenodd" d="m154.23 93.1-66.12 10.43a7.94 7.94 0 0 0-6.61 9.09l10.43 66.12a7.94 7.94 0 0 0 9.08 6.61l66.12-10.43a7.94 7.94 0 0 0 6.61-9.08l-10.42-66.12a7.94 7.94 0 0 0-9.09-6.61zM83.16 72.16a39.72 39.72 0 0 0-33.05 45.41l10.43 66.13a39.71 39.71 0 0 0 45.42 33.04l66.12-10.42a39.71 39.71 0 0 0 33.05-45.42L194.7 94.77a39.72 39.72 0 0 0-45.42-33.05L83.16 72.15z" fill-rule="evenodd" fill="#0F0F0F"></path>
    <path d="M40.41 107.77a39.72 39.72 0 0 1 33.05-45.41l66.13-10.43A39.72 39.72 0 0 1 185 84.98l10.43 66.12a39.72 39.72 0 0 1-33.05 45.42l-66.12 10.42a39.72 39.72 0 0 1-45.42-33.04l-10.42-66.13z" fill="#fff"></path>
    <path clip-rule="evenodd" d="M141.65 65 75.52 75.44a26.48 26.48 0 0 0-22.03 30.28l10.43 66.12a26.48 26.48 0 0 0 30.28 22.03l66.12-10.42a26.48 26.48 0 0 0 22.03-30.28l-10.43-66.12A26.48 26.48 0 0 0 141.65 65zm-68.19-2.64a39.72 39.72 0 0 0-33.05 45.41l10.43 66.13a39.72 39.72 0 0 0 45.42 33.04l66.12-10.42a39.72 39.72 0 0 0 33.05-45.42L185 84.98a39.72 39.72 0 0 0-45.42-33.05L73.46 62.35z" fill-rule="evenodd" fill="#0F0F0F"></path>
    <path clip-rule="evenodd" d="M212.63 64.83a13.24 13.24 0 0 0-2.2-18.59l-13-10.26a13.24 13.24 0 0 0-18.6 2.19l-56.37 71.45a2.65 2.65 0 0 1-3.72.44L105.86 99.9a13.24 13.24 0 0 0-18.6 2.19l-10.26 13a13.24 13.24 0 0 0 2.2 18.6l14.95 11.8 15.09 11.91a23.83 23.83 0 0 0 33.46-3.95l69.93-88.61z" fill-rule="evenodd" fill="#60C081"></path>
  </g>
  <defs>
    <clipPath id="a">
      <path d="M0 0h250v250H0z" fill="#fff"></path>
    </clipPath>
  </defs>
</svg>
