<svg viewBox="0 0 250 250" fill="none" xmlns="http://www.w3.org/2000/svg">
  <g clip-path="url(#a)">
    <path d="m120.8 89.85 2.53-5.73c-8.39-18.7-7.83-19.24-6.2-20.88l10.58-10.35 1.05-.87H130c.65 0 2.51 0 18.9 7.28l5.99-2.48C162.72 38 163.52 38 165.79 38h15.1c2.27 0 3.15 0 10.32 19.01l5.97 2.49c11.07-4.67 17.49-7 19.25-7h1.41l11.53 11.14c1.76 1.61 2.36 2.19-6.5 20.6l2.52 5.71C245 97.4 245 98.15 245 100.45v14.62c0 2.28 0 3.1-19.68 9.93l-2.52 5.68c8.38 18.7 7.83 19.26 6.2 20.88l-10.68 10.55-1.06.92H216c-.63 0-2.51 0-18.87-7.45l-6 2.48C183.34 177 182.56 177 180.27 177h-15.1c-2.32 0-3.15 0-10.35-19.01l-6.01-2.49c-11 4.6-17.44 6.93-19.16 6.93h-1.43l-11.63-11.22c-1.66-1.64-2.24-2.2 6.6-20.55l-2.52-5.71C101 117.5 101 116.68 101 114.45V99.88c.1-2.3.1-3.1 19.8-10.03zm52.21 41.98a24.9 24.9 0 0 0 13.57-4.34 24.38 24.38 0 0 0 8.86-11.02 24.01 24.01 0 0 0 1.2-14.01 24.23 24.23 0 0 0-6.87-12.33 24.78 24.78 0 0 0-12.63-6.52 24.99 24.99 0 0 0-14.18 1.47 24.6 24.6 0 0 0-11 8.96 24.08 24.08 0 0 0-4.12 13.46 24.43 24.43 0 0 0 7.49 17.3 25.13 25.13 0 0 0 17.68 7.02z" fill="#FFC32A"></path>
    <path d="m128.63 186.51 24.85-36.03c3.18-4.62.87-11-4.54-12.51L48.88 110.11l.77-14.64a8.23 8.23 0 0 0-6.01-8.37l-15.3-4.26a5.19 5.19 0 0 0-2.79 10l13.32 3.7a.76.76 0 0 1 .55.76l-2.3 61.61a21.78 21.78 0 0 0 15.93 21.8l51.8 14.42a21.79 21.79 0 0 0 23.78-8.62z" fill="#fff"></path>
    <path clip-rule="evenodd" d="m39.21 102.83-2.08 56.08a21.78 21.78 0 0 0 15.92 21.8l51.8 14.42a21.79 21.79 0 0 0 23.78-8.62l24.85-36.03c3.18-4.62.87-11-4.54-12.51L48.88 110.11l.77-14.64a8.23 8.23 0 0 0-6.01-8.37l-15.3-4.26a5.19 5.19 0 0 0-2.79 10l13.32 3.7a.76.76 0 0 1 .55.76l-.2 5.52zm15.4 25.83-1.16 30.86a5.45 5.45 0 0 0 3.99 5.45l51.8 14.42a5.45 5.45 0 0 0 5.94-2.15l18.34-26.6-78.92-21.98z" fill-rule="evenodd" fill="#0F0F0F"></path>
    <path d="M64.25 205.37a11.53 11.53 0 1 1-22.22-6.19 11.53 11.53 0 0 1 22.22 6.2zm40 11.14a11.53 11.53 0 1 1-22.22-6.19 11.53 11.53 0 0 1 22.22 6.2z" fill="#0F0F0F"></path>
  </g>
  <defs>
    <clipPath id="a">
      <path d="M0 0h250v250H0z" fill="#fff"></path>
    </clipPath>
  </defs>
</svg>
