<svg xmlns="http://www.w3.org/2000/svg" xmlns:xlink="http://www.w3.org/1999/xlink" width="140" zoomAndPan="magnify" viewBox="0 0 104.88 104.999996" height="140" preserveAspectRatio="xMidYMid meet" version="1.0"><defs><filter x="0%" y="0%" width="100%" height="100%" id="b8e741c0e2"><feColorMatrix values="0 0 0 0 1 0 0 0 0 1 0 0 0 0 1 0 0 0 1 0" color-interpolation-filters="sRGB"/></filter><mask id="61b4b1ea1b"><g filter="url(#b8e741c0e2)"><rect x="-10.488" width="125.856" fill="#000000" y="-10.5" height="125.999995" fill-opacity="0.32"/></g></mask><clipPath id="4bd52cc9a2"><path d="M 6 4 L 96 4 L 96 100 L 6 100 Z M 6 4 " clip-rule="nonzero"/></clipPath><clipPath id="21d21d845e"><path d="M -0.496094 7.972656 L 91.3125 0.0898438 L 99.445312 94.882812 L 7.640625 102.761719 Z M -0.496094 7.972656 " clip-rule="nonzero"/></clipPath><clipPath id="02ef186cd4"><path d="M -0.496094 7.972656 L 91.3125 0.0898438 L 99.445312 94.882812 L 7.640625 102.761719 Z M -0.496094 7.972656 " clip-rule="nonzero"/></clipPath><clipPath id="e7cf2f5c1d"><rect x="0" width="100" y="0" height="102"/></clipPath><mask id="ce0c6f7774"><g filter="url(#b8e741c0e2)"><rect x="-10.488" width="125.856" fill="#000000" y="-10.5" height="125.999995" fill-opacity="0.3"/></g></mask><clipPath id="4094d343d5"><path d="M 0.691406 0.472656 L 10.519531 0.472656 L 10.519531 15.8125 L 0.691406 15.8125 Z M 0.691406 0.472656 " clip-rule="nonzero"/></clipPath><clipPath id="4b2b7837b9"><rect x="0" width="11" y="0" height="16"/></clipPath><clipPath id="471bb4f26c"><path d="M 43 56 L 66 56 L 66 91.542969 L 43 91.542969 Z M 43 56 " clip-rule="nonzero"/></clipPath><mask id="7bd3855cd6"><g filter="url(#b8e741c0e2)"><rect x="-10.488" width="125.856" fill="#000000" y="-10.5" height="125.999995" fill-opacity="0.2"/></g></mask><clipPath id="48410219e8"><path d="M 1 0.484375 L 7 0.484375 L 7 8.875 L 1 8.875 Z M 1 0.484375 " clip-rule="nonzero"/></clipPath><clipPath id="6c878ca93c"><rect x="0" width="8" y="0" height="9"/></clipPath><mask id="1bda51c14e"><g filter="url(#b8e741c0e2)"><rect x="-10.488" width="125.856" fill="#000000" y="-10.5" height="125.999995" fill-opacity="0.3"/></g></mask><clipPath id="75e6f18058"><path d="M 0.398438 1 L 9.984375 1 L 9.984375 17.773438 L 0.398438 17.773438 Z M 0.398438 1 " clip-rule="nonzero"/></clipPath><clipPath id="c3794aac45"><rect x="0" width="10" y="0" height="18"/></clipPath><clipPath id="5d8f4efdc8"><path d="M 50 90 L 72 90 L 72 91.542969 L 50 91.542969 Z M 50 90 " clip-rule="nonzero"/></clipPath><clipPath id="600f7fb097"><path d="M 65 75 L 92 75 L 92 91.542969 L 65 91.542969 Z M 65 75 " clip-rule="nonzero"/></clipPath><clipPath id="1c5096bbff"><path d="M 67 75 L 92 75 L 92 91.542969 L 67 91.542969 Z M 67 75 " clip-rule="nonzero"/></clipPath><mask id="87284eb3ad"><g filter="url(#b8e741c0e2)"><rect x="-10.488" width="125.856" fill="#000000" y="-10.5" height="125.999995" fill-opacity="0.35"/></g></mask><clipPath id="c904bf7295"><path d="M 0.125 0.574219 L 24.574219 0.574219 L 24.574219 16.394531 L 0.125 16.394531 Z M 0.125 0.574219 " clip-rule="nonzero"/></clipPath><clipPath id="7ae1d26240"><rect x="0" width="25" y="0" height="17"/></clipPath><mask id="b8028f29a4"><g filter="url(#b8e741c0e2)"><rect x="-10.488" width="125.856" fill="#000000" y="-10.5" height="125.999995" fill-opacity="0.3"/></g></mask><clipPath id="7e52af3470"><path d="M 0.183594 0.449219 L 5.699219 0.449219 L 5.699219 7.640625 L 0.183594 7.640625 Z M 0.183594 0.449219 " clip-rule="nonzero"/></clipPath><clipPath id="4c25f1975a"><rect x="0" width="6" y="0" height="8"/></clipPath><mask id="d09f765c5c"><g filter="url(#b8e741c0e2)"><rect x="-10.488" width="125.856" fill="#000000" y="-10.5" height="125.999995" fill-opacity="0.2"/></g></mask><clipPath id="6651b7bc3e"><path d="M 0.246094 0.183594 L 6.238281 0.183594 L 6.238281 14.328125 L 0.246094 14.328125 Z M 0.246094 0.183594 " clip-rule="nonzero"/></clipPath><clipPath id="32ac6155d9"><rect x="0" width="7" y="0" height="15"/></clipPath><clipPath id="9ad227dfd2"><path d="M 42 13.632812 L 58 13.632812 L 58 29 L 42 29 Z M 42 13.632812 " clip-rule="nonzero"/></clipPath><clipPath id="87d8bf090b"><path d="M 6.914062 56 L 25 56 L 25 67 L 6.914062 67 Z M 6.914062 56 " clip-rule="nonzero"/></clipPath><clipPath id="0b543d8350"><path d="M 6.914062 56 L 21 56 L 21 67 L 6.914062 67 Z M 6.914062 56 " clip-rule="nonzero"/></clipPath><mask id="6495708f1a"><g filter="url(#b8e741c0e2)"><rect x="-10.488" width="125.856" fill="#000000" y="-10.5" height="125.999995" fill-opacity="0.3"/></g></mask><clipPath id="4651ea2e02"><path d="M 0.914062 0.15625 L 14.855469 0.15625 L 14.855469 10.464844 L 0.914062 10.464844 Z M 0.914062 0.15625 " clip-rule="nonzero"/></clipPath><clipPath id="bd6088da3d"><rect x="0" width="15" y="0" height="11"/></clipPath><mask id="8d65a73d4c"><g filter="url(#b8e741c0e2)"><rect x="-10.488" width="125.856" fill="#000000" y="-10.5" height="125.999995" fill-opacity="0.3"/></g></mask><clipPath id="4c312222b0"><path d="M 0.542969 0.429688 L 3 0.429688 L 3 2.828125 L 0.542969 2.828125 Z M 0.542969 0.429688 " clip-rule="nonzero"/></clipPath><clipPath id="9044e6c186"><rect x="0" width="4" y="0" height="3"/></clipPath></defs><g mask="url(#61b4b1ea1b)"><g transform="matrix(1, 0, 0, 1, 3, 1)"><g clip-path="url(#e7cf2f5c1d)"><g clip-path="url(#4bd52cc9a2)"><g clip-path="url(#21d21d845e)"><g clip-path="url(#02ef186cd4)"><path fill="#f5d767" d="M 94.496094 45.03125 C 91.894531 35.765625 85.957031 27.945312 79.339844 21.117188 C 73.5 15.097656 66.734375 9.839844 58.847656 6.808594 C 55.03125 5.328125 50.757812 4.039062 46.640625 4.164062 C 42.546875 4.289062 38.5 5.453125 34.902344 7.417969 C 31.25 9.386719 28.015625 12.25 25.703125 15.679688 C 23.070312 19.558594 21.800781 24.058594 20.453125 28.511719 C 17.40625 38.621094 12.191406 47.894531 9.066406 58.011719 C 6.296875 66.960938 5.425781 76.960938 9.777344 85.601562 C 13.945312 93.839844 22.371094 98.058594 31.3125 98.964844 C 41.535156 99.972656 51.761719 97.039062 60.792969 92.367188 C 65.328125 90.039062 69.613281 87.253906 73.769531 84.292969 C 77.875 81.355469 81.992188 78.359375 85.773438 75.027344 C 89.203125 72.015625 92.140625 68.550781 93.808594 64.261719 C 95.398438 60.1875 95.945312 55.730469 95.609375 51.363281 C 95.441406 49.191406 95.03125 47.078125 94.496094 45.03125 " fill-opacity="1" fill-rule="nonzero"/></g></g></g></g></g></g><path fill="#000000" d="M 82.148438 86.640625 C 81.871094 86.277344 81.59375 85.902344 81.328125 85.523438 L 81.703125 85.257812 C 81.964844 85.628906 82.238281 86 82.515625 86.359375 Z M 80.546875 84.378906 C 80.292969 83.996094 80.046875 83.597656 79.808594 83.207031 L 80.199219 82.96875 C 80.4375 83.359375 80.679688 83.75 80.929688 84.128906 Z M 79.113281 82.007812 C 78.890625 81.605469 78.671875 81.195312 78.460938 80.785156 L 78.871094 80.578125 C 79.078125 80.980469 79.292969 81.386719 79.515625 81.785156 Z M 77.855469 79.539062 C 77.664062 79.121094 77.472656 78.695312 77.296875 78.269531 L 77.71875 78.09375 C 77.894531 78.511719 78.082031 78.933594 78.273438 79.34375 Z M 76.78125 76.984375 C 76.617188 76.554688 76.460938 76.117188 76.3125 75.679688 L 76.746094 75.535156 C 76.894531 75.964844 77.046875 76.398438 77.210938 76.820312 Z M 75.890625 74.359375 C 75.757812 73.917969 75.632812 73.46875 75.519531 73.027344 L 75.960938 72.910156 C 76.078125 73.347656 76.199219 73.792969 76.332031 74.230469 Z M 75.191406 71.679688 C 75.09375 71.230469 75 70.773438 74.917969 70.320312 L 75.367188 70.238281 C 75.453125 70.683594 75.542969 71.136719 75.644531 71.582031 Z M 74.6875 68.953125 C 74.621094 68.5 74.5625 68.035156 74.511719 67.582031 L 74.96875 67.53125 C 75.015625 67.980469 75.074219 68.4375 75.140625 68.886719 Z M 74.382812 66.199219 C 74.351562 65.742188 74.324219 65.273438 74.308594 64.816406 L 74.769531 64.800781 C 74.785156 65.253906 74.808594 65.710938 74.84375 66.167969 Z M 22.558594 63.863281 C 22.503906 63.863281 22.449219 63.863281 22.398438 63.863281 L 22.40625 63.40625 C 22.851562 63.414062 23.292969 63.382812 23.734375 63.308594 L 23.8125 63.761719 C 23.398438 63.832031 22.980469 63.863281 22.558594 63.863281 Z M 20.992188 63.707031 C 20.527344 63.617188 20.074219 63.492188 19.632812 63.335938 L 19.785156 62.902344 C 20.207031 63.054688 20.636719 63.171875 21.078125 63.257812 Z M 74.75 63.433594 L 74.289062 63.429688 C 74.292969 62.960938 74.304688 62.496094 74.328125 62.042969 L 74.789062 62.066406 C 74.765625 62.511719 74.75 62.96875 74.75 63.433594 Z M 25.179688 63.382812 L 25.015625 62.953125 C 25.433594 62.792969 25.828125 62.59375 26.203125 62.355469 L 26.449219 62.746094 C 26.046875 63 25.625 63.210938 25.179688 63.382812 Z M 88.886719 62.890625 C 88.519531 62.890625 88.152344 62.871094 87.785156 62.828125 L 87.835938 62.375 C 88.28125 62.421875 88.730469 62.4375 89.179688 62.425781 L 89.191406 62.886719 C 89.089844 62.886719 88.988281 62.890625 88.886719 62.890625 Z M 18.339844 62.785156 C 17.921875 62.574219 17.515625 62.347656 17.121094 62.097656 L 17.367188 61.707031 C 17.75 61.949219 18.140625 62.171875 18.542969 62.375 Z M 90.597656 62.734375 L 90.511719 62.285156 C 90.949219 62.199219 91.378906 62.078125 91.796875 61.921875 L 91.960938 62.351562 C 91.515625 62.519531 91.0625 62.648438 90.597656 62.734375 Z M 86.402344 62.585938 C 85.945312 62.476562 85.5 62.339844 85.058594 62.175781 L 85.21875 61.742188 C 85.640625 61.902344 86.070312 62.03125 86.507812 62.140625 Z M 27.574219 61.886719 L 27.265625 61.546875 C 27.59375 61.246094 27.898438 60.917969 28.179688 60.570312 L 28.539062 60.855469 C 28.242188 61.222656 27.921875 61.566406 27.574219 61.886719 Z M 93.234375 61.75 L 93.007812 61.351562 C 93.394531 61.128906 93.765625 60.875 94.117188 60.597656 L 94.402344 60.957031 C 94.035156 61.25 93.644531 61.511719 93.234375 61.746094 Z M 83.773438 61.621094 C 83.363281 61.414062 82.953125 61.183594 82.554688 60.933594 L 82.800781 60.542969 C 83.1875 60.785156 83.582031 61.011719 83.980469 61.210938 Z M 15.976562 61.289062 C 15.617188 61.011719 15.253906 60.710938 14.90625 60.394531 L 15.214844 60.054688 C 15.554688 60.363281 15.90625 60.65625 16.257812 60.925781 Z M 74.894531 60.703125 L 74.4375 60.65625 C 74.488281 60.1875 74.550781 59.722656 74.625 59.277344 L 75.078125 59.351562 C 75.003906 59.792969 74.945312 60.246094 74.894531 60.707031 Z M 81.410156 60.125 C 81.046875 59.84375 80.6875 59.542969 80.34375 59.226562 L 80.652344 58.886719 C 80.988281 59.195312 81.335938 59.488281 81.691406 59.761719 Z M 95.4375 59.992188 L 95.101562 59.679688 C 95.40625 59.351562 95.6875 59.003906 95.9375 58.632812 L 96.316406 58.886719 C 96.054688 59.28125 95.761719 59.648438 95.4375 59.996094 Z M 29.339844 59.699219 L 28.949219 59.460938 C 29.179688 59.074219 29.390625 58.675781 29.578125 58.265625 L 29.996094 58.457031 C 29.800781 58.882812 29.582031 59.296875 29.339844 59.699219 Z M 13.90625 59.421875 C 13.851562 59.367188 13.800781 59.3125 13.746094 59.253906 L 14.082031 58.941406 C 14.132812 58.996094 14.183594 59.050781 14.238281 59.105469 Z M 79.355469 58.234375 C 79.042969 57.890625 78.738281 57.53125 78.457031 57.164062 L 78.820312 56.882812 C 79.097656 57.242188 79.390625 57.589844 79.691406 57.921875 Z M 75.34375 58.015625 L 74.898438 57.910156 C 75.007812 57.449219 75.128906 56.996094 75.265625 56.566406 L 75.703125 56.703125 C 75.570312 57.128906 75.449219 57.570312 75.34375 58.019531 Z M 97.007812 57.652344 L 96.589844 57.464844 C 96.773438 57.058594 96.917969 56.636719 97.023438 56.203125 L 97.46875 56.308594 C 97.359375 56.773438 97.203125 57.222656 97.007812 57.65625 Z M 30.511719 57.15625 L 30.078125 57.011719 C 30.222656 56.589844 30.347656 56.148438 30.453125 55.707031 L 30.898438 55.8125 C 30.789062 56.269531 30.660156 56.71875 30.511719 57.15625 Z M 77.648438 56.035156 C 77.398438 55.65625 77.152344 55.257812 76.917969 54.851562 L 77.316406 54.621094 C 77.546875 55.019531 77.785156 55.410156 78.03125 55.78125 Z M 76.167969 55.429688 L 75.742188 55.253906 C 75.921875 54.820312 76.121094 54.394531 76.332031 53.988281 L 76.738281 54.203125 C 76.535156 54.59375 76.339844 55.007812 76.167969 55.429688 Z M 97.65625 54.902344 L 97.195312 54.894531 C 97.195312 54.847656 97.195312 54.800781 97.195312 54.757812 C 97.195312 54.359375 97.15625 53.964844 97.074219 53.574219 L 97.523438 53.484375 C 97.613281 53.90625 97.65625 54.332031 97.65625 54.761719 C 97.65625 54.808594 97.65625 54.855469 97.65625 54.902344 Z M 31.164062 54.4375 L 30.707031 54.371094 C 30.753906 54.074219 30.785156 53.773438 30.8125 53.472656 C 30.824219 53.328125 30.835938 53.175781 30.84375 53.019531 L 31.304688 53.050781 C 31.292969 53.207031 31.285156 53.363281 31.269531 53.511719 C 31.242188 53.820312 31.207031 54.132812 31.164062 54.4375 Z M 76.261719 53.621094 C 76.058594 53.21875 75.863281 52.796875 75.671875 52.367188 L 76.089844 52.183594 C 76.277344 52.609375 76.472656 53.023438 76.671875 53.417969 Z M 77.425781 53.035156 L 77.042969 52.78125 C 77.210938 52.527344 77.390625 52.28125 77.570312 52.042969 C 77.671875 51.910156 77.773438 51.78125 77.878906 51.65625 L 78.234375 51.949219 C 78.132812 52.070312 78.03125 52.195312 77.9375 52.320312 C 77.761719 52.550781 77.589844 52.792969 77.425781 53.035156 Z M 96.664062 52.316406 C 96.480469 51.910156 96.261719 51.53125 96 51.167969 L 96.371094 50.902344 C 96.652344 51.285156 96.886719 51.695312 97.085938 52.128906 Z M 31.355469 51.660156 L 30.894531 51.65625 C 30.894531 51.550781 30.894531 51.449219 30.894531 51.34375 C 30.894531 51.007812 30.890625 50.664062 30.878906 50.289062 L 31.339844 50.273438 C 31.351562 50.652344 31.355469 51.003906 31.355469 51.34375 C 31.355469 51.449219 31.355469 51.554688 31.355469 51.660156 Z M 75.136719 51.085938 C 74.976562 50.671875 74.8125 50.238281 74.652344 49.789062 L 75.085938 49.636719 C 75.242188 50.078125 75.402344 50.507812 75.566406 50.917969 Z M 79.15625 50.964844 L 78.839844 50.632812 C 79.179688 50.308594 79.535156 50.007812 79.90625 49.722656 L 80.183594 50.089844 C 79.824219 50.363281 79.484375 50.652344 79.15625 50.964844 Z M 95.125 50.160156 C 94.800781 49.847656 94.457031 49.5625 94.089844 49.304688 L 94.355469 48.929688 C 94.742188 49.203125 95.105469 49.5 95.445312 49.828125 Z M 81.304688 49.328125 L 81.066406 48.933594 C 81.464844 48.691406 81.878906 48.472656 82.300781 48.273438 L 82.496094 48.6875 C 82.085938 48.878906 81.6875 49.09375 81.300781 49.328125 Z M 30.824219 48.917969 C 30.800781 48.445312 30.769531 47.960938 30.746094 47.542969 L 31.203125 47.515625 C 31.230469 47.933594 31.257812 48.417969 31.285156 48.894531 Z M 92.941406 48.613281 C 92.539062 48.40625 92.125 48.230469 91.703125 48.078125 L 91.855469 47.644531 C 92.300781 47.804688 92.730469 47.992188 93.144531 48.203125 Z M 74.210938 48.480469 C 74.074219 48.0625 73.9375 47.628906 73.796875 47.160156 L 74.238281 47.027344 C 74.378906 47.496094 74.511719 47.921875 74.648438 48.335938 Z M 83.75 48.175781 L 83.597656 47.742188 C 84.039062 47.585938 84.484375 47.453125 84.941406 47.347656 L 85.046875 47.792969 C 84.605469 47.898438 84.171875 48.023438 83.746094 48.175781 Z M 90.40625 47.707031 C 90.273438 47.679688 90.136719 47.652344 90.007812 47.628906 C 89.699219 47.574219 89.386719 47.53125 89.074219 47.503906 L 89.117188 47.042969 C 89.441406 47.074219 89.769531 47.117188 90.085938 47.175781 C 90.222656 47.199219 90.363281 47.226562 90.503906 47.257812 Z M 86.375 47.550781 L 86.316406 47.09375 C 86.78125 47.035156 87.246094 47 87.714844 46.992188 L 87.722656 47.453125 C 87.273438 47.460938 86.820312 47.492188 86.375 47.550781 Z M 30.660156 46.167969 C 30.628906 45.640625 30.609375 45.199219 30.59375 44.789062 L 31.050781 44.769531 C 31.066406 45.179688 31.089844 45.617188 31.117188 46.140625 Z M 73.40625 45.835938 C 73.300781 45.46875 73.1875 45.078125 73.054688 44.601562 L 73.03125 44.511719 L 73.472656 44.386719 L 73.5 44.476562 C 73.628906 44.953125 73.742188 45.34375 73.847656 45.707031 Z M 30.5625 43.402344 L 30.5625 43.285156 C 30.5625 42.839844 30.570312 42.421875 30.589844 42.015625 L 31.050781 42.035156 C 31.03125 42.4375 31.023438 42.84375 31.023438 43.285156 L 31.023438 43.402344 Z M 72.65625 43.179688 C 72.511719 42.667969 72.394531 42.246094 72.28125 41.859375 L 72.722656 41.730469 C 72.835938 42.117188 72.953125 42.539062 73.101562 43.054688 Z M 31.152344 40.675781 L 30.695312 40.625 C 30.746094 40.167969 30.8125 39.703125 30.898438 39.25 L 31.351562 39.332031 C 31.265625 39.777344 31.199219 40.230469 31.152344 40.675781 Z M 71.886719 40.539062 C 71.746094 40.074219 71.609375 39.648438 71.476562 39.234375 L 71.910156 39.089844 C 72.046875 39.507812 72.1875 39.9375 72.328125 40.40625 Z M 31.648438 38.003906 L 31.203125 37.886719 C 31.324219 37.441406 31.457031 36.992188 31.609375 36.554688 L 32.042969 36.703125 C 31.894531 37.132812 31.761719 37.570312 31.648438 38.007812 Z M 71.023438 37.9375 C 70.863281 37.496094 70.699219 37.0625 70.535156 36.65625 L 70.960938 36.484375 C 71.128906 36.898438 71.292969 37.332031 71.457031 37.78125 Z M 32.527344 35.429688 L 32.105469 35.253906 C 32.28125 34.828125 32.480469 34.402344 32.6875 33.988281 L 33.097656 34.195312 C 32.894531 34.601562 32.703125 35.015625 32.527344 35.433594 Z M 70 35.398438 C 69.804688 34.976562 69.605469 34.566406 69.402344 34.171875 L 69.808594 33.960938 C 70.015625 34.359375 70.21875 34.78125 70.414062 35.210938 Z M 33.75 33 L 33.355469 32.765625 C 33.589844 32.367188 33.839844 31.972656 34.101562 31.589844 L 34.480469 31.847656 C 34.226562 32.226562 33.980469 32.613281 33.75 33 Z M 68.742188 32.976562 C 68.574219 32.695312 68.398438 32.414062 68.222656 32.148438 C 68.15625 32.042969 68.082031 31.933594 68.011719 31.828125 L 68.390625 31.570312 C 68.464844 31.675781 68.539062 31.789062 68.609375 31.894531 C 68.789062 32.171875 68.964844 32.457031 69.136719 32.742188 Z M 35.285156 30.75 L 34.921875 30.464844 C 35.207031 30.101562 35.507812 29.742188 35.8125 29.394531 L 36.15625 29.703125 C 35.855469 30.042969 35.5625 30.394531 35.285156 30.75 Z M 67.203125 30.734375 C 66.921875 30.382812 66.625 30.035156 66.316406 29.703125 L 66.65625 29.390625 C 66.96875 29.734375 67.273438 30.089844 67.5625 30.445312 Z M 65.363281 28.730469 C 65.035156 28.421875 64.691406 28.117188 64.34375 27.828125 L 64.636719 27.472656 C 64.992188 27.769531 65.34375 28.082031 65.679688 28.398438 Z M 37.09375 28.710938 L 36.773438 28.386719 C 37.101562 28.0625 37.445312 27.742188 37.792969 27.441406 L 38.09375 27.785156 C 37.753906 28.085938 37.414062 28.394531 37.09375 28.714844 Z M 63.265625 26.992188 C 62.898438 26.726562 62.519531 26.46875 62.136719 26.226562 L 62.382812 25.839844 C 62.773438 26.085938 63.164062 26.347656 63.535156 26.621094 Z M 39.148438 26.925781 L 38.871094 26.558594 C 39.238281 26.277344 39.621094 26.007812 40.007812 25.75 L 40.261719 26.132812 C 39.882812 26.386719 39.511719 26.652344 39.148438 26.925781 Z M 60.960938 25.539062 C 60.566406 25.320312 60.15625 25.113281 59.746094 24.921875 L 59.941406 24.507812 C 60.359375 24.703125 60.777344 24.914062 61.179688 25.132812 Z M 41.417969 25.421875 L 41.1875 25.023438 C 41.589844 24.792969 42.003906 24.578125 42.421875 24.375 L 42.621094 24.789062 C 42.21875 24.988281 41.8125 25.203125 41.417969 25.425781 Z M 58.492188 24.386719 C 58.074219 24.21875 57.640625 24.0625 57.207031 23.925781 L 57.347656 23.488281 C 57.785156 23.632812 58.226562 23.789062 58.65625 23.957031 Z M 43.867188 24.242188 L 43.699219 23.816406 C 44.128906 23.644531 44.570312 23.484375 45.011719 23.347656 L 45.148438 23.785156 C 44.722656 23.921875 44.292969 24.074219 43.871094 24.242188 Z M 55.902344 23.554688 C 55.460938 23.441406 55.011719 23.34375 54.570312 23.261719 L 54.652344 22.808594 C 55.105469 22.894531 55.5625 22.996094 56.011719 23.109375 Z M 46.460938 23.421875 L 46.355469 22.976562 L 46.457031 22.949219 C 46.871094 22.855469 47.296875 22.769531 47.722656 22.703125 L 47.792969 23.15625 C 47.382812 23.222656 46.96875 23.304688 46.5625 23.398438 Z M 53.222656 23.058594 C 52.773438 23.003906 52.316406 22.964844 51.867188 22.941406 L 51.890625 22.484375 C 52.347656 22.507812 52.816406 22.546875 53.277344 22.601562 Z M 49.144531 22.988281 L 49.105469 22.53125 C 49.5625 22.492188 50.03125 22.464844 50.496094 22.457031 L 50.503906 22.917969 C 50.050781 22.929688 49.59375 22.953125 49.148438 22.992188 Z M 49.144531 22.988281 " fill-opacity="1" fill-rule="nonzero"/><path fill="#7ed957" d="M 61.078125 53.507812 L 60.914062 53.179688 C 61.25 53.011719 61.472656 52.59375 61.472656 52.125 C 61.476562 51.660156 61.289062 51.195312 61.117188 50.800781 C 60.757812 49.980469 60.34375 49.191406 59.867188 48.433594 L 60.179688 48.238281 C 60.664062 49.011719 61.089844 49.816406 61.453125 50.648438 C 61.644531 51.082031 61.84375 51.589844 61.839844 52.125 C 61.835938 52.734375 61.539062 53.277344 61.078125 53.507812 Z M 61.078125 53.507812 " fill-opacity="1" fill-rule="nonzero"/><path fill="#000000" d="M 61.53125 53.429688 C 61.53125 53.621094 61.464844 53.78125 61.328125 53.917969 C 61.195312 54.050781 61.03125 54.121094 60.839844 54.121094 C 60.648438 54.121094 60.488281 54.050781 60.351562 53.917969 C 60.214844 53.78125 60.148438 53.621094 60.148438 53.429688 C 60.148438 53.238281 60.214844 53.074219 60.351562 52.9375 C 60.488281 52.804688 60.648438 52.738281 60.839844 52.738281 C 61.03125 52.738281 61.195312 52.804688 61.328125 52.9375 C 61.464844 53.074219 61.53125 53.238281 61.53125 53.429688 Z M 61.53125 53.429688 " fill-opacity="1" fill-rule="nonzero"/><path fill="#ffb89c" d="M 66.464844 67.640625 L 71.875 79.554688 L 71.1875 78.777344 C 71.441406 78.890625 71.691406 79.019531 71.933594 79.160156 C 72.175781 79.296875 72.414062 79.445312 72.648438 79.59375 C 73.113281 79.898438 73.566406 80.222656 74.003906 80.558594 C 74.441406 80.898438 74.867188 81.261719 75.296875 81.617188 C 75.726562 81.96875 76.148438 82.332031 76.570312 82.695312 C 77.414062 83.421875 78.25 84.164062 79.074219 84.917969 C 79.488281 85.292969 79.894531 85.675781 80.300781 86.066406 C 80.703125 86.453125 81.105469 86.847656 81.496094 87.253906 L 79.84375 89.5625 C 79.332031 89.320312 78.832031 89.070312 78.332031 88.808594 C 77.835938 88.550781 77.339844 88.289062 76.851562 88.019531 C 75.871094 87.484375 74.898438 86.933594 73.941406 86.363281 C 73.460938 86.082031 72.984375 85.792969 72.507812 85.503906 C 72.03125 85.21875 71.554688 84.929688 71.09375 84.621094 C 70.628906 84.316406 70.175781 83.992188 69.742188 83.648438 C 69.523438 83.476562 69.308594 83.300781 69.097656 83.113281 C 68.886719 82.929688 68.683594 82.734375 68.492188 82.53125 L 67.953125 81.941406 C 67.898438 81.882812 67.847656 81.816406 67.804688 81.75 L 60.804688 70.691406 Z M 66.464844 67.640625 " fill-opacity="1" fill-rule="nonzero"/><path fill="#7ed957" d="M 63.875 60.636719 L 69.394531 72.6875 C 67.875 75.089844 65.625 75.824219 63.011719 75.730469 L 59.910156 66.183594 Z M 63.875 60.636719 " fill-opacity="1" fill-rule="nonzero"/><g mask="url(#ce0c6f7774)"><g transform="matrix(1, 0, 0, 1, 59, 60)"><g clip-path="url(#4b2b7837b9)"><g clip-path="url(#4094d343d5)"><path fill="#ffffff" d="M 4.875 0.636719 L 10.394531 12.6875 C 8.875 15.089844 6.625 15.824219 4.011719 15.730469 L 0.910156 6.183594 Z M 4.875 0.636719 " fill-opacity="1" fill-rule="nonzero"/></g></g></g></g><g clip-path="url(#471bb4f26c)"><path fill="#7ed957" d="M 54.300781 56.703125 L 49.675781 57.308594 C 49.675781 57.308594 43.976562 59.144531 43.378906 60.21875 C 42.785156 61.292969 47.078125 91.363281 47.078125 91.363281 L 65.335938 91.363281 C 65.335938 91.363281 64.78125 62.835938 63.875 60.636719 C 63.457031 59.621094 57.054688 57.308594 57.054688 57.308594 Z M 54.300781 56.703125 " fill-opacity="1" fill-rule="nonzero"/></g><path fill="#ffb89c" d="M 46.652344 69.507812 L 40.835938 82.703125 L 39.625 79.804688 C 39.945312 79.886719 40.257812 79.992188 40.566406 80.097656 C 40.875 80.207031 41.179688 80.328125 41.484375 80.449219 C 42.089844 80.699219 42.683594 80.96875 43.269531 81.257812 C 43.855469 81.546875 44.429688 81.863281 45.007812 82.167969 C 45.585938 82.472656 46.160156 82.789062 46.734375 83.105469 C 47.882812 83.738281 49.023438 84.382812 50.15625 85.046875 C 50.722656 85.378906 51.285156 85.714844 51.847656 86.0625 C 52.40625 86.40625 52.964844 86.753906 53.515625 87.117188 L 52.335938 89.703125 C 51.699219 89.523438 51.070312 89.335938 50.445312 89.132812 C 49.816406 88.933594 49.191406 88.730469 48.570312 88.523438 C 47.324219 88.101562 46.089844 87.664062 44.859375 87.210938 C 44.246094 86.988281 43.632812 86.753906 43.019531 86.523438 C 42.410156 86.292969 41.796875 86.058594 41.195312 85.804688 C 40.59375 85.554688 39.996094 85.28125 39.414062 84.988281 C 39.121094 84.839844 38.832031 84.691406 38.546875 84.527344 C 38.261719 84.363281 37.980469 84.199219 37.707031 84.007812 L 37.457031 83.839844 C 37.019531 83.535156 36.710938 83.132812 36.535156 82.628906 C 36.359375 82.125 36.347656 81.621094 36.496094 81.109375 L 40.621094 67.289062 Z M 46.652344 69.507812 " fill-opacity="1" fill-rule="nonzero"/><path fill="#7ed957" d="M 46.101562 65.917969 L 43.378906 60.21875 C 40.570312 64.484375 39.074219 68.558594 37.636719 72.867188 C 38 75.613281 41.625 77.390625 44.425781 76.210938 L 46.0625 72.875 C 46.597656 71.78125 46.871094 70.621094 46.878906 69.402344 C 46.886719 68.183594 46.625 67.019531 46.101562 65.917969 Z M 46.101562 65.917969 " fill-opacity="1" fill-rule="nonzero"/><path fill="#ffb89c" d="M 49.675781 57.308594 C 52.167969 61.355469 57.738281 63.582031 57.054688 57.308594 C 56.96875 57.113281 56.910156 56.914062 56.871094 56.703125 C 56.535156 55.0625 56.703125 51.804688 56.792969 51.09375 L 51.078125 48.679688 C 51.132812 49.324219 51.144531 49.964844 51.121094 50.605469 C 51.039062 53.113281 50.5 56.085938 49.675781 57.308594 Z M 49.675781 57.308594 " fill-opacity="1" fill-rule="nonzero"/><g mask="url(#7bd3855cd6)"><g transform="matrix(1, 0, 0, 1, 50, 48)"><g clip-path="url(#6c878ca93c)"><g clip-path="url(#48410219e8)"><path fill="#000000" d="M 1.121094 2.605469 C 2.140625 5.644531 5.355469 8.132812 6.871094 8.703125 C 6.535156 7.0625 6.703125 3.804688 6.792969 3.09375 L 1.078125 0.679688 C 1.132812 1.324219 1.144531 1.964844 1.121094 2.605469 Z M 1.121094 2.605469 " fill-opacity="1" fill-rule="nonzero"/></g></g></g></g><path fill="#ffb89c" d="M 50.449219 46.875 C 50.449219 51.164062 56.164062 54.957031 57.546875 54.957031 C 58.777344 54.957031 60.398438 51.148438 60.777344 46.875 C 61.207031 42.0625 59.417969 38.960938 55.613281 38.960938 C 52.039062 38.960938 50.449219 42.585938 50.449219 46.875 Z M 50.449219 46.875 " fill-opacity="1" fill-rule="nonzero"/><g mask="url(#1bda51c14e)"><g transform="matrix(1, 0, 0, 1, 37, 59)"><g clip-path="url(#c3794aac45)"><g clip-path="url(#75e6f18058)"><path fill="#ffffff" d="M 9.101562 6.917969 L 6.378906 1.21875 C 3.570312 5.484375 2.074219 9.558594 0.636719 13.867188 C 1 16.613281 4.625 18.390625 7.425781 17.210938 L 9.0625 13.875 C 9.597656 12.78125 9.871094 11.621094 9.878906 10.402344 C 9.886719 9.183594 9.625 8.019531 9.101562 6.917969 Z M 9.101562 6.917969 " fill-opacity="1" fill-rule="nonzero"/></g></g></g></g><g clip-path="url(#5d8f4efdc8)"><path fill="#000000" d="M 50.449219 90.050781 L 71.511719 90.050781 L 71.511719 91.363281 L 50.449219 91.363281 Z M 50.449219 90.050781 " fill-opacity="1" fill-rule="nonzero"/></g><g clip-path="url(#600f7fb097)"><path fill="#000000" d="M 91.371094 75.738281 L 72.039062 75.738281 L 65.992188 91.363281 L 85.324219 91.363281 Z M 91.371094 75.738281 " fill-opacity="1" fill-rule="nonzero"/></g><g clip-path="url(#1c5096bbff)"><g mask="url(#87284eb3ad)"><g transform="matrix(1, 0, 0, 1, 67, 75)"><g clip-path="url(#7ae1d26240)"><g clip-path="url(#c904bf7295)"><path fill="#ffffff" d="M 24.371094 0.738281 L 6.230469 0.738281 L 0.1875 16.363281 L 18.324219 16.363281 Z M 24.371094 0.738281 " fill-opacity="1" fill-rule="nonzero"/></g></g></g></g></g><path fill="#ffffff" d="M 81.074219 83.949219 C 81.167969 84.144531 81.152344 84.355469 81.03125 84.585938 C 80.910156 84.8125 80.714844 84.992188 80.449219 85.117188 C 80.183594 85.246094 79.921875 85.28125 79.667969 85.234375 C 79.414062 85.183594 79.242188 85.0625 79.148438 84.867188 C 79.054688 84.667969 79.066406 84.457031 79.191406 84.230469 C 79.3125 84 79.507812 83.824219 79.773438 83.695312 C 80.039062 83.570312 80.296875 83.53125 80.554688 83.582031 C 80.808594 83.628906 80.980469 83.753906 81.074219 83.949219 Z M 81.074219 83.949219 " fill-opacity="1" fill-rule="nonzero"/><path fill="#ffffff" d="M 80.65625 82.464844 C 79.394531 82.464844 78.125 83.339844 77.820312 84.414062 C 77.519531 85.484375 78.296875 86.359375 79.558594 86.359375 C 80.820312 86.359375 82.089844 85.484375 82.394531 84.414062 C 82.695312 83.339844 81.917969 82.464844 80.65625 82.464844 Z M 79.734375 85.738281 C 78.875 85.738281 78.347656 85.144531 78.550781 84.414062 C 78.757812 83.679688 79.621094 83.089844 80.480469 83.089844 C 81.339844 83.089844 81.867188 83.679688 81.664062 84.414062 C 81.457031 85.144531 80.59375 85.738281 79.734375 85.738281 Z M 79.734375 85.738281 " fill-opacity="1" fill-rule="nonzero"/><path fill="#ffb89c" d="M 52.066406 87.558594 C 52.066406 87.558594 56.070312 86.035156 56.6875 86.195312 C 57.300781 86.351562 62.058594 89.15625 61.695312 89.496094 C 61.335938 89.832031 57.917969 89.871094 57.242188 89.773438 C 56.570312 89.675781 55.253906 89.136719 55.253906 89.136719 C 55.253906 89.136719 54.597656 90.050781 53.246094 90.050781 C 51.894531 90.050781 51.355469 88.816406 51.417969 88.582031 C 51.476562 88.347656 52.066406 87.558594 52.066406 87.558594 Z M 52.066406 87.558594 " fill-opacity="1" fill-rule="nonzero"/><path fill="#000000" d="M 51.761719 49.511719 C 51.75 49.070312 51.746094 48.621094 51.871094 48.195312 C 51.992188 47.785156 52.234375 47.421875 52.441406 47.046875 C 53.257812 45.535156 53.484375 43.785156 53.699219 42.085938 C 54.4375 43.210938 54.863281 44.441406 54.984375 45.78125 L 56.988281 45.71875 C 57.066406 45.71875 57.148438 45.710938 57.199219 45.660156 C 57.253906 45.605469 57.257812 45.523438 57.261719 45.449219 L 57.320312 43.625 C 57.59375 44.417969 57.785156 45.226562 57.902344 46.058594 C 58.351562 45.847656 58.8125 45.800781 59.292969 45.917969 L 59.328125 42.707031 C 59.761719 43.753906 60.003906 44.84375 60.0625 45.976562 L 61.339844 45.992188 C 61.800781 44.582031 62.132812 43.148438 62.335938 41.679688 C 62.425781 41.007812 62.480469 40.269531 62.105469 39.703125 C 61.664062 39.035156 60.792969 38.84375 60.03125 38.585938 C 58.628906 38.113281 57.320312 37.25 55.839844 37.175781 C 55.144531 37.136719 54.453125 37.28125 53.796875 37.507812 C 53.027344 37.773438 52.3125 38.148438 51.652344 38.628906 C 50.644531 39.367188 49.820312 40.328125 49.101562 41.351562 C 48.578125 42.09375 48.105469 42.878906 47.8125 43.742188 C 47.410156 44.941406 47.386719 46.25 47.636719 47.492188 C 47.777344 48.210938 48.023438 48.929688 48.511719 49.476562 C 49.09375 50.128906 49.953125 50.464844 50.800781 50.671875 C 51.09375 50.742188 51.480469 51.402344 51.746094 51.1875 C 51.976562 50.996094 51.769531 49.816406 51.761719 49.511719 Z M 51.761719 49.511719 " fill-opacity="1" fill-rule="nonzero"/><path fill="#000000" d="M 50.582031 35.027344 C 49.894531 34.859375 49.15625 35.03125 48.519531 35.347656 C 47.828125 35.695312 47.214844 36.230469 46.835938 36.90625 C 46.492188 37.511719 46.34375 38.207031 46.292969 38.902344 C 46.257812 39.398438 46.269531 39.914062 46.472656 40.363281 C 46.855469 41.210938 47.851562 41.660156 48.78125 41.597656 C 50.09375 41.507812 51.359375 40.554688 52.136719 39.53125 C 52.769531 38.699219 52.667969 37.292969 52.230469 36.398438 C 51.90625 35.742188 51.304688 35.203125 50.582031 35.027344 Z M 50.582031 35.027344 " fill-opacity="1" fill-rule="nonzero"/><path fill="#7ed957" d="M 50.964844 44.347656 C 50.964844 44.347656 50.21875 41.078125 51.460938 39.636719 C 53.308594 37.484375 58.023438 38.125 58.023438 38.125 C 58.023438 38.125 53.769531 38.460938 52.855469 40.222656 C 52.25 41.386719 52.492188 44.597656 52.492188 44.597656 Z M 50.964844 44.347656 " fill-opacity="1" fill-rule="nonzero"/><path fill="#7ed957" d="M 53.617188 47.027344 C 53.617188 47.46875 53.546875 47.894531 53.410156 48.304688 C 53.273438 48.710938 53.078125 49.074219 52.828125 49.386719 C 52.574219 49.699219 52.28125 49.941406 51.953125 50.109375 C 51.621094 50.277344 51.277344 50.363281 50.921875 50.363281 C 50.5625 50.363281 50.21875 50.277344 49.890625 50.109375 C 49.558594 49.941406 49.269531 49.699219 49.015625 49.386719 C 48.761719 49.074219 48.570312 48.710938 48.433594 48.304688 C 48.296875 47.894531 48.226562 47.46875 48.226562 47.027344 C 48.226562 46.585938 48.296875 46.160156 48.433594 45.75 C 48.570312 45.339844 48.761719 44.980469 49.015625 44.667969 C 49.269531 44.355469 49.558594 44.113281 49.890625 43.945312 C 50.21875 43.773438 50.5625 43.691406 50.921875 43.691406 C 51.277344 43.691406 51.621094 43.773438 51.953125 43.945312 C 52.28125 44.113281 52.574219 44.355469 52.828125 44.667969 C 53.078125 44.980469 53.273438 45.339844 53.410156 45.75 C 53.546875 46.160156 53.617188 46.585938 53.617188 47.027344 Z M 53.617188 47.027344 " fill-opacity="1" fill-rule="nonzero"/><g mask="url(#b8028f29a4)"><g transform="matrix(1, 0, 0, 1, 48, 43)"><g clip-path="url(#4c25f1975a)"><g clip-path="url(#7e52af3470)"><path fill="#ffffff" d="M 5.617188 4.027344 C 5.617188 4.46875 5.546875 4.894531 5.410156 5.304688 C 5.273438 5.710938 5.078125 6.074219 4.828125 6.386719 C 4.574219 6.699219 4.28125 6.941406 3.953125 7.109375 C 3.621094 7.277344 3.277344 7.363281 2.921875 7.363281 C 2.5625 7.363281 2.21875 7.277344 1.890625 7.109375 C 1.558594 6.941406 1.269531 6.699219 1.015625 6.386719 C 0.761719 6.074219 0.570312 5.710938 0.433594 5.304688 C 0.296875 4.894531 0.226562 4.46875 0.226562 4.027344 C 0.226562 3.585938 0.296875 3.160156 0.433594 2.75 C 0.570312 2.339844 0.761719 1.980469 1.015625 1.667969 C 1.269531 1.355469 1.558594 1.113281 1.890625 0.945312 C 2.21875 0.773438 2.5625 0.691406 2.921875 0.691406 C 3.277344 0.691406 3.621094 0.773438 3.953125 0.945312 C 4.28125 1.113281 4.574219 1.355469 4.828125 1.667969 C 5.078125 1.980469 5.273438 2.339844 5.410156 2.75 C 5.546875 3.160156 5.617188 3.585938 5.617188 4.027344 Z M 5.617188 4.027344 " fill-opacity="1" fill-rule="nonzero"/></g></g></g></g><path fill="#7ed957" d="M 51.460938 47.027344 C 51.460938 47.347656 51.421875 47.660156 51.347656 47.957031 C 51.273438 48.253906 51.164062 48.515625 51.027344 48.746094 C 50.886719 48.972656 50.726562 49.148438 50.546875 49.269531 C 50.367188 49.394531 50.175781 49.457031 49.980469 49.457031 C 49.785156 49.457031 49.597656 49.394531 49.414062 49.269531 C 49.234375 49.148438 49.074219 48.972656 48.9375 48.746094 C 48.796875 48.515625 48.691406 48.253906 48.617188 47.957031 C 48.539062 47.660156 48.503906 47.347656 48.503906 47.027344 C 48.503906 46.703125 48.539062 46.394531 48.617188 46.097656 C 48.691406 45.800781 48.796875 45.535156 48.9375 45.308594 C 49.074219 45.082031 49.234375 44.90625 49.414062 44.78125 C 49.597656 44.660156 49.785156 44.597656 49.980469 44.597656 C 50.175781 44.597656 50.367188 44.660156 50.546875 44.78125 C 50.726562 44.90625 50.886719 45.082031 51.027344 45.308594 C 51.164062 45.535156 51.273438 45.800781 51.347656 46.097656 C 51.421875 46.394531 51.460938 46.703125 51.460938 47.027344 Z M 51.460938 47.027344 " fill-opacity="1" fill-rule="nonzero"/><path fill="#f5d767" d="M 40.8125 39.183594 C 40.8125 39.9375 40.738281 40.683594 40.59375 41.421875 C 40.445312 42.160156 40.226562 42.878906 39.9375 43.574219 C 39.652344 44.269531 39.296875 44.933594 38.878906 45.558594 C 38.460938 46.183594 37.984375 46.765625 37.453125 47.296875 C 36.917969 47.828125 36.339844 48.304688 35.714844 48.722656 C 35.085938 49.140625 34.425781 49.496094 33.730469 49.785156 C 33.035156 50.070312 32.316406 50.289062 31.578125 50.4375 C 30.839844 50.582031 30.09375 50.65625 29.339844 50.65625 C 28.585938 50.65625 27.839844 50.582031 27.101562 50.4375 C 26.363281 50.289062 25.644531 50.070312 24.949219 49.785156 C 24.253906 49.496094 23.59375 49.140625 22.964844 48.722656 C 22.339844 48.304688 21.761719 47.828125 21.226562 47.296875 C 20.695312 46.765625 20.21875 46.183594 19.800781 45.558594 C 19.382812 44.933594 19.03125 44.269531 18.742188 43.574219 C 18.453125 42.878906 18.234375 42.160156 18.089844 41.421875 C 17.941406 40.683594 17.867188 39.9375 17.867188 39.183594 C 17.867188 38.429688 17.941406 37.683594 18.089844 36.945312 C 18.234375 36.207031 18.453125 35.492188 18.742188 34.792969 C 19.03125 34.097656 19.382812 33.4375 19.800781 32.8125 C 20.21875 32.183594 20.695312 31.605469 21.226562 31.074219 C 21.761719 30.539062 22.339844 30.0625 22.964844 29.644531 C 23.59375 29.226562 24.253906 28.875 24.949219 28.585938 C 25.644531 28.296875 26.363281 28.078125 27.101562 27.933594 C 27.839844 27.785156 28.585938 27.710938 29.339844 27.710938 C 30.09375 27.710938 30.839844 27.785156 31.578125 27.933594 C 32.316406 28.078125 33.035156 28.296875 33.730469 28.585938 C 34.425781 28.875 35.085938 29.226562 35.714844 29.644531 C 36.339844 30.0625 36.917969 30.539062 37.453125 31.074219 C 37.984375 31.605469 38.460938 32.183594 38.878906 32.8125 C 39.296875 33.4375 39.652344 34.097656 39.9375 34.792969 C 40.226562 35.492188 40.445312 36.207031 40.59375 36.945312 C 40.738281 37.683594 40.8125 38.429688 40.8125 39.183594 Z M 40.8125 39.183594 " fill-opacity="1" fill-rule="nonzero"/><path fill="#7ed957" d="M 29.339844 32.234375 C 27.785156 33.914062 25.914062 34.527344 23.636719 33.757812 L 23.636719 38.253906 C 23.636719 40.792969 24.949219 43.175781 27.167969 44.671875 L 29.339844 46.136719 L 31.511719 44.675781 C 33.730469 43.175781 35.042969 40.792969 35.042969 38.257812 L 35.042969 33.761719 C 32.765625 34.527344 30.894531 33.914062 29.339844 32.234375 Z M 29.339844 32.234375 " fill-opacity="1" fill-rule="nonzero"/><g mask="url(#d09f765c5c)"><g transform="matrix(1, 0, 0, 1, 29, 32)"><g clip-path="url(#32ac6155d9)"><g clip-path="url(#6651b7bc3e)"><path fill="#000000" d="M 2.511719 12.671875 L 0.339844 14.136719 L 0.339844 0.234375 C 1.894531 1.914062 3.765625 2.527344 6.042969 1.757812 L 6.042969 6.253906 C 6.042969 8.792969 4.730469 11.175781 2.511719 12.671875 Z M 2.511719 12.671875 " fill-opacity="1" fill-rule="nonzero"/></g></g></g></g><path fill="#f5d767" d="M 74.234375 30.742188 C 74.234375 31.144531 74.195312 31.539062 74.117188 31.933594 C 74.039062 32.328125 73.921875 32.710938 73.769531 33.082031 C 73.613281 33.453125 73.425781 33.808594 73.203125 34.140625 C 72.980469 34.476562 72.726562 34.785156 72.441406 35.070312 C 72.15625 35.351562 71.847656 35.605469 71.515625 35.832031 C 71.179688 36.054688 70.828125 36.242188 70.457031 36.394531 C 70.085938 36.550781 69.703125 36.664062 69.308594 36.742188 C 68.914062 36.824219 68.515625 36.863281 68.113281 36.863281 C 67.710938 36.863281 67.3125 36.824219 66.917969 36.742188 C 66.527344 36.664062 66.144531 36.550781 65.769531 36.394531 C 65.398438 36.242188 65.046875 36.054688 64.714844 35.832031 C 64.378906 35.605469 64.070312 35.351562 63.785156 35.070312 C 63.5 34.785156 63.246094 34.476562 63.023438 34.140625 C 62.800781 33.808594 62.613281 33.453125 62.457031 33.082031 C 62.304688 32.710938 62.1875 32.328125 62.109375 31.933594 C 62.03125 31.539062 61.992188 31.144531 61.992188 30.742188 C 61.992188 30.339844 62.03125 29.941406 62.109375 29.546875 C 62.1875 29.152344 62.304688 28.769531 62.457031 28.398438 C 62.613281 28.027344 62.800781 27.675781 63.023438 27.339844 C 63.246094 27.007812 63.5 26.695312 63.785156 26.414062 C 64.070312 26.128906 64.378906 25.875 64.714844 25.652344 C 65.046875 25.429688 65.398438 25.238281 65.769531 25.085938 C 66.144531 24.933594 66.527344 24.816406 66.917969 24.738281 C 67.3125 24.660156 67.710938 24.621094 68.113281 24.621094 C 68.515625 24.621094 68.914062 24.660156 69.308594 24.738281 C 69.703125 24.816406 70.085938 24.933594 70.457031 25.085938 C 70.828125 25.238281 71.179688 25.429688 71.515625 25.652344 C 71.847656 25.875 72.15625 26.128906 72.441406 26.414062 C 72.726562 26.695312 72.980469 27.007812 73.203125 27.339844 C 73.425781 27.675781 73.613281 28.027344 73.769531 28.398438 C 73.921875 28.769531 74.039062 29.152344 74.117188 29.546875 C 74.195312 29.941406 74.234375 30.339844 74.234375 30.742188 Z M 74.234375 30.742188 " fill-opacity="1" fill-rule="nonzero"/><path fill="#7ed957" d="M 65.023438 30.742188 C 65.023438 30.949219 64.949219 31.125 64.800781 31.269531 C 64.65625 31.417969 64.480469 31.492188 64.273438 31.492188 C 64.0625 31.492188 63.886719 31.417969 63.742188 31.269531 C 63.59375 31.125 63.519531 30.949219 63.519531 30.742188 C 63.519531 30.535156 63.59375 30.355469 63.742188 30.210938 C 63.886719 30.0625 64.0625 29.992188 64.273438 29.992188 C 64.480469 29.992188 64.65625 30.0625 64.800781 30.210938 C 64.949219 30.355469 65.023438 30.535156 65.023438 30.742188 Z M 65.023438 30.742188 " fill-opacity="1" fill-rule="nonzero"/><path fill="#7ed957" d="M 67.582031 30.742188 C 67.582031 30.949219 67.507812 31.125 67.363281 31.269531 C 67.214844 31.417969 67.039062 31.492188 66.832031 31.492188 C 66.625 31.492188 66.449219 31.417969 66.300781 31.269531 C 66.15625 31.125 66.082031 30.949219 66.082031 30.742188 C 66.082031 30.535156 66.15625 30.355469 66.300781 30.210938 C 66.449219 30.0625 66.625 29.992188 66.832031 29.992188 C 67.039062 29.992188 67.214844 30.0625 67.363281 30.210938 C 67.507812 30.355469 67.582031 30.535156 67.582031 30.742188 Z M 67.582031 30.742188 " fill-opacity="1" fill-rule="nonzero"/><path fill="#7ed957" d="M 70.144531 30.742188 C 70.144531 30.949219 70.070312 31.125 69.925781 31.269531 C 69.777344 31.417969 69.601562 31.492188 69.394531 31.492188 C 69.1875 31.492188 69.011719 31.417969 68.863281 31.269531 C 68.71875 31.125 68.644531 30.949219 68.644531 30.742188 C 68.644531 30.535156 68.71875 30.355469 68.863281 30.210938 C 69.011719 30.0625 69.1875 29.992188 69.394531 29.992188 C 69.601562 29.992188 69.777344 30.0625 69.925781 30.210938 C 70.070312 30.355469 70.144531 30.535156 70.144531 30.742188 Z M 70.144531 30.742188 " fill-opacity="1" fill-rule="nonzero"/><path fill="#7ed957" d="M 72.707031 30.742188 C 72.707031 30.949219 72.632812 31.125 72.484375 31.269531 C 72.339844 31.417969 72.164062 31.492188 71.957031 31.492188 C 71.75 31.492188 71.570312 31.417969 71.425781 31.269531 C 71.277344 31.125 71.207031 30.949219 71.207031 30.742188 C 71.207031 30.535156 71.277344 30.355469 71.425781 30.210938 C 71.570312 30.0625 71.75 29.992188 71.957031 29.992188 C 72.164062 29.992188 72.339844 30.0625 72.484375 30.210938 C 72.632812 30.355469 72.707031 30.535156 72.707031 30.742188 Z M 72.707031 30.742188 " fill-opacity="1" fill-rule="nonzero"/><path fill="#f5d767" d="M 97.957031 32.917969 C 97.957031 33.578125 97.894531 34.230469 97.765625 34.878906 C 97.636719 35.527344 97.445312 36.152344 97.191406 36.761719 C 96.941406 37.371094 96.632812 37.949219 96.265625 38.5 C 95.898438 39.046875 95.480469 39.554688 95.015625 40.019531 C 94.550781 40.488281 94.042969 40.902344 93.492188 41.269531 C 92.945312 41.636719 92.367188 41.945312 91.757812 42.199219 C 91.148438 42.449219 90.519531 42.640625 89.875 42.769531 C 89.226562 42.898438 88.574219 42.964844 87.914062 42.964844 C 87.253906 42.964844 86.601562 42.898438 85.953125 42.769531 C 85.308594 42.640625 84.679688 42.449219 84.070312 42.199219 C 83.460938 41.945312 82.882812 41.636719 82.332031 41.269531 C 81.785156 40.902344 81.277344 40.488281 80.8125 40.019531 C 80.34375 39.554688 79.929688 39.046875 79.5625 38.5 C 79.195312 37.949219 78.886719 37.371094 78.632812 36.761719 C 78.382812 36.152344 78.191406 35.527344 78.0625 34.878906 C 77.933594 34.230469 77.871094 33.578125 77.871094 32.917969 C 77.871094 32.257812 77.933594 31.605469 78.0625 30.960938 C 78.191406 30.3125 78.382812 29.683594 78.632812 29.074219 C 78.886719 28.464844 79.195312 27.886719 79.5625 27.339844 C 79.929688 26.789062 80.34375 26.28125 80.8125 25.816406 C 81.277344 25.351562 81.785156 24.933594 82.332031 24.566406 C 82.882812 24.199219 83.460938 23.890625 84.070312 23.640625 C 84.679688 23.386719 85.308594 23.195312 85.953125 23.066406 C 86.601562 22.9375 87.253906 22.875 87.914062 22.875 C 88.574219 22.875 89.226562 22.9375 89.875 23.066406 C 90.519531 23.195312 91.148438 23.386719 91.757812 23.640625 C 92.367188 23.890625 92.945312 24.199219 93.492188 24.566406 C 94.042969 24.933594 94.550781 25.351562 95.015625 25.816406 C 95.480469 26.28125 95.898438 26.789062 96.265625 27.339844 C 96.632812 27.886719 96.941406 28.464844 97.191406 29.074219 C 97.445312 29.683594 97.636719 30.3125 97.765625 30.960938 C 97.894531 31.605469 97.957031 32.257812 97.957031 32.917969 Z M 97.957031 32.917969 " fill-opacity="1" fill-rule="nonzero"/><path fill="#7ed957" d="M 85.601562 36.839844 L 87.480469 34.960938 L 89.867188 32.578125 L 91.742188 30.699219 C 91.9375 30.75 92.132812 30.769531 92.335938 30.769531 C 92.535156 30.765625 92.730469 30.738281 92.925781 30.683594 C 93.117188 30.628906 93.300781 30.550781 93.472656 30.449219 C 93.644531 30.351562 93.804688 30.230469 93.945312 30.085938 C 94.085938 29.945312 94.207031 29.789062 94.308594 29.613281 C 94.410156 29.441406 94.488281 29.257812 94.539062 29.066406 C 94.59375 28.875 94.625 28.675781 94.625 28.476562 C 94.628906 28.277344 94.605469 28.078125 94.558594 27.882812 L 93.144531 29.296875 L 91.539062 29.203125 L 91.445312 27.597656 L 92.859375 26.183594 C 92.664062 26.136719 92.464844 26.113281 92.265625 26.117188 C 92.066406 26.117188 91.867188 26.148438 91.675781 26.199219 C 91.484375 26.253906 91.300781 26.332031 91.125 26.433594 C 90.953125 26.535156 90.796875 26.65625 90.65625 26.796875 C 90.511719 26.9375 90.390625 27.097656 90.292969 27.269531 C 90.191406 27.441406 90.113281 27.625 90.058594 27.816406 C 90.003906 28.011719 89.976562 28.207031 89.972656 28.40625 C 89.972656 28.609375 89.992188 28.804688 90.042969 29 L 88.164062 30.875 L 85.78125 33.261719 L 83.902344 35.140625 C 83.710938 35.089844 83.511719 35.070312 83.3125 35.070312 C 83.113281 35.074219 82.914062 35.101562 82.722656 35.15625 C 82.527344 35.210938 82.347656 35.289062 82.171875 35.390625 C 82 35.488281 81.84375 35.613281 81.699219 35.753906 C 81.558594 35.894531 81.4375 36.050781 81.335938 36.226562 C 81.234375 36.398438 81.160156 36.582031 81.105469 36.773438 C 81.050781 36.96875 81.023438 37.164062 81.019531 37.363281 C 81.015625 37.5625 81.039062 37.761719 81.085938 37.957031 L 82.5 36.542969 L 84.101562 36.636719 L 84.199219 38.242188 L 82.785156 39.65625 C 82.980469 39.703125 83.179688 39.726562 83.378906 39.722656 C 83.578125 39.722656 83.773438 39.691406 83.96875 39.636719 C 84.160156 39.585938 84.34375 39.507812 84.515625 39.40625 C 84.691406 39.304688 84.847656 39.183594 84.988281 39.042969 C 85.128906 38.902344 85.253906 38.742188 85.351562 38.570312 C 85.453125 38.398438 85.53125 38.214844 85.585938 38.023438 C 85.640625 37.828125 85.667969 37.632812 85.671875 37.433594 C 85.671875 37.230469 85.652344 37.035156 85.601562 36.839844 Z M 85.601562 36.839844 " fill-opacity="1" fill-rule="nonzero"/><path fill="#f5d767" d="M 33.734375 77.308594 C 33.734375 77.90625 33.675781 78.5 33.558594 79.089844 C 33.441406 79.675781 33.269531 80.25 33.039062 80.800781 C 32.808594 81.355469 32.527344 81.882812 32.195312 82.378906 C 31.863281 82.878906 31.484375 83.339844 31.058594 83.765625 C 30.636719 84.1875 30.175781 84.566406 29.675781 84.898438 C 29.179688 85.234375 28.652344 85.515625 28.097656 85.742188 C 27.542969 85.972656 26.972656 86.144531 26.386719 86.261719 C 25.796875 86.378906 25.203125 86.4375 24.605469 86.4375 C 24.003906 86.4375 23.410156 86.378906 22.824219 86.261719 C 22.234375 86.144531 21.664062 85.972656 21.109375 85.742188 C 20.554688 85.515625 20.03125 85.234375 19.53125 84.898438 C 19.03125 84.566406 18.570312 84.1875 18.148438 83.765625 C 17.722656 83.339844 17.34375 82.878906 17.011719 82.378906 C 16.679688 81.882812 16.398438 81.355469 16.167969 80.800781 C 15.9375 80.25 15.765625 79.675781 15.648438 79.089844 C 15.53125 78.5 15.472656 77.90625 15.472656 77.308594 C 15.472656 76.707031 15.53125 76.113281 15.648438 75.527344 C 15.765625 74.9375 15.9375 74.367188 16.167969 73.8125 C 16.398438 73.261719 16.679688 72.734375 17.011719 72.234375 C 17.34375 71.738281 17.722656 71.277344 18.148438 70.851562 C 18.570312 70.425781 19.03125 70.050781 19.53125 69.714844 C 20.03125 69.382812 20.554688 69.101562 21.109375 68.871094 C 21.664062 68.644531 22.234375 68.46875 22.824219 68.351562 C 23.410156 68.234375 24.003906 68.175781 24.605469 68.175781 C 25.203125 68.175781 25.796875 68.234375 26.386719 68.351562 C 26.972656 68.46875 27.542969 68.644531 28.097656 68.871094 C 28.652344 69.101562 29.179688 69.382812 29.675781 69.714844 C 30.175781 70.050781 30.636719 70.425781 31.058594 70.851562 C 31.484375 71.277344 31.863281 71.738281 32.195312 72.234375 C 32.527344 72.734375 32.808594 73.261719 33.039062 73.8125 C 33.269531 74.367188 33.441406 74.9375 33.558594 75.527344 C 33.675781 76.113281 33.734375 76.707031 33.734375 77.308594 Z M 33.734375 77.308594 " fill-opacity="1" fill-rule="nonzero"/><path fill="#7ed957" d="M 22.550781 76.402344 C 22.296875 76.402344 22.046875 76.453125 21.8125 76.550781 C 21.574219 76.648438 21.363281 76.789062 21.183594 76.96875 C 21 77.152344 20.863281 77.363281 20.765625 77.597656 C 20.664062 77.835938 20.617188 78.082031 20.617188 78.339844 C 20.617188 78.597656 20.664062 78.84375 20.765625 79.082031 C 20.863281 79.316406 21 79.527344 21.183594 79.707031 C 21.363281 79.890625 21.574219 80.03125 21.8125 80.128906 C 22.046875 80.226562 22.296875 80.277344 22.550781 80.277344 C 22.808594 80.277344 23.054688 80.226562 23.292969 80.128906 C 23.53125 80.03125 23.738281 79.890625 23.921875 79.707031 C 24.101562 79.527344 24.242188 79.316406 24.339844 79.082031 C 24.441406 78.84375 24.488281 78.597656 24.488281 78.339844 C 24.488281 78.082031 24.441406 77.835938 24.339844 77.597656 C 24.242188 77.363281 24.101562 77.152344 23.921875 76.96875 C 23.738281 76.789062 23.53125 76.648438 23.292969 76.550781 C 23.054688 76.453125 22.808594 76.402344 22.550781 76.402344 Z M 22.550781 79.6875 C 22.375 79.6875 22.203125 79.652344 22.035156 79.585938 C 21.871094 79.515625 21.726562 79.417969 21.597656 79.292969 C 21.472656 79.167969 21.375 79.019531 21.308594 78.855469 C 21.238281 78.691406 21.203125 78.519531 21.203125 78.339844 C 21.203125 78.160156 21.238281 77.988281 21.308594 77.824219 C 21.375 77.660156 21.472656 77.511719 21.597656 77.386719 C 21.726562 77.261719 21.871094 77.164062 22.035156 77.09375 C 22.203125 77.027344 22.375 76.992188 22.550781 76.992188 C 22.730469 76.992188 22.902344 77.027344 23.066406 77.09375 C 23.234375 77.164062 23.378906 77.261719 23.503906 77.386719 C 23.632812 77.511719 23.730469 77.660156 23.796875 77.824219 C 23.867188 77.988281 23.898438 78.160156 23.898438 78.339844 C 23.898438 78.519531 23.867188 78.691406 23.796875 78.855469 C 23.730469 79.019531 23.632812 79.167969 23.503906 79.292969 C 23.378906 79.417969 23.234375 79.515625 23.066406 79.585938 C 22.902344 79.652344 22.730469 79.6875 22.550781 79.6875 Z M 22.550781 79.6875 " fill-opacity="1" fill-rule="nonzero"/><path fill="#7ed957" d="M 26.988281 78.957031 L 26.988281 77.75 L 25.949219 77.535156 C 25.863281 77.179688 25.726562 76.84375 25.535156 76.53125 L 26.121094 75.640625 L 25.269531 74.785156 L 24.382812 75.371094 C 24.070312 75.175781 23.738281 75.039062 23.382812 74.949219 L 23.167969 73.90625 L 21.960938 73.90625 L 21.746094 74.945312 C 21.390625 75.027344 21.054688 75.167969 20.742188 75.355469 L 19.851562 74.769531 L 19 75.625 L 19.582031 76.507812 C 19.390625 76.820312 19.25 77.15625 19.164062 77.511719 L 18.117188 77.726562 L 18.117188 78.933594 L 19.15625 79.144531 C 19.242188 79.503906 19.378906 79.835938 19.570312 80.152344 L 18.980469 81.039062 L 19.835938 81.894531 L 20.71875 81.308594 C 21.03125 81.503906 21.367188 81.640625 21.722656 81.730469 L 21.9375 82.773438 L 23.144531 82.773438 L 23.355469 81.734375 C 23.714844 81.652344 24.050781 81.511719 24.363281 81.320312 L 25.253906 81.910156 L 26.105469 81.054688 L 25.523438 80.171875 C 25.714844 79.859375 25.855469 79.527344 25.945312 79.167969 Z M 22.550781 80.769531 C 22.230469 80.769531 21.921875 80.707031 21.625 80.582031 C 21.324219 80.460938 21.0625 80.285156 20.835938 80.058594 C 20.609375 79.828125 20.433594 79.566406 20.308594 79.269531 C 20.183594 78.972656 20.125 78.660156 20.125 78.339844 C 20.125 78.019531 20.183594 77.707031 20.308594 77.410156 C 20.429688 77.113281 20.605469 76.851562 20.835938 76.621094 C 21.0625 76.394531 21.324219 76.21875 21.621094 76.097656 C 21.921875 75.972656 22.230469 75.910156 22.550781 75.910156 C 22.875 75.910156 23.183594 75.972656 23.480469 76.097656 C 23.777344 76.21875 24.042969 76.394531 24.269531 76.621094 C 24.496094 76.851562 24.671875 77.113281 24.796875 77.410156 C 24.917969 77.707031 24.980469 78.019531 24.980469 78.339844 C 24.980469 78.660156 24.917969 78.972656 24.796875 79.269531 C 24.671875 79.566406 24.496094 79.828125 24.269531 80.058594 C 24.042969 80.285156 23.777344 80.460938 23.480469 80.582031 C 23.183594 80.707031 22.875 80.769531 22.550781 80.769531 Z M 22.550781 80.769531 " fill-opacity="1" fill-rule="nonzero"/><path fill="#7ed957" d="M 28.542969 73.277344 C 28.394531 73.277344 28.25 73.304688 28.117188 73.363281 C 27.980469 73.417969 27.859375 73.5 27.753906 73.605469 C 27.652344 73.707031 27.570312 73.828125 27.515625 73.964844 C 27.457031 74.101562 27.429688 74.242188 27.429688 74.390625 C 27.429688 74.539062 27.460938 74.679688 27.515625 74.816406 C 27.570312 74.953125 27.652344 75.074219 27.757812 75.175781 C 27.863281 75.28125 27.980469 75.363281 28.117188 75.417969 C 28.253906 75.472656 28.394531 75.503906 28.542969 75.503906 C 28.691406 75.503906 28.832031 75.472656 28.96875 75.417969 C 29.105469 75.359375 29.226562 75.28125 29.328125 75.175781 C 29.433594 75.070312 29.515625 74.953125 29.570312 74.816406 C 29.628906 74.679688 29.65625 74.539062 29.65625 74.390625 C 29.65625 74.242188 29.628906 74.101562 29.570312 73.964844 C 29.515625 73.828125 29.433594 73.707031 29.328125 73.601562 C 29.222656 73.496094 29.105469 73.417969 28.96875 73.359375 C 28.832031 73.304688 28.6875 73.277344 28.542969 73.277344 Z M 28.542969 75.164062 C 28.328125 75.164062 28.144531 75.089844 27.992188 74.9375 C 27.84375 74.785156 27.765625 74.601562 27.765625 74.390625 C 27.765625 74.175781 27.84375 73.992188 27.992188 73.84375 C 28.144531 73.691406 28.328125 73.617188 28.542969 73.617188 C 28.753906 73.617188 28.9375 73.691406 29.089844 73.84375 C 29.238281 73.992188 29.316406 74.175781 29.316406 74.390625 C 29.316406 74.601562 29.238281 74.785156 29.089844 74.9375 C 28.9375 75.089844 28.753906 75.164062 28.542969 75.164062 Z M 28.542969 75.164062 " fill-opacity="1" fill-rule="nonzero"/><path fill="#7ed957" d="M 31.089844 74.742188 L 31.089844 74.050781 L 30.492188 73.929688 C 30.445312 73.722656 30.363281 73.53125 30.253906 73.351562 L 30.59375 72.839844 L 30.101562 72.347656 L 29.59375 72.683594 C 29.414062 72.574219 29.222656 72.492188 29.015625 72.441406 L 28.894531 71.84375 L 28.199219 71.84375 L 28.078125 72.4375 C 27.875 72.488281 27.679688 72.566406 27.5 72.675781 L 26.988281 72.339844 L 26.5 72.828125 L 26.835938 73.335938 C 26.722656 73.515625 26.644531 73.707031 26.59375 73.914062 L 25.992188 74.035156 L 25.992188 74.730469 L 26.589844 74.851562 C 26.636719 75.058594 26.71875 75.25 26.828125 75.433594 L 26.488281 75.941406 L 26.980469 76.433594 L 27.488281 76.097656 C 27.667969 76.207031 27.859375 76.289062 28.066406 76.339844 L 28.1875 76.9375 L 28.882812 76.9375 L 29.003906 76.34375 C 29.207031 76.292969 29.402344 76.214844 29.582031 76.105469 L 30.09375 76.441406 L 30.582031 75.953125 L 30.246094 75.445312 C 30.359375 75.265625 30.4375 75.074219 30.488281 74.867188 Z M 28.542969 75.785156 C 28.355469 75.785156 28.179688 75.75 28.007812 75.679688 C 27.835938 75.609375 27.6875 75.507812 27.554688 75.375 C 27.425781 75.246094 27.324219 75.09375 27.253906 74.921875 C 27.183594 74.753906 27.144531 74.574219 27.144531 74.390625 C 27.144531 74.203125 27.183594 74.027344 27.253906 73.855469 C 27.324219 73.683594 27.425781 73.535156 27.554688 73.402344 C 27.6875 73.273438 27.835938 73.171875 28.007812 73.101562 C 28.179688 73.03125 28.355469 72.996094 28.542969 72.996094 C 28.726562 72.996094 28.902344 73.03125 29.074219 73.101562 C 29.246094 73.171875 29.398438 73.273438 29.527344 73.402344 C 29.660156 73.535156 29.757812 73.683594 29.828125 73.855469 C 29.902344 74.027344 29.9375 74.203125 29.9375 74.390625 C 29.9375 74.574219 29.902344 74.753906 29.828125 74.921875 C 29.757812 75.09375 29.65625 75.246094 29.527344 75.375 C 29.398438 75.507812 29.246094 75.609375 29.074219 75.679688 C 28.902344 75.75 28.726562 75.785156 28.542969 75.785156 Z M 28.542969 75.785156 " fill-opacity="1" fill-rule="nonzero"/><path fill="#f5d767" d="M 97.765625 62.5625 C 97.765625 63.125 97.710938 63.683594 97.601562 64.234375 C 97.492188 64.785156 97.328125 65.320312 97.113281 65.839844 C 96.898438 66.359375 96.636719 66.851562 96.324219 67.316406 C 96.011719 67.785156 95.65625 68.21875 95.257812 68.613281 C 94.863281 69.011719 94.429688 69.367188 93.960938 69.679688 C 93.496094 69.992188 93 70.253906 92.484375 70.46875 C 91.964844 70.683594 91.429688 70.847656 90.878906 70.957031 C 90.328125 71.066406 89.769531 71.121094 89.207031 71.121094 C 88.644531 71.121094 88.089844 71.066406 87.539062 70.957031 C 86.988281 70.847656 86.453125 70.683594 85.933594 70.46875 C 85.414062 70.253906 84.921875 69.992188 84.453125 69.679688 C 83.988281 69.367188 83.554688 69.011719 83.15625 68.613281 C 82.757812 68.21875 82.40625 67.785156 82.09375 67.316406 C 81.78125 66.851562 81.515625 66.359375 81.300781 65.839844 C 81.085938 65.320312 80.925781 64.785156 80.816406 64.234375 C 80.707031 63.683594 80.652344 63.125 80.652344 62.5625 C 80.652344 62.003906 80.707031 61.445312 80.816406 60.894531 C 80.925781 60.34375 81.085938 59.808594 81.300781 59.289062 C 81.515625 58.769531 81.78125 58.277344 82.09375 57.808594 C 82.40625 57.34375 82.757812 56.910156 83.15625 56.511719 C 83.554688 56.117188 83.988281 55.761719 84.453125 55.449219 C 84.921875 55.136719 85.414062 54.875 85.933594 54.65625 C 86.453125 54.441406 86.988281 54.28125 87.539062 54.171875 C 88.089844 54.0625 88.644531 54.007812 89.207031 54.007812 C 89.769531 54.007812 90.328125 54.0625 90.878906 54.171875 C 91.429688 54.28125 91.964844 54.441406 92.484375 54.65625 C 93 54.875 93.496094 55.136719 93.960938 55.449219 C 94.429688 55.761719 94.863281 56.117188 95.257812 56.511719 C 95.65625 56.910156 96.011719 57.34375 96.324219 57.808594 C 96.636719 58.277344 96.898438 58.769531 97.113281 59.289062 C 97.328125 59.808594 97.492188 60.34375 97.601562 60.894531 C 97.710938 61.445312 97.765625 62.003906 97.765625 62.5625 Z M 97.765625 62.5625 " fill-opacity="1" fill-rule="nonzero"/><path fill="#7ed957" d="M 87.914062 56.539062 L 90.679688 56.539062 L 90.679688 65.792969 L 87.914062 65.792969 Z M 87.914062 56.539062 " fill-opacity="1" fill-rule="nonzero"/><path fill="#7ed957" d="M 87.914062 67.082031 L 90.679688 67.082031 L 90.679688 68.796875 L 87.914062 68.796875 Z M 87.914062 67.082031 " fill-opacity="1" fill-rule="nonzero"/><g clip-path="url(#9ad227dfd2)"><path fill="#f5d767" d="M 57.210938 21.019531 C 57.210938 21.503906 57.164062 21.984375 57.066406 22.457031 C 56.972656 22.933594 56.832031 23.394531 56.648438 23.84375 C 56.460938 24.289062 56.234375 24.714844 55.964844 25.121094 C 55.695312 25.523438 55.390625 25.894531 55.046875 26.238281 C 54.703125 26.582031 54.332031 26.886719 53.929688 27.15625 C 53.527344 27.425781 53.101562 27.652344 52.652344 27.839844 C 52.203125 28.023438 51.742188 28.164062 51.269531 28.257812 C 50.792969 28.351562 50.3125 28.398438 49.828125 28.398438 C 49.34375 28.398438 48.863281 28.351562 48.386719 28.257812 C 47.914062 28.164062 47.449219 28.023438 47.003906 27.839844 C 46.554688 27.652344 46.128906 27.425781 45.726562 27.15625 C 45.324219 26.886719 44.949219 26.582031 44.609375 26.238281 C 44.265625 25.894531 43.957031 25.523438 43.691406 25.121094 C 43.421875 24.714844 43.191406 24.289062 43.007812 23.84375 C 42.820312 23.394531 42.683594 22.933594 42.585938 22.457031 C 42.492188 21.984375 42.445312 21.503906 42.445312 21.019531 C 42.445312 20.535156 42.492188 20.054688 42.585938 19.578125 C 42.683594 19.101562 42.820312 18.640625 43.007812 18.191406 C 43.191406 17.746094 43.421875 17.320312 43.691406 16.917969 C 43.957031 16.511719 44.265625 16.140625 44.609375 15.796875 C 44.949219 15.457031 45.324219 15.148438 45.726562 14.878906 C 46.128906 14.609375 46.554688 14.382812 47.003906 14.199219 C 47.449219 14.011719 47.914062 13.871094 48.386719 13.777344 C 48.863281 13.683594 49.34375 13.636719 49.828125 13.636719 C 50.3125 13.636719 50.792969 13.683594 51.269531 13.777344 C 51.742188 13.871094 52.203125 14.011719 52.652344 14.199219 C 53.101562 14.382812 53.527344 14.609375 53.929688 14.878906 C 54.332031 15.148438 54.703125 15.457031 55.046875 15.796875 C 55.390625 16.140625 55.695312 16.511719 55.964844 16.917969 C 56.234375 17.320312 56.460938 17.746094 56.648438 18.191406 C 56.832031 18.640625 56.972656 19.101562 57.066406 19.578125 C 57.164062 20.054688 57.210938 20.535156 57.210938 21.019531 Z M 57.210938 21.019531 " fill-opacity="1" fill-rule="nonzero"/></g><path fill="#7ed957" d="M 48.042969 22.109375 C 48.605469 21.417969 48.953125 20.605469 49.019531 19.824219 C 49.089844 19.03125 48.867188 18.339844 48.402344 17.929688 C 47.878906 17.464844 47.003906 17.398438 46.316406 17.773438 C 45.722656 18.097656 45.277344 18.671875 45.132812 19.304688 L 46.085938 19.523438 C 46.167969 19.164062 46.4375 18.824219 46.785156 18.632812 C 47.105469 18.457031 47.539062 18.46875 47.753906 18.660156 C 47.980469 18.859375 48.089844 19.265625 48.046875 19.738281 C 47.996094 20.328125 47.726562 20.949219 47.285156 21.492188 C 46.792969 22.097656 45.878906 22.578125 44.960938 23.011719 L 45.171875 23.941406 L 49.367188 23.941406 L 49.367188 22.964844 L 47.074219 22.964844 C 47.449219 22.710938 47.78125 22.425781 48.042969 22.109375 Z M 48.042969 22.109375 " fill-opacity="1" fill-rule="nonzero"/><path fill="#7ed957" d="M 53.367188 17.550781 L 53.367188 20.589844 C 52.636719 20.535156 51.910156 20.53125 51.179688 20.578125 C 51.359375 20.238281 51.542969 19.878906 51.722656 19.53125 C 52.054688 18.886719 52.398438 18.230469 52.691406 17.683594 L 51.816406 17.207031 C 51.511719 17.761719 51.167969 18.425781 50.835938 19.070312 C 50.5 19.714844 50.160156 20.375 49.863281 20.921875 L 50.363281 21.65625 C 51.363281 21.535156 52.363281 21.515625 53.367188 21.589844 L 53.367188 23.933594 L 54.367188 23.933594 L 54.367188 17.550781 Z M 53.367188 17.550781 " fill-opacity="1" fill-rule="nonzero"/><g clip-path="url(#87d8bf090b)"><path fill="#7ed957" d="M 6.914062 56.347656 L 24.4375 59.277344 L 20.820312 60.84375 L 20.363281 66.304688 L 16.679688 62.632812 L 13.46875 64.019531 Z M 6.914062 56.347656 " fill-opacity="1" fill-rule="nonzero"/></g><g clip-path="url(#0b543d8350)"><g mask="url(#6495708f1a)"><g transform="matrix(1, 0, 0, 1, 6, 56)"><g clip-path="url(#bd6088da3d)"><g clip-path="url(#4651ea2e02)"><path fill="#000000" d="M 14.820312 4.84375 L 0.914062 0.347656 L 13.296875 5.335938 C 13.296875 5.335938 14.359375 10.390625 14.363281 10.304688 Z M 14.820312 4.84375 " fill-opacity="1" fill-rule="nonzero"/></g></g></g></g></g><g mask="url(#8d65a73d4c)"><g transform="matrix(1, 0, 0, 1, 16, 61)"><g clip-path="url(#9044e6c186)"><g clip-path="url(#4c312222b0)"><path fill="#000000" d="M 0.679688 1.632812 L 2.933594 0.589844 L 1.828125 2.773438 Z M 0.679688 1.632812 " fill-opacity="1" fill-rule="nonzero"/></g></g></g></g></svg>