<svg xmlns="http://www.w3.org/2000/svg" xmlns:xlink="http://www.w3.org/1999/xlink" width="140" zoomAndPan="magnify" viewBox="0 0 104.88 104.999996" height="140" preserveAspectRatio="xMidYMid meet" version="1.0"><defs><filter x="0%" y="0%" width="100%" height="100%" id="c386c1a907"><feColorMatrix values="0 0 0 0 1 0 0 0 0 1 0 0 0 0 1 0 0 0 1 0" color-interpolation-filters="sRGB"/></filter><clipPath id="67f3329141"><path d="M 0 0.0585938 L 104.761719 0.0585938 L 104.761719 104.9375 L 0 104.9375 Z M 0 0.0585938 " clip-rule="nonzero"/></clipPath><mask id="be4ec68e8c"><g filter="url(#c386c1a907)"><rect x="-10.488" width="125.856" fill="#000000" y="-10.5" height="125.999995" fill-opacity="0.32"/></g></mask><clipPath id="5f1cd501ec"><path d="M 2 4 L 102 4 L 102 96 L 2 96 Z M 2 4 " clip-rule="nonzero"/></clipPath><clipPath id="0ed05176fc"><path d="M 30.980469 -12.105469 L 119.175781 25.527344 L 80.074219 117.167969 L -8.121094 79.535156 Z M 30.980469 -12.105469 " clip-rule="nonzero"/></clipPath><clipPath id="feb4d32117"><path d="M 30.980469 -12.105469 L 119.175781 25.527344 L 80.074219 117.167969 L -8.121094 79.535156 Z M 30.980469 -12.105469 " clip-rule="nonzero"/></clipPath><clipPath id="ee81b6c9f6"><rect x="0" width="105" y="0" height="105"/></clipPath><clipPath id="de653048cd"><path d="M 46.175781 11.0625 L 94.121094 11.0625 L 94.121094 59.007812 L 46.175781 59.007812 Z M 46.175781 11.0625 " clip-rule="nonzero"/></clipPath><clipPath id="60037765be"><path d="M 55 83 L 67 83 L 67 94.214844 L 55 94.214844 Z M 55 83 " clip-rule="nonzero"/></clipPath><clipPath id="0b6f370f12"><path d="M 13 32.039062 L 29 32.039062 L 29 44 L 13 44 Z M 13 32.039062 " clip-rule="nonzero"/></clipPath><clipPath id="6d5911b58a"><path d="M 10.488281 38 L 70 38 L 70 71 L 10.488281 71 Z M 10.488281 38 " clip-rule="nonzero"/></clipPath><clipPath id="df503d7c47"><path d="M 23 44 L 79.410156 44 L 79.410156 87 L 23 87 Z M 23 44 " clip-rule="nonzero"/></clipPath><clipPath id="4d11de3dbb"><path d="M 31 83 L 43 83 L 43 94.214844 L 31 94.214844 Z M 31 83 " clip-rule="nonzero"/></clipPath></defs><g clip-path="url(#67f3329141)"><g mask="url(#be4ec68e8c)"><g transform="matrix(1, 0, 0, 1, 0, 0.000000000000007029)"><g clip-path="url(#ee81b6c9f6)"><g clip-path="url(#5f1cd501ec)"><g clip-path="url(#0ed05176fc)"><g clip-path="url(#feb4d32117)"><path fill="#f5d767" d="M 100.359375 68.632812 C 102.507812 58.816406 100.867188 48.695312 98.117188 39.15625 C 95.6875 30.742188 92.03125 22.582031 86.25 15.921875 C 83.457031 12.6875 80.148438 9.402344 76.292969 7.5 C 72.457031 5.605469 68.15625 4.695312 63.878906 4.742188 C 59.546875 4.761719 55.160156 5.816406 51.347656 7.847656 C 47.019531 10.128906 43.644531 13.65625 40.21875 17.097656 C 32.449219 24.921875 23.097656 30.910156 15.257812 38.707031 C 8.316406 45.59375 2.609375 54.382812 2.386719 64.484375 C 2.1875 74.121094 7.882812 82.140625 15.679688 87.359375 C 24.609375 93.296875 35.472656 95.609375 46.085938 95.730469 C 51.410156 95.808594 56.722656 95.347656 62.007812 94.65625 C 67.230469 93.957031 72.496094 93.214844 77.613281 92 C 82.253906 90.90625 86.660156 89.152344 90.296875 86.015625 C 93.761719 83.039062 96.453125 79.199219 98.28125 75.011719 C 99.195312 72.929688 99.851562 70.78125 100.359375 68.632812 " fill-opacity="1" fill-rule="nonzero"/></g></g></g></g></g></g></g><g clip-path="url(#de653048cd)"><path fill="#7ed957" d="M 70.285156 11.0625 C 56.960938 11.0625 46.175781 21.84375 46.175781 35.167969 C 46.175781 48.492188 56.960938 59.277344 70.285156 59.277344 C 83.605469 59.277344 94.390625 48.492188 94.390625 35.167969 C 94.390625 21.84375 83.605469 11.0625 70.285156 11.0625 Z M 70.285156 11.0625 " fill-opacity="1" fill-rule="nonzero"/></g><path fill="#ffffff" d="M 70.285156 15.882812 C 59.613281 15.882812 51 24.496094 51 35.167969 C 51 45.839844 59.613281 54.453125 70.285156 54.453125 C 80.957031 54.453125 89.570312 45.839844 89.570312 35.167969 C 89.570312 24.496094 80.957031 15.882812 70.285156 15.882812 Z M 70.285156 49.632812 C 62.261719 49.632812 55.820312 43.191406 55.820312 35.167969 C 55.820312 27.144531 62.261719 20.703125 70.285156 20.703125 C 78.308594 20.703125 84.75 27.144531 84.75 35.167969 C 84.75 43.191406 78.308594 49.632812 70.285156 49.632812 Z M 70.285156 25.527344 C 64.914062 25.527344 60.640625 29.796875 60.640625 35.167969 C 60.640625 40.539062 64.914062 44.8125 70.285156 44.8125 C 75.652344 44.8125 79.925781 40.539062 79.925781 35.167969 C 79.925781 29.796875 75.652344 25.527344 70.285156 25.527344 Z M 70.285156 39.988281 C 67.550781 39.988281 65.460938 37.898438 65.460938 35.167969 C 65.460938 32.4375 67.550781 30.347656 70.285156 30.347656 C 73.015625 30.347656 75.105469 32.4375 75.105469 35.167969 C 75.105469 37.898438 73.015625 39.988281 70.285156 39.988281 Z M 70.285156 39.988281 " fill-opacity="1" fill-rule="nonzero"/><path fill="#1976d2" d="M 93.1875 17.089844 C 93.1875 17.089844 92.460938 19.863281 90.535156 21.667969 C 88.605469 23.597656 80.890625 24.558594 80.890625 24.558594 C 80.890625 24.558594 81.859375 16.726562 83.78125 14.917969 C 85.589844 12.992188 88.363281 12.265625 88.363281 12.265625 L 88.363281 17.089844 Z M 93.1875 17.089844 " fill-opacity="1" fill-rule="nonzero"/><path fill="#37474f" d="M 92.824219 12.628906 C 92.34375 12.144531 91.617188 12.144531 91.136719 12.628906 L 69.441406 34.324219 C 68.957031 34.804688 68.957031 35.53125 69.441406 36.011719 C 69.679688 36.25 70.042969 36.375 70.285156 36.375 C 70.523438 36.375 70.886719 36.25 71.125 36.011719 L 92.824219 14.316406 C 93.308594 13.835938 93.308594 13.109375 92.824219 12.628906 Z M 92.824219 12.628906 " fill-opacity="1" fill-rule="nonzero"/><path fill="#42a5f5" d="M 88.335938 15.554688 L 90.042969 17.257812 L 82.96875 24.335938 L 81.265625 22.628906 Z M 88.335938 15.554688 " fill-opacity="1" fill-rule="nonzero"/><g clip-path="url(#60037765be)"><path fill="#008000" d="M 60.230469 94.113281 C 59.480469 93.996094 58.722656 93.691406 58.015625 93.226562 C 57.53125 92.910156 56.738281 92.113281 56.433594 91.640625 C 55.625 90.390625 55.382812 89.328125 55.585938 87.9375 C 55.800781 86.484375 56.527344 85.238281 57.636719 84.425781 C 58.363281 83.894531 59.144531 83.511719 59.859375 83.34375 C 60.71875 83.140625 62.082031 83.296875 62.9375 83.695312 C 64.496094 84.425781 65.703125 85.859375 66.171875 87.542969 C 66.535156 88.851562 66.421875 90.347656 65.878906 91.425781 C 65.578125 92.015625 64.945312 92.734375 64.351562 93.152344 C 63.78125 93.554688 62.960938 93.90625 62.234375 94.054688 C 61.84375 94.136719 60.605469 94.171875 60.230469 94.113281 Z M 61.484375 90.445312 C 62.550781 90.136719 63.257812 89.195312 63.195312 88.15625 C 63.144531 87.28125 62.683594 86.660156 61.816406 86.300781 C 61.632812 86.222656 61.324219 86.136719 61.128906 86.109375 C 60.828125 86.066406 60.734375 86.070312 60.464844 86.132812 C 60.015625 86.242188 59.707031 86.402344 59.402344 86.683594 C 59.050781 87.011719 58.902344 87.230469 58.761719 87.652344 C 58.664062 87.949219 58.648438 88.054688 58.664062 88.398438 C 58.679688 88.742188 58.703125 88.839844 58.839844 89.125 C 59.046875 89.5625 59.296875 89.867188 59.648438 90.121094 C 59.988281 90.359375 60.304688 90.492188 60.644531 90.535156 C 60.9375 90.570312 61.109375 90.554688 61.484375 90.445312 Z M 61.484375 90.445312 " fill-opacity="1" fill-rule="nonzero"/></g><g clip-path="url(#0b6f370f12)"><path fill="#008000" d="M 26.492188 43.140625 C 26.363281 42.851562 25.976562 41.699219 25.121094 39.0625 C 24.605469 37.480469 24.324219 36.832031 23.921875 36.335938 C 23.546875 35.867188 22.953125 35.410156 22.359375 35.132812 C 21.394531 34.683594 20.804688 34.636719 16.894531 34.714844 L 14.082031 34.769531 L 13.832031 34.644531 C 13.355469 34.402344 13.109375 34.046875 13.070312 33.539062 C 13.050781 33.292969 13.0625 33.222656 13.164062 33.011719 C 13.296875 32.742188 13.589844 32.460938 13.902344 32.300781 C 14.175781 32.164062 14.292969 32.15625 17.433594 32.101562 C 20.757812 32.042969 22.09375 32.042969 22.292969 32.101562 C 22.378906 32.128906 22.5 32.148438 22.5625 32.148438 C 22.757812 32.148438 23.433594 32.359375 23.882812 32.5625 C 25.207031 33.152344 26.019531 34.046875 26.621094 35.570312 C 26.898438 36.277344 27.042969 36.746094 27.886719 39.617188 C 28.039062 40.144531 28.195312 40.652344 28.230469 40.746094 C 28.269531 40.839844 28.359375 41.144531 28.433594 41.425781 C 28.507812 41.703125 28.59375 41.996094 28.621094 42.070312 C 28.664062 42.199219 28.652344 42.242188 28.5 42.535156 C 28.289062 42.945312 28.058594 43.230469 27.886719 43.300781 C 27.8125 43.332031 27.609375 43.371094 27.441406 43.386719 C 27.269531 43.402344 27.019531 43.425781 26.882812 43.4375 L 26.636719 43.460938 Z M 26.492188 43.140625 " fill-opacity="1" fill-rule="nonzero"/></g><g clip-path="url(#6d5911b58a)"><path fill="#008000" d="M 29.78125 70.148438 C 29.6875 69.925781 29.285156 68.75 28.832031 67.371094 C 28.632812 66.765625 28.351562 65.921875 28.214844 65.496094 C 27.902344 64.554688 27.050781 61.933594 26.910156 61.476562 C 26.851562 61.292969 26.675781 60.746094 26.519531 60.261719 C 26.363281 59.773438 26.109375 58.992188 25.960938 58.515625 C 25.808594 58.042969 25.480469 57.019531 25.230469 56.242188 C 24.519531 54.039062 24.089844 52.699219 23.773438 51.691406 C 23.609375 51.183594 23.371094 50.4375 23.242188 50.035156 C 23.113281 49.636719 22.894531 48.949219 22.753906 48.511719 C 22.617188 48.074219 22.4375 47.519531 22.355469 47.277344 C 22.273438 47.03125 22.085938 46.445312 21.9375 45.972656 C 21.472656 44.492188 21.292969 44.035156 20.9375 43.445312 C 20.371094 42.5 19.3125 41.714844 18.117188 41.351562 L 17.71875 41.226562 L 16.21875 41.226562 C 15.390625 41.226562 14.007812 41.234375 13.148438 41.246094 L 11.578125 41.265625 L 11.355469 41.148438 C 10.820312 40.871094 10.539062 40.496094 10.503906 40.007812 C 10.488281 39.742188 10.5 39.671875 10.601562 39.460938 C 10.75 39.160156 11.128906 38.808594 11.40625 38.710938 C 11.578125 38.652344 12.152344 38.625 14.625 38.550781 C 17.84375 38.449219 18.363281 38.457031 18.914062 38.597656 C 20.671875 39.046875 22.144531 40.140625 23.0625 41.683594 C 23.730469 42.8125 24.078125 43.710938 24.988281 46.679688 C 25.085938 47.007812 25.246094 47.515625 25.339844 47.804688 C 25.433594 48.097656 25.605469 48.632812 25.71875 49 C 25.828125 49.363281 26.089844 50.199219 26.296875 50.855469 C 26.5 51.507812 26.828125 52.5625 27.027344 53.195312 C 27.921875 56.066406 28.839844 58.933594 29.714844 61.609375 C 29.78125 61.816406 29.96875 62.382812 30.125 62.867188 C 30.480469 63.949219 30.804688 64.984375 30.847656 65.164062 C 30.863281 65.238281 30.894531 65.320312 30.921875 65.351562 C 30.972656 65.417969 31.460938 65.421875 32.257812 65.363281 C 32.574219 65.339844 33.464844 65.289062 34.246094 65.25 C 35.023438 65.214844 35.984375 65.164062 36.386719 65.140625 C 38.570312 65.019531 39.796875 64.964844 41.269531 64.921875 C 43.25 64.867188 45.265625 64.796875 45.6875 64.765625 C 45.859375 64.753906 46.761719 64.722656 47.699219 64.699219 C 48.632812 64.675781 49.816406 64.636719 50.328125 64.613281 C 50.835938 64.585938 51.691406 64.546875 52.226562 64.523438 C 52.761719 64.5 53.597656 64.457031 54.082031 64.433594 C 55.175781 64.382812 57.382812 64.277344 58.675781 64.214844 C 60.753906 64.117188 63.738281 63.992188 65.152344 63.949219 C 65.964844 63.921875 66.96875 63.882812 67.382812 63.859375 C 67.796875 63.835938 68.375 63.816406 68.675781 63.816406 L 69.214844 63.816406 L 69.070312 64.007812 C 68.992188 64.113281 68.847656 64.316406 68.75 64.453125 C 68.652344 64.59375 68.546875 64.746094 68.507812 64.789062 C 68.441406 64.871094 68.050781 64.894531 64.398438 65.054688 C 63.851562 65.078125 63.058594 65.117188 62.632812 65.140625 C 62.207031 65.164062 61.363281 65.207031 60.753906 65.230469 C 60.148438 65.253906 59.28125 65.292969 58.832031 65.316406 C 58.382812 65.34375 57.398438 65.390625 56.644531 65.429688 C 55.890625 65.464844 54.917969 65.515625 54.480469 65.539062 C 54.042969 65.5625 53.257812 65.601562 52.734375 65.628906 C 52.210938 65.652344 51.109375 65.714844 50.28125 65.761719 C 49.457031 65.808594 47.738281 65.898438 46.460938 65.960938 C 45.183594 66.019531 43.824219 66.089844 43.433594 66.113281 C 43.046875 66.136719 42.300781 66.175781 41.777344 66.199219 C 41.253906 66.222656 40.230469 66.273438 39.503906 66.3125 C 37.726562 66.40625 33.488281 66.589844 32.386719 66.625 C 31.484375 66.652344 31.3125 66.664062 31.269531 66.710938 C 31.195312 66.785156 31.621094 68.289062 31.796875 68.574219 L 31.882812 68.714844 L 31.660156 69.191406 C 31.535156 69.453125 31.394531 69.710938 31.339844 69.765625 C 31.277344 69.832031 31.027344 69.9375 30.609375 70.070312 C 30.261719 70.179688 29.945312 70.28125 29.914062 70.292969 C 29.875 70.308594 29.828125 70.257812 29.78125 70.148438 Z M 29.78125 70.148438 " fill-opacity="1" fill-rule="nonzero"/></g><path fill="#008000" d="M 66.3125 83.179688 C 66.207031 83.082031 66.203125 83.074219 66.292969 83.125 C 66.574219 83.28125 66.589844 83.292969 66.511719 83.292969 C 66.46875 83.292969 66.382812 83.242188 66.3125 83.179688 Z M 66.3125 83.179688 " fill-opacity="1" fill-rule="nonzero"/><path fill="#008000" d="M 67.398438 85.0625 C 67.242188 84.714844 67.023438 84.164062 66.925781 83.867188 C 66.871094 83.710938 66.789062 83.523438 66.742188 83.449219 L 66.652344 83.316406 L 67.085938 83.269531 C 67.652344 83.207031 67.949219 83.070312 68.304688 82.710938 C 68.589844 82.414062 68.828125 82.007812 68.992188 81.53125 C 69.128906 81.121094 69.136719 80.527344 69 80.226562 C 68.859375 79.90625 68.707031 79.730469 68.457031 79.585938 C 68.035156 79.347656 67.421875 79.300781 65.746094 79.375 C 64.382812 79.4375 62.023438 79.492188 59.714844 79.515625 C 57.503906 79.539062 56.703125 79.558594 51.34375 79.695312 C 48.484375 79.765625 47.425781 79.789062 43.367188 79.847656 C 38.464844 79.921875 38.335938 79.929688 37.859375 80.046875 C 37.632812 80.105469 37.152344 80.285156 36.792969 80.441406 C 36.171875 80.714844 35.519531 80.933594 35.253906 80.960938 C 35.140625 80.972656 35.125 80.957031 35.078125 80.777344 C 34.984375 80.390625 35.136719 79.816406 35.46875 79.308594 C 35.773438 78.847656 36.398438 78.261719 36.808594 78.050781 C 37.253906 77.820312 37.722656 77.664062 38.207031 77.578125 C 38.679688 77.496094 40.695312 77.421875 49.421875 77.15625 C 50.210938 77.132812 50.988281 77.101562 51.144531 77.089844 C 51.300781 77.078125 52.664062 77.027344 54.171875 76.980469 C 55.675781 76.929688 57.804688 76.863281 58.898438 76.824219 C 59.992188 76.789062 61.542969 76.738281 62.34375 76.714844 C 63.148438 76.691406 64.519531 76.648438 65.394531 76.621094 C 67.273438 76.558594 68.121094 76.582031 68.609375 76.710938 C 69.699219 77 70.472656 77.632812 70.988281 78.652344 C 71.402344 79.480469 71.523438 80.449219 71.34375 81.503906 C 71.097656 82.929688 70.632812 83.855469 69.84375 84.484375 C 69.246094 84.960938 68.683594 85.183594 67.941406 85.230469 L 67.488281 85.261719 Z M 67.398438 85.0625 " fill-opacity="1" fill-rule="nonzero"/><path fill="#008000" d="M 66.652344 85.050781 C 65.914062 84.167969 65.292969 83.597656 64.527344 83.105469 C 64.007812 82.769531 63.675781 82.609375 63.148438 82.433594 C 62.339844 82.164062 62.058594 82.125 60.976562 82.125 C 59.847656 82.128906 59.503906 82.1875 58.699219 82.515625 L 58.222656 82.707031 L 58.246094 82.328125 C 58.253906 82.117188 58.273438 81.921875 58.28125 81.894531 C 58.335938 81.71875 59.578125 81.296875 60.335938 81.195312 C 62.039062 80.964844 63.515625 81.296875 64.773438 82.183594 C 65.820312 82.925781 66.714844 84.175781 66.9375 85.203125 C 66.976562 85.390625 66.902344 85.351562 66.652344 85.050781 Z M 66.652344 85.050781 " fill-opacity="1" fill-rule="nonzero"/><path fill="#008000" d="M 43.9375 85.769531 C 43.894531 85.746094 43.851562 85.632812 43.832031 85.515625 C 43.757812 85.023438 43.375 83.980469 43.183594 83.75 C 43.128906 83.679688 43.125 83.683594 43.300781 83.609375 C 43.507812 83.519531 44.546875 83.46875 48.933594 83.339844 C 52.773438 83.222656 53.765625 83.195312 55.253906 83.144531 C 56.140625 83.113281 56.890625 83.097656 56.921875 83.109375 C 57.046875 83.148438 56.949219 83.289062 56.429688 83.820312 C 55.796875 84.460938 55.640625 84.640625 55.277344 85.136719 C 55.105469 85.367188 54.960938 85.515625 54.878906 85.550781 C 54.789062 85.585938 53.972656 85.613281 52.292969 85.636719 C 50.945312 85.65625 49.136719 85.695312 48.273438 85.71875 C 45.484375 85.800781 44.015625 85.816406 43.9375 85.769531 Z M 43.9375 85.769531 " fill-opacity="1" fill-rule="nonzero"/><path fill="#008000" d="M 67.566406 85.832031 C 67.503906 85.515625 67.484375 85.371094 67.507812 85.371094 C 67.5625 85.371094 67.667969 85.824219 67.628906 85.890625 C 67.597656 85.945312 67.585938 85.929688 67.566406 85.832031 Z M 67.566406 85.832031 " fill-opacity="1" fill-rule="nonzero"/><g clip-path="url(#df503d7c47)"><path fill="#008000" d="M 28.542969 86.078125 C 27.914062 86 27.792969 85.976562 27.410156 85.851562 C 26.34375 85.503906 25.449219 84.816406 24.773438 83.8125 C 24.488281 83.390625 24.363281 83.136719 24.179688 82.605469 C 23.515625 80.699219 23.644531 78.242188 24.5 76.46875 C 24.871094 75.699219 25.675781 74.617188 26.425781 73.871094 C 28.007812 72.304688 29.703125 71.46875 32.035156 71.109375 C 32.664062 71.011719 33.519531 70.921875 34.820312 70.820312 C 35.285156 70.78125 36.378906 70.695312 37.25 70.621094 C 38.125 70.550781 39.027344 70.476562 39.257812 70.460938 C 39.488281 70.445312 40.394531 70.375 41.269531 70.304688 C 42.144531 70.234375 43.257812 70.148438 43.742188 70.113281 C 44.628906 70.046875 45.371094 69.988281 47.277344 69.824219 C 47.835938 69.777344 48.921875 69.6875 49.6875 69.625 C 51.203125 69.503906 52.394531 69.40625 53.15625 69.335938 C 53.421875 69.3125 53.898438 69.273438 54.214844 69.25 C 55.664062 69.140625 57.773438 68.972656 59.496094 68.828125 C 60.527344 68.746094 61.632812 68.65625 61.945312 68.628906 C 62.261719 68.605469 63.007812 68.542969 63.605469 68.496094 C 64.199219 68.449219 65.183594 68.367188 65.792969 68.320312 C 67.171875 68.210938 67.816406 68.121094 68.042969 68.011719 C 68.558594 67.761719 68.988281 67.25 69.410156 66.402344 C 69.71875 65.777344 70.160156 64.523438 71.800781 59.644531 C 72.585938 57.304688 73.351562 55.050781 74.097656 52.886719 C 74.359375 52.132812 74.769531 50.917969 75.011719 50.191406 C 75.542969 48.589844 75.917969 47.492188 76.105469 46.992188 C 76.179688 46.789062 76.234375 46.617188 76.230469 46.609375 C 76.222656 46.605469 75.390625 46.585938 74.378906 46.566406 L 72.539062 46.535156 L 72.472656 46.640625 C 72.390625 46.761719 71.71875 49.007812 71.382812 50.28125 C 71.304688 50.570312 71.203125 50.917969 71.15625 51.050781 C 71.035156 51.414062 70.984375 51.667969 71.03125 51.695312 C 71.105469 51.742188 72.582031 51.847656 73.039062 51.84375 L 73.480469 51.835938 L 73.492188 52.097656 L 73.503906 52.355469 L 73.226562 52.4375 C 72.8125 52.5625 72.457031 52.59375 71.523438 52.597656 L 70.675781 52.597656 L 70.648438 52.71875 C 70.632812 52.785156 70.613281 52.882812 70.601562 52.929688 C 70.574219 53.039062 70.085938 54.574219 69.585938 56.109375 C 69.382812 56.742188 69.214844 57.3125 69.214844 57.378906 C 69.214844 57.488281 69.230469 57.5 69.367188 57.5 C 69.628906 57.5 70.589844 57.367188 70.992188 57.273438 C 71.203125 57.226562 71.398438 57.195312 71.417969 57.210938 C 71.550781 57.289062 71.230469 57.636719 70.871094 57.804688 C 70.625 57.921875 69.777344 58.144531 69.324219 58.210938 C 69.132812 58.238281 68.953125 58.28125 68.933594 58.300781 C 68.910156 58.320312 68.769531 58.679688 68.617188 59.101562 C 68.039062 60.6875 67.519531 61.945312 67.097656 62.777344 L 66.941406 63.089844 L 66.675781 63.117188 C 66.527344 63.132812 66.097656 63.148438 65.714844 63.148438 L 65.019531 63.152344 L 65.21875 62.847656 C 65.878906 61.828125 66.484375 60.539062 66.957031 59.164062 C 67.207031 58.4375 67.203125 58.457031 67.136719 58.496094 C 67.03125 58.5625 63.734375 58.796875 63.558594 58.75 C 63.441406 58.71875 63.425781 58.777344 63.191406 59.886719 C 63.078125 60.40625 62.929688 61.113281 62.851562 61.453125 C 62.777344 61.792969 62.679688 62.25 62.632812 62.46875 C 62.585938 62.6875 62.523438 62.964844 62.492188 63.089844 L 62.433594 63.308594 L 61.570312 63.324219 C 60.613281 63.335938 59.878906 63.300781 59.917969 63.238281 C 60.003906 63.101562 60.933594 59.882812 61.148438 58.984375 L 61.179688 58.855469 L 60.28125 58.886719 C 59.789062 58.902344 58.855469 58.914062 58.207031 58.914062 L 57.027344 58.914062 L 56.980469 59.144531 C 56.730469 60.339844 56.460938 61.929688 56.378906 62.691406 C 56.335938 63.054688 56.296875 63.359375 56.289062 63.367188 C 56.28125 63.375 55.902344 63.398438 55.445312 63.421875 C 54.988281 63.441406 54.390625 63.472656 54.117188 63.488281 C 53.84375 63.507812 53.617188 63.507812 53.617188 63.492188 C 53.617188 63.429688 53.789062 62.855469 53.902344 62.535156 C 54.113281 61.941406 54.84375 58.972656 54.792969 58.925781 C 54.785156 58.917969 53.898438 58.910156 52.820312 58.914062 C 51.421875 58.914062 50.851562 58.929688 50.832031 58.964844 C 50.8125 58.992188 50.785156 59.167969 50.769531 59.351562 C 50.753906 59.535156 50.691406 60.015625 50.628906 60.414062 C 50.570312 60.816406 50.492188 61.332031 50.457031 61.5625 C 50.316406 62.53125 50.066406 63.722656 49.988281 63.796875 C 49.945312 63.835938 49.636719 63.859375 48.867188 63.882812 L 47.804688 63.914062 L 47.949219 63.175781 C 48.027344 62.769531 48.15625 62.046875 48.230469 61.570312 C 48.308594 61.09375 48.425781 60.34375 48.496094 59.90625 C 48.566406 59.46875 48.625 59.0625 48.625 59.003906 L 48.625 58.890625 L 46.394531 58.902344 C 45.167969 58.910156 44.160156 58.921875 44.152344 58.925781 C 44.148438 58.929688 44.132812 60.089844 44.121094 61.496094 L 44.097656 64.058594 L 42.933594 64.070312 L 41.765625 64.082031 L 41.792969 63.429688 C 41.808594 63.070312 41.832031 61.910156 41.847656 60.847656 L 41.878906 58.914062 L 39.511719 58.914062 C 37.800781 58.914062 37.136719 58.929688 37.113281 58.964844 C 37.097656 58.992188 37.066406 59.839844 37.046875 60.851562 C 37.023438 61.863281 36.996094 63.011719 36.980469 63.402344 L 36.953125 64.117188 L 36.746094 64.140625 C 36.632812 64.15625 36.117188 64.179688 35.601562 64.199219 L 34.660156 64.226562 L 34.683594 64.054688 C 34.710938 63.84375 34.824219 62.675781 34.863281 62.226562 C 34.898438 61.761719 35.015625 59.425781 35.015625 59.144531 L 35.015625 58.914062 L 33.96875 58.914062 C 33.390625 58.914062 32.890625 58.933594 32.855469 58.953125 C 32.78125 59 32.789062 59.050781 33.027344 60.195312 C 33.292969 61.472656 33.339844 62.246094 33.199219 62.976562 C 33.132812 63.308594 33.027344 63.5 32.789062 63.71875 C 32.609375 63.886719 32.566406 63.90625 32.367188 63.90625 C 32.1875 63.90625 32.136719 63.886719 32.082031 63.804688 C 31.914062 63.550781 30.34375 58.824219 30.304688 58.464844 L 30.277344 58.21875 L 30.492188 58.191406 C 30.613281 58.175781 31.117188 58.15625 31.617188 58.140625 C 32.113281 58.125 32.867188 58.085938 33.292969 58.050781 C 33.71875 58.015625 34.277344 57.984375 34.535156 57.976562 L 35.003906 57.964844 L 35.03125 56.550781 C 35.046875 55.773438 35.0625 54.566406 35.0625 53.867188 L 35.0625 52.597656 L 33.234375 52.597656 C 32.230469 52.597656 31.3125 52.609375 31.199219 52.625 L 30.992188 52.65625 L 31.019531 52.875 C 31.0625 53.1875 31.9375 56.535156 32.078125 56.921875 C 32.125 57.0625 32.132812 57.132812 32.101562 57.167969 C 32.066406 57.199219 31.707031 57.210938 31.003906 57.199219 C 30.117188 57.1875 29.949219 57.175781 29.90625 57.117188 C 29.839844 57.03125 29.785156 56.878906 28.859375 54.117188 L 28.101562 51.859375 L 29.25 51.832031 C 29.882812 51.8125 30.75 51.78125 31.171875 51.757812 C 31.597656 51.734375 32.644531 51.714844 33.496094 51.714844 L 35.046875 51.714844 L 35.078125 49.960938 C 35.09375 48.992188 35.105469 47.863281 35.105469 47.445312 L 35.105469 46.6875 L 34.828125 46.65625 C 34.488281 46.621094 29.527344 46.65625 29.464844 46.695312 C 29.410156 46.726562 29.457031 47.050781 29.582031 47.519531 C 29.628906 47.699219 29.84375 48.542969 30.054688 49.390625 C 30.46875 51.054688 30.464844 51.007812 30.175781 51.007812 C 30.101562 51.007812 29.722656 50.96875 29.335938 50.921875 C 28.949219 50.871094 28.503906 50.832031 28.34375 50.832031 C 28.035156 50.832031 27.898438 50.769531 27.875 50.628906 C 27.867188 50.550781 27.25 48.636719 26.367188 45.933594 C 26.070312 45.023438 25.964844 44.777344 25.695312 44.355469 C 25.605469 44.214844 25.667969 44.101562 25.816406 44.140625 C 25.882812 44.15625 31.503906 44.1875 38.308594 44.207031 C 58.964844 44.261719 76.679688 44.40625 77.5 44.519531 C 77.976562 44.585938 78.242188 44.675781 78.542969 44.878906 C 78.890625 45.113281 79.132812 45.425781 79.246094 45.789062 C 79.410156 46.3125 79.363281 46.542969 78.6875 48.511719 C 78.503906 49.046875 78.085938 50.269531 77.757812 51.230469 C 77.429688 52.1875 77.003906 53.441406 76.808594 54.011719 C 76.613281 54.582031 76.328125 55.425781 76.175781 55.886719 C 76.019531 56.351562 75.8125 56.964844 75.707031 57.257812 C 75.605469 57.550781 75.136719 58.929688 74.664062 60.328125 C 74.191406 61.722656 73.578125 63.542969 73.296875 64.367188 C 73.015625 65.195312 72.707031 66.128906 72.613281 66.445312 C 72.179688 67.84375 71.953125 68.375 71.542969 68.917969 C 71.113281 69.492188 70.335938 70.035156 69.621094 70.265625 C 69.160156 70.414062 68.984375 70.4375 66.742188 70.621094 C 65.855469 70.691406 64.910156 70.769531 64.640625 70.796875 C 64.375 70.820312 63.898438 70.859375 63.582031 70.882812 C 63.265625 70.90625 62.917969 70.9375 62.808594 70.949219 C 62.699219 70.960938 62.144531 71.011719 61.570312 71.058594 C 59.28125 71.253906 57.324219 71.417969 56.800781 71.460938 C 56.496094 71.484375 55.5625 71.566406 54.722656 71.636719 C 53.886719 71.710938 52.722656 71.808594 52.136719 71.855469 C 51.554688 71.90625 50.300781 72.011719 49.355469 72.097656 C 48.40625 72.179688 47.253906 72.28125 46.792969 72.316406 C 46.332031 72.355469 45.394531 72.433594 44.714844 72.496094 C 44.035156 72.558594 42.992188 72.648438 42.394531 72.695312 C 41.800781 72.742188 41.105469 72.800781 40.851562 72.824219 C 40.59375 72.847656 39.589844 72.9375 38.617188 73.023438 C 33.738281 73.460938 33.996094 73.429688 32.546875 73.800781 C 31.183594 74.148438 30.265625 74.550781 29.441406 75.15625 C 28.648438 75.734375 28.152344 76.25 27.640625 77.007812 C 27.292969 77.523438 27.089844 77.929688 26.894531 78.507812 C 26.492188 79.683594 26.457031 81.378906 26.816406 82.339844 C 27.039062 82.925781 27.195312 83.171875 27.609375 83.582031 C 28.085938 84.050781 28.445312 84.257812 29.085938 84.433594 C 29.496094 84.542969 29.5625 84.546875 30.433594 84.539062 C 31.257812 84.527344 31.351562 84.535156 31.351562 84.601562 C 31.351562 84.667969 31.03125 85.382812 30.890625 85.636719 C 30.785156 85.820312 30.636719 85.894531 30.222656 85.960938 C 29.511719 86.078125 28.902344 86.121094 28.542969 86.078125 Z M 41.851562 57.96875 C 41.859375 57.964844 41.878906 56.753906 41.894531 55.277344 L 41.921875 52.597656 L 39.578125 52.597656 C 38.289062 52.597656 37.203125 52.609375 37.164062 52.625 C 37.101562 52.648438 37.09375 52.925781 37.09375 55.3125 C 37.09375 56.773438 37.101562 57.980469 37.113281 57.992188 C 37.132812 58.007812 41.832031 57.988281 41.851562 57.96875 Z M 48.523438 57.964844 C 48.679688 57.941406 48.710938 57.917969 48.734375 57.820312 C 48.777344 57.625 48.988281 55.71875 49.132812 54.230469 C 49.21875 53.378906 49.289062 52.777344 49.316406 52.675781 C 49.335938 52.601562 49.195312 52.597656 46.753906 52.597656 L 44.171875 52.597656 L 44.15625 55.257812 C 44.140625 57.234375 44.148438 57.933594 44.1875 57.964844 C 44.242188 58.011719 48.179688 58.011719 48.523438 57.964844 Z M 54.984375 57.777344 C 55.011719 57.660156 55.199219 56.671875 55.40625 55.578125 C 55.613281 54.488281 55.832031 53.367188 55.890625 53.09375 L 55.996094 52.597656 L 51.335938 52.597656 L 51.28125 53.449219 C 51.199219 54.785156 51.0625 56.496094 50.992188 57.125 C 50.953125 57.441406 50.925781 57.769531 50.925781 57.855469 L 50.921875 58.007812 L 54.9375 57.984375 Z M 59.769531 57.984375 C 61.222656 57.984375 61.308594 57.976562 61.351562 57.898438 C 61.375 57.855469 61.453125 57.542969 61.523438 57.207031 C 61.59375 56.871094 61.695312 56.40625 61.742188 56.175781 C 61.792969 55.945312 61.960938 55.078125 62.121094 54.246094 C 62.28125 53.417969 62.421875 52.707031 62.4375 52.667969 C 62.460938 52.605469 62.257812 52.597656 60.273438 52.597656 L 58.082031 52.597656 L 58.0625 52.699219 C 58.050781 52.753906 58 53.085938 57.949219 53.4375 C 57.851562 54.09375 57.570312 55.785156 57.332031 57.136719 C 57.257812 57.554688 57.199219 57.914062 57.199219 57.9375 C 57.199219 57.992188 57.570312 58.023438 57.949219 58.003906 C 58.105469 57.996094 58.925781 57.988281 59.769531 57.984375 Z M 64.941406 57.8125 C 65.433594 57.761719 66.082031 57.703125 66.386719 57.675781 C 66.691406 57.648438 66.980469 57.617188 67.027344 57.609375 C 67.078125 57.601562 67.191406 57.59375 67.277344 57.59375 C 67.367188 57.589844 67.472656 57.558594 67.507812 57.523438 C 67.546875 57.484375 67.628906 57.28125 67.691406 57.070312 C 67.757812 56.855469 67.90625 56.375 68.023438 56 C 68.429688 54.714844 68.679688 53.902344 68.863281 53.28125 C 68.964844 52.941406 69.058594 52.640625 69.070312 52.613281 C 69.085938 52.574219 68.585938 52.566406 66.976562 52.585938 C 65.8125 52.597656 64.851562 52.621094 64.835938 52.636719 C 64.820312 52.652344 64.753906 52.921875 64.6875 53.238281 C 64.625 53.554688 64.492188 54.160156 64.398438 54.585938 C 64.304688 55.011719 64.1875 55.566406 64.136719 55.824219 C 64.085938 56.078125 63.976562 56.59375 63.890625 56.96875 C 63.804688 57.339844 63.738281 57.703125 63.738281 57.773438 C 63.738281 57.929688 63.734375 57.929688 64.941406 57.8125 Z M 41.910156 49.21875 C 41.921875 47.859375 41.917969 46.726562 41.898438 46.703125 C 41.875 46.671875 41.015625 46.652344 39.527344 46.644531 L 37.191406 46.632812 L 37.164062 48.125 C 37.148438 48.945312 37.125 50.089844 37.109375 50.667969 L 37.082031 51.714844 L 41.886719 51.691406 Z M 49.328125 51.648438 C 49.382812 51.59375 49.683594 47.449219 49.6875 46.714844 C 49.6875 46.640625 49.527344 46.636719 46.929688 46.636719 L 44.171875 46.636719 L 44.15625 49.074219 C 44.144531 50.417969 44.148438 51.5625 44.15625 51.617188 L 44.175781 51.71875 L 46.730469 51.707031 C 48.394531 51.699219 49.300781 51.675781 49.328125 51.648438 Z M 56.128906 51.636719 C 56.152344 51.59375 56.183594 51.421875 56.199219 51.25 C 56.21875 51.082031 56.269531 50.671875 56.316406 50.34375 C 56.402344 49.722656 56.636719 47.734375 56.699219 47.0625 C 56.726562 46.800781 56.722656 46.664062 56.691406 46.644531 C 56.667969 46.628906 55.527344 46.613281 54.15625 46.609375 L 51.667969 46.601562 L 51.632812 46.695312 C 51.613281 46.746094 51.585938 47.199219 51.570312 47.695312 C 51.542969 48.480469 51.503906 49.210938 51.378906 51.25 L 51.355469 51.691406 L 53.722656 51.703125 C 55.945312 51.714844 56.089844 51.710938 56.128906 51.636719 Z M 62.625 51.636719 C 62.675781 51.527344 62.734375 51.238281 62.964844 49.925781 C 63.378906 47.582031 63.523438 46.671875 63.496094 46.644531 C 63.476562 46.628906 62.414062 46.605469 61.128906 46.597656 C 58.890625 46.582031 58.796875 46.585938 58.773438 46.664062 C 58.761719 46.710938 58.738281 46.914062 58.71875 47.121094 C 58.695312 47.460938 58.59375 48.34375 58.410156 49.851562 C 58.375 50.152344 58.304688 50.664062 58.257812 50.992188 C 58.207031 51.320312 58.167969 51.617188 58.167969 51.652344 C 58.167969 51.707031 58.480469 51.714844 60.378906 51.714844 C 62.433594 51.714844 62.585938 51.710938 62.625 51.636719 Z M 69.238281 51.636719 C 69.40625 51.589844 69.441406 51.503906 69.96875 49.835938 C 70.191406 49.132812 70.492188 48.179688 70.636719 47.722656 C 70.78125 47.261719 70.914062 46.824219 70.925781 46.746094 L 70.949219 46.605469 L 69.453125 46.578125 C 67.5625 46.539062 66.476562 46.539062 66.128906 46.574219 C 65.898438 46.601562 65.851562 46.617188 65.835938 46.695312 C 65.828125 46.75 65.769531 47.097656 65.707031 47.476562 C 65.644531 47.851562 65.5625 48.328125 65.527344 48.535156 C 65.488281 48.742188 65.417969 49.128906 65.371094 49.394531 C 65.203125 50.34375 65.015625 51.339844 64.972656 51.488281 C 64.953125 51.574219 64.945312 51.660156 64.960938 51.683594 C 64.992188 51.734375 69.046875 51.691406 69.238281 51.636719 Z M 69.238281 51.636719 " fill-opacity="1" fill-rule="nonzero"/></g><path fill="#008000" d="M 43.511719 86.972656 C 43.484375 86.90625 43.441406 86.75 43.414062 86.628906 C 43.34375 86.320312 42.921875 85.496094 42.597656 85.042969 C 42.054688 84.28125 41.464844 83.71875 40.652344 83.171875 C 39.75 82.574219 38.890625 82.28125 37.796875 82.210938 C 36.945312 82.15625 35.8125 82.335938 34.957031 82.660156 C 34.515625 82.824219 33.671875 83.226562 33.417969 83.390625 C 33.296875 83.464844 33.195312 83.519531 33.1875 83.511719 C 33.167969 83.484375 33.226562 82.816406 33.25 82.792969 C 33.261719 82.78125 33.5 82.601562 33.78125 82.390625 C 34.636719 81.75 35.226562 81.503906 36.386719 81.3125 C 38.082031 81.027344 39.308594 81.222656 40.628906 81.980469 C 41.738281 82.621094 42.464844 83.382812 42.988281 84.464844 C 43.523438 85.5625 43.792969 86.640625 43.617188 86.976562 L 43.554688 87.09375 Z M 43.511719 86.972656 " fill-opacity="1" fill-rule="nonzero"/><g clip-path="url(#4d11de3dbb)"><path fill="#008000" d="M 36.222656 93.917969 C 35.074219 93.648438 34.050781 93.0625 33.183594 92.167969 C 32.699219 91.671875 32.5625 91.488281 32.289062 90.980469 C 31.605469 89.714844 31.519531 88.253906 32.054688 86.917969 C 32.277344 86.359375 32.804688 85.589844 33.300781 85.101562 C 34.269531 84.140625 35.417969 83.628906 36.71875 83.570312 C 37.679688 83.53125 38.324219 83.671875 39.25 84.121094 C 40.5625 84.757812 41.5 85.855469 41.953125 87.292969 C 42.148438 87.902344 42.21875 88.351562 42.21875 88.953125 C 42.21875 90.6875 41.558594 92.0625 40.289062 92.964844 C 39.054688 93.84375 37.488281 94.207031 36.222656 93.917969 Z M 37.40625 90.414062 C 38.136719 90.222656 38.679688 89.671875 38.847656 88.949219 C 38.921875 88.617188 38.890625 88.007812 38.773438 87.703125 C 38.558594 87.125 38.039062 86.652344 37.390625 86.441406 C 36.265625 86.070312 35.09375 86.847656 34.914062 88.085938 C 34.816406 88.769531 35.011719 89.34375 35.507812 89.84375 C 36.058594 90.398438 36.714844 90.59375 37.40625 90.414062 Z M 37.40625 90.414062 " fill-opacity="1" fill-rule="nonzero"/></g></svg>