<svg xmlns="http://www.w3.org/2000/svg" xmlns:xlink="http://www.w3.org/1999/xlink" width="140" zoomAndPan="magnify" viewBox="0 0 104.88 104.999996" height="140" preserveAspectRatio="xMidYMid meet" version="1.0"><defs><filter x="0%" y="0%" width="100%" height="100%" id="0b38ee8d65"><feColorMatrix values="0 0 0 0 1 0 0 0 0 1 0 0 0 0 1 0 0 0 1 0" color-interpolation-filters="sRGB"/></filter><mask id="6260a2af4e"><g filter="url(#0b38ee8d65)"><rect x="-10.488" width="125.856" fill="#000000" y="-10.5" height="125.999995" fill-opacity="0.32"/></g></mask><clipPath id="3d91f8018f"><path d="M 2 3 L 101 3 L 101 99 L 2 99 Z M 2 3 " clip-rule="nonzero"/></clipPath><clipPath id="4d4be444a7"><path d="M 0.554688 97.214844 L 4.960938 1.425781 L 104.492188 6.003906 L 100.082031 101.792969 Z M 0.554688 97.214844 " clip-rule="nonzero"/></clipPath><clipPath id="0f04c82b94"><path d="M 0.554688 97.214844 L 4.960938 1.425781 L 104.492188 6.003906 L 100.082031 101.792969 Z M 0.554688 97.214844 " clip-rule="nonzero"/></clipPath><clipPath id="ac6bee51c7"><rect x="0" width="104" y="0" height="101"/></clipPath><clipPath id="b42f488d68"><path d="M 11.785156 70 L 38 70 L 38 96.828125 L 11.785156 96.828125 Z M 11.785156 70 " clip-rule="nonzero"/></clipPath><clipPath id="73b9642976"><path d="M 54 57 L 93.441406 57 L 93.441406 96.828125 L 54 96.828125 Z M 54 57 " clip-rule="nonzero"/></clipPath></defs><g mask="url(#6260a2af4e)"><g transform="matrix(1, 0, 0, 1, 0, 1)"><g clip-path="url(#ac6bee51c7)"><g clip-path="url(#3d91f8018f)"><g clip-path="url(#4d4be444a7)"><g clip-path="url(#0f04c82b94)"><path fill="#7ed957" d="M 51.921875 3.976562 C 41.976562 5.402344 33.070312 10.476562 25.09375 16.386719 C 18.0625 21.605469 11.695312 27.886719 7.476562 35.632812 C 5.425781 39.382812 3.507812 43.628906 3.070312 47.90625 C 2.636719 52.164062 3.289062 56.511719 4.828125 60.5 C 6.363281 64.550781 8.886719 68.292969 12.121094 71.152344 C 15.773438 74.410156 20.257812 76.339844 24.679688 78.34375 C 34.726562 82.886719 43.609375 89.550781 53.652344 94.171875 C 62.535156 98.265625 72.765625 100.539062 82.304688 97.214844 C 91.402344 94.027344 96.925781 85.886719 99.085938 76.757812 C 101.527344 66.316406 99.894531 55.332031 96.296875 45.34375 C 94.507812 40.332031 92.214844 35.511719 89.71875 30.804688 C 87.238281 26.15625 84.699219 21.484375 81.773438 17.113281 C 79.125 13.148438 75.9375 9.636719 71.730469 7.324219 C 67.730469 5.121094 63.191406 3.941406 58.628906 3.691406 C 56.359375 3.566406 54.113281 3.703125 51.921875 3.976562 " fill-opacity="1" fill-rule="nonzero"/></g></g></g></g></g></g><g clip-path="url(#b42f488d68)"><path fill="#008000" d="M 11.785156 70.496094 L 11.785156 96.550781 L 37.847656 96.550781 L 37.847656 70.496094 L 30.492188 70.496094 L 30.492188 79.796875 C 30.492188 79.964844 30.457031 80.125 30.394531 80.277344 C 30.332031 80.429688 30.242188 80.566406 30.125 80.683594 C 30.007812 80.800781 29.871094 80.890625 29.71875 80.953125 C 29.566406 81.019531 29.40625 81.050781 29.238281 81.050781 L 20.394531 81.050781 C 20.230469 81.050781 20.070312 81.019531 19.917969 80.953125 C 19.765625 80.890625 19.628906 80.800781 19.511719 80.683594 C 19.394531 80.566406 19.304688 80.429688 19.238281 80.277344 C 19.175781 80.125 19.144531 79.964844 19.144531 79.796875 L 19.144531 70.496094 Z M 11.785156 70.496094 " fill-opacity="1" fill-rule="evenodd"/></g><path fill="#008000" d="M 21.644531 70.496094 L 27.988281 70.496094 L 27.988281 78.546875 L 21.644531 78.546875 Z M 21.644531 70.496094 " fill-opacity="1" fill-rule="nonzero"/><g clip-path="url(#73b9642976)"><path fill="#008000" d="M 93.089844 57.886719 L 81.570312 57.886719 L 81.570312 71.695312 C 81.570312 71.863281 81.539062 72.019531 81.476562 72.175781 C 81.414062 72.328125 81.324219 72.464844 81.203125 72.582031 C 81.085938 72.699219 80.953125 72.789062 80.800781 72.851562 C 80.644531 72.914062 80.484375 72.945312 80.320312 72.945312 L 67.199219 72.945312 C 67.035156 72.945312 66.875 72.914062 66.722656 72.851562 C 66.570312 72.789062 66.433594 72.699219 66.316406 72.582031 C 66.199219 72.460938 66.109375 72.328125 66.046875 72.175781 C 65.984375 72.019531 65.953125 71.863281 65.953125 71.695312 L 65.953125 57.886719 L 54.429688 57.886719 L 54.429688 96.550781 L 93.089844 96.550781 Z M 93.089844 57.886719 " fill-opacity="1" fill-rule="evenodd"/></g><path fill="#7ed957" d="M 68.453125 57.886719 L 79.066406 57.886719 L 79.066406 70.445312 L 68.453125 70.445312 Z M 68.453125 57.886719 " fill-opacity="1" fill-rule="nonzero"/><path fill="#7ed957" d="M 48.28125 24.941406 C 48.28125 25.117188 48.304688 25.292969 48.347656 25.464844 C 48.390625 25.632812 48.453125 25.796875 48.535156 25.953125 C 48.621094 26.109375 48.722656 26.25 48.839844 26.382812 C 48.957031 26.511719 49.089844 26.625 49.238281 26.726562 C 49.382812 26.824219 49.539062 26.902344 49.707031 26.960938 C 49.871094 27.019531 50.042969 27.058594 50.21875 27.074219 C 50.394531 27.09375 50.570312 27.085938 50.742188 27.0625 C 50.917969 27.035156 51.085938 26.988281 51.25 26.921875 C 51.414062 26.851562 51.5625 26.765625 51.707031 26.660156 C 51.847656 26.554688 51.972656 26.4375 52.085938 26.300781 C 52.199219 26.164062 52.289062 26.015625 52.367188 25.855469 C 52.441406 25.695312 52.496094 25.53125 52.53125 25.355469 C 52.566406 25.183594 52.578125 25.007812 52.570312 24.832031 C 52.558594 24.65625 52.53125 24.484375 52.476562 24.316406 C 52.425781 24.148438 52.355469 23.988281 52.265625 23.835938 C 52.175781 23.683594 52.066406 23.546875 51.941406 23.421875 C 51.632812 23.117188 51.269531 22.921875 50.84375 22.839844 C 50.417969 22.753906 50.003906 22.796875 49.605469 22.960938 C 49.203125 23.128906 48.882812 23.390625 48.644531 23.753906 C 48.402344 24.113281 48.28125 24.507812 48.28125 24.941406 Z M 48.28125 24.941406 " fill-opacity="1" fill-rule="evenodd"/><path fill="#7ed957" d="M 52.78125 37.378906 C 52.640625 37.296875 52.515625 37.1875 52.417969 37.054688 C 52.316406 36.925781 52.242188 36.777344 52.199219 36.617188 C 52.160156 36.457031 52.148438 36.296875 52.167969 36.132812 C 52.191406 35.96875 52.242188 35.8125 52.328125 35.671875 L 60.671875 21.222656 C 60.753906 21.078125 60.863281 20.957031 60.992188 20.855469 C 61.125 20.757812 61.269531 20.683594 61.429688 20.640625 C 61.589844 20.601562 61.75 20.589844 61.914062 20.609375 C 62.078125 20.632812 62.234375 20.683594 62.375 20.765625 C 62.519531 20.851562 62.640625 20.957031 62.742188 21.089844 C 62.84375 21.21875 62.914062 21.363281 62.957031 21.523438 C 63 21.683594 63.011719 21.84375 62.988281 22.007812 C 62.964844 22.171875 62.914062 22.328125 62.832031 22.46875 L 54.492188 36.921875 C 54.40625 37.066406 54.300781 37.1875 54.167969 37.289062 C 54.035156 37.390625 53.890625 37.460938 53.730469 37.503906 C 53.570312 37.546875 53.410156 37.554688 53.246094 37.535156 C 53.082031 37.511719 52.925781 37.460938 52.78125 37.378906 Z M 45.78125 24.941406 C 45.777344 24.636719 45.808594 24.335938 45.867188 24.035156 C 45.925781 23.738281 46.015625 23.445312 46.132812 23.164062 C 46.25 22.882812 46.390625 22.613281 46.5625 22.359375 C 46.730469 22.105469 46.921875 21.871094 47.140625 21.65625 C 47.355469 21.441406 47.589844 21.246094 47.84375 21.078125 C 48.097656 20.90625 48.367188 20.765625 48.648438 20.648438 C 48.929688 20.53125 49.21875 20.445312 49.519531 20.382812 C 49.820312 20.324219 50.121094 20.296875 50.425781 20.296875 C 54.550781 20.296875 56.632812 25.308594 53.710938 28.226562 C 50.792969 31.148438 45.78125 29.066406 45.78125 24.941406 Z M 68.019531 36.492188 C 65.097656 39.410156 60.085938 37.328125 60.085938 33.203125 C 60.085938 32.898438 60.113281 32.59375 60.171875 32.296875 C 60.234375 31.996094 60.320312 31.703125 60.4375 31.421875 C 60.554688 31.140625 60.699219 30.871094 60.867188 30.621094 C 61.035156 30.367188 61.230469 30.128906 61.445312 29.914062 C 61.660156 29.699219 61.894531 29.507812 62.148438 29.335938 C 62.402344 29.167969 62.671875 29.023438 62.953125 28.90625 C 63.234375 28.789062 63.527344 28.703125 63.824219 28.644531 C 64.125 28.585938 64.425781 28.554688 64.730469 28.554688 C 68.863281 28.554688 70.941406 33.566406 68.023438 36.492188 Z M 62.566406 47.214844 L 71.71875 53.570312 L 70.796875 42.460938 C 71.328125 41.933594 71.824219 41.378906 72.289062 40.792969 C 72.75 40.207031 73.175781 39.59375 73.566406 38.957031 C 73.957031 38.320312 74.308594 37.664062 74.617188 36.984375 C 74.929688 36.304688 75.195312 35.609375 75.421875 34.894531 C 75.648438 34.183594 75.832031 33.460938 75.972656 32.726562 C 76.113281 31.996094 76.207031 31.253906 76.257812 30.507812 C 76.308594 29.765625 76.316406 29.019531 76.277344 28.273438 C 76.238281 27.527344 76.15625 26.785156 76.027344 26.050781 C 75.898438 25.3125 75.726562 24.589844 75.511719 23.875 C 75.296875 23.15625 75.039062 22.457031 74.742188 21.773438 C 74.441406 21.089844 74.101562 20.425781 73.722656 19.78125 C 73.34375 19.136719 72.925781 18.519531 72.472656 17.925781 C 72.019531 17.332031 71.53125 16.769531 71.011719 16.234375 C 70.488281 15.699219 69.9375 15.199219 69.355469 14.730469 C 68.773438 14.261719 68.164062 13.828125 67.53125 13.433594 C 66.898438 13.039062 66.242188 12.683594 65.566406 12.367188 C 64.890625 12.050781 64.195312 11.777344 63.484375 11.542969 C 62.777344 11.308594 62.054688 11.121094 61.324219 10.972656 C 60.589844 10.828125 59.851562 10.726562 59.105469 10.667969 C 58.363281 10.609375 57.617188 10.597656 56.871094 10.628906 C 56.125 10.664062 55.382812 10.738281 54.644531 10.859375 C 53.910156 10.980469 53.179688 11.148438 52.464844 11.355469 C 51.746094 11.566406 51.046875 11.816406 50.359375 12.109375 C 49.671875 12.402344 49.003906 12.738281 48.359375 13.109375 C 47.710938 13.484375 47.089844 13.894531 46.492188 14.34375 C 45.894531 14.792969 45.324219 15.273438 44.785156 15.792969 C 44.246094 16.308594 43.742188 16.855469 43.265625 17.433594 C 42.792969 18.011719 42.355469 18.613281 41.957031 19.246094 C 41.554688 19.875 41.191406 20.527344 40.871094 21.199219 C 40.546875 21.875 40.265625 22.566406 40.027344 23.273438 C 39.789062 23.980469 39.59375 24.699219 39.441406 25.429688 C 39.289062 26.164062 39.179688 26.898438 39.113281 27.644531 C 39.050781 28.390625 39.03125 29.132812 39.058594 29.878906 C 39.082031 30.628906 39.152344 31.371094 39.269531 32.109375 C 39.382812 32.84375 39.542969 33.574219 39.746094 34.292969 C 39.949219 35.011719 40.191406 35.714844 40.480469 36.40625 C 40.765625 37.09375 41.09375 37.765625 41.460938 38.414062 C 41.832031 39.066406 42.234375 39.691406 42.679688 40.292969 C 43.121094 40.894531 43.597656 41.464844 44.113281 42.011719 C 44.625 42.554688 45.167969 43.066406 45.738281 43.542969 C 46.3125 44.023438 46.914062 44.464844 47.539062 44.871094 C 48.167969 45.277344 48.816406 45.644531 49.488281 45.972656 C 50.15625 46.300781 50.847656 46.589844 51.550781 46.832031 C 52.257812 47.078125 52.976562 47.28125 53.703125 47.441406 C 54.433594 47.601562 55.171875 47.714844 55.914062 47.785156 C 56.660156 47.855469 57.402344 47.882812 58.148438 47.863281 C 58.898438 47.84375 59.640625 47.78125 60.378906 47.671875 C 61.117188 47.5625 61.847656 47.410156 62.570312 47.214844 Z M 62.566406 47.214844 " fill-opacity="1" fill-rule="evenodd"/><path fill="#7ed957" d="M 66.253906 34.71875 C 66.375 34.59375 66.484375 34.453125 66.574219 34.304688 C 66.664062 34.152344 66.734375 33.992188 66.785156 33.824219 C 66.835938 33.65625 66.867188 33.480469 66.875 33.304688 C 66.882812 33.128906 66.871094 32.957031 66.835938 32.78125 C 66.800781 32.609375 66.746094 32.445312 66.671875 32.285156 C 66.59375 32.125 66.5 31.976562 66.390625 31.839844 C 66.277344 31.703125 66.152344 31.585938 66.007812 31.480469 C 65.867188 31.375 65.714844 31.289062 65.550781 31.222656 C 65.390625 31.152344 65.222656 31.105469 65.046875 31.082031 C 64.871094 31.054688 64.695312 31.050781 64.523438 31.070312 C 64.347656 31.085938 64.175781 31.125 64.007812 31.183594 C 63.84375 31.242188 63.6875 31.320312 63.539062 31.421875 C 63.394531 31.519531 63.261719 31.632812 63.144531 31.761719 C 63.023438 31.894531 62.925781 32.035156 62.839844 32.191406 C 62.757812 32.347656 62.695312 32.511719 62.652344 32.683594 C 62.609375 32.851562 62.585938 33.027344 62.585938 33.203125 C 62.585938 33.636719 62.707031 34.035156 62.949219 34.398438 C 63.1875 34.757812 63.511719 35.023438 63.914062 35.1875 C 64.3125 35.355469 64.726562 35.394531 65.152344 35.308594 C 65.578125 35.222656 65.945312 35.027344 66.253906 34.71875 Z M 66.253906 34.71875 " fill-opacity="1" fill-rule="evenodd"/><path fill="#7ed957" d="M 26.054688 64.011719 C 25.988281 64.164062 25.949219 64.320312 25.945312 64.488281 C 25.9375 64.652344 25.964844 64.8125 26.019531 64.96875 C 26.078125 65.121094 26.164062 65.261719 26.277344 65.382812 C 26.390625 65.503906 26.519531 65.597656 26.671875 65.667969 C 26.820312 65.738281 26.980469 65.773438 27.144531 65.78125 C 27.308594 65.789062 27.46875 65.761719 27.625 65.707031 C 27.78125 65.648438 27.917969 65.5625 28.039062 65.449219 C 28.160156 65.339844 28.257812 65.207031 28.328125 65.058594 C 31.175781 58.878906 36.804688 54.039062 43.765625 54.148438 L 45.546875 54.285156 L 42.84375 55.003906 C 42.679688 55.039062 42.527344 55.101562 42.390625 55.199219 C 42.253906 55.296875 42.136719 55.414062 42.046875 55.554688 C 41.957031 55.699219 41.898438 55.851562 41.871094 56.019531 C 41.84375 56.183594 41.851562 56.347656 41.890625 56.511719 C 41.925781 56.675781 41.996094 56.828125 42.097656 56.960938 C 42.195312 57.097656 42.316406 57.210938 42.460938 57.296875 C 42.605469 57.382812 42.761719 57.4375 42.929688 57.460938 C 43.097656 57.484375 43.261719 57.472656 43.421875 57.429688 L 50.472656 55.5625 C 50.949219 55.4375 51.246094 55.136719 51.367188 54.660156 C 51.484375 54.183594 51.363281 53.777344 51.003906 53.441406 L 45.894531 48.304688 C 45.777344 48.1875 45.644531 48.097656 45.492188 48.03125 C 45.339844 47.96875 45.179688 47.9375 45.015625 47.9375 C 44.851562 47.9375 44.691406 47.96875 44.539062 48.03125 C 44.386719 48.09375 44.25 48.183594 44.132812 48.300781 C 44.015625 48.417969 43.925781 48.550781 43.859375 48.703125 C 43.796875 48.855469 43.765625 49.015625 43.765625 49.179688 C 43.765625 49.34375 43.796875 49.503906 43.859375 49.65625 C 43.921875 49.808594 44.011719 49.945312 44.128906 50.0625 L 45.859375 51.804688 L 43.808594 51.652344 C 35.902344 51.488281 29.335938 56.910156 26.054688 64.011719 Z M 26.054688 64.011719 " fill-opacity="1" fill-rule="evenodd"/></svg>